G04 DipTrace 3.0.0.2*
G04 BottomSilk.gbr*
%MOIN*%
G04 #@! TF.FileFunction,Legend,Bot*
G04 #@! TF.Part,Single*
%ADD10C,0.009843*%
%ADD19C,0.019688*%
%ADD21C,0.023619*%
%ADD28C,0.011811*%
%ADD32C,0.015431*%
%ADD66C,0.006176*%
%ADD67C,0.010936*%
%FSLAX26Y26*%
G04*
G70*
G90*
G75*
G01*
G04 BotSilk*
%LPD*%
D19*
X2594488Y720471D3*
X2539370Y824809D2*
D10*
Y844492D1*
X2649606Y824809D2*
Y844492D1*
X3816929Y1151555D2*
Y679154D1*
Y1151555D2*
X3200805D1*
X3816929Y679154D2*
X3200805D1*
X3078757Y789346D2*
Y728339D1*
Y1102370D2*
Y1041362D1*
D21*
X2998022Y730309D3*
X3078757Y966535D2*
D10*
Y864173D1*
X1217717Y558268D2*
D28*
X430315D1*
Y1266929D1*
X1217717D1*
Y558268D1*
G36*
X1213780Y563795D2*
Y698441D1*
X1079134Y563795D1*
X1076772D1*
X1213780D1*
G37*
X1295276Y1165378D2*
D10*
X2925197D1*
X1295276Y661459D2*
X2925197D1*
Y1165378D2*
Y661459D1*
X1295276Y1165378D2*
Y944860D1*
Y661459D2*
Y881911D1*
Y944860D2*
G02X1295276Y881911I-17J-31474D01*
G01*
D32*
X2504604Y1008802D3*
X2415354Y1009841D2*
D10*
Y750011D1*
X2305118Y1009841D2*
Y750011D1*
X2415354D2*
X2305118D1*
X2415354Y1009841D2*
X2305118D1*
X1500584Y923583D2*
X1740598D1*
X1500584Y753583D2*
X1740598D1*
X1500584Y903591D2*
X1740598D1*
Y773575D2*
X1500584D1*
Y753583D2*
G02X1500584Y923583I7J85000D01*
G01*
X1740598D2*
G02X1740598Y753583I-7J-85000D01*
G01*
X1500584Y773575D2*
G02X1500584Y903591I23J65008D01*
G01*
X1740598D2*
G02X1740598Y773575I-23J-65008D01*
G01*
X2410834Y905719D2*
D66*
X2389832D1*
X2401284Y890420D1*
X2395536D1*
X2391733Y888519D1*
X2389832Y886618D1*
X2387886Y880870D1*
Y877067D1*
X2389832Y871319D1*
X2393634Y867472D1*
X2399382Y865571D1*
X2405130D1*
X2410834Y867472D1*
X2412735Y869418D1*
X2414681Y873220D1*
X2375535Y905763D2*
X2360236Y865571D1*
X2344938Y905763D1*
X2328739Y905719D2*
X2307737D1*
X2319189Y890420D1*
X2313441D1*
X2309638Y888519D1*
X2307737Y886618D1*
X2305792Y880870D1*
Y877067D1*
X2307737Y871319D1*
X2311540Y867472D1*
X2317288Y865571D1*
X2323036D1*
X2328739Y867472D1*
X2330641Y869418D1*
X2332586Y873220D1*
X1966535Y462850D2*
D67*
X1988090D1*
X1995220Y460474D1*
X1997652Y458042D1*
X2000028Y453289D1*
Y446104D1*
X1997652Y441350D1*
X1995220Y438919D1*
X1988090Y436542D1*
X1966535D1*
Y486782D1*
X2050585Y453289D2*
Y486782D1*
Y460474D2*
X2045832Y455665D1*
X2041024Y453289D1*
X2033894D1*
X2029086Y455665D1*
X2024332Y460474D1*
X2021901Y467659D1*
Y472412D1*
X2024332Y479597D1*
X2029086Y484350D1*
X2033894Y486782D1*
X2041024D1*
X2045832Y484350D1*
X2050585Y479597D1*
X2072458Y453289D2*
Y486782D1*
Y467659D2*
X2074890Y460474D1*
X2079643Y455665D1*
X2084451Y453289D1*
X2091636D1*
X2142193D2*
Y486782D1*
Y460474D2*
X2137440Y455665D1*
X2132632Y453289D1*
X2125502D1*
X2120694Y455665D1*
X2115940Y460474D1*
X2113508Y467659D1*
Y472412D1*
X2115940Y479597D1*
X2120694Y484350D1*
X2125502Y486782D1*
X2132632D1*
X2137440Y484350D1*
X2142193Y479597D1*
X2164066Y462850D2*
X2185621D1*
X2192751Y460474D1*
X2195182Y458042D1*
X2197559Y453289D1*
Y446104D1*
X2195182Y441350D1*
X2192751Y438919D1*
X2185621Y436542D1*
X2164066D1*
Y486782D1*
X2219431Y460474D2*
X2240931D1*
X2248116Y458042D1*
X2250548Y455665D1*
X2252925Y450912D1*
Y446104D1*
X2250548Y441350D1*
X2248116Y438919D1*
X2240931Y436542D1*
X2219431D1*
Y486782D1*
X2236178Y460474D2*
X2252925Y486782D1*
X2289167Y436542D2*
X2284358Y438919D1*
X2279605Y443727D1*
X2277173Y448480D1*
X2274797Y455665D1*
Y467659D1*
X2277173Y474789D1*
X2279605Y479597D1*
X2284358Y484350D1*
X2289167Y486782D1*
X2298729D1*
X2303482Y484350D1*
X2308290Y479597D1*
X2310667Y474789D1*
X2313043Y467659D1*
Y455665D1*
X2310667Y448480D1*
X2308290Y443727D1*
X2303482Y438919D1*
X2298729Y436542D1*
X2289167D1*
X2370786Y448480D2*
X2368409Y443727D1*
X2363600Y438919D1*
X2358847Y436542D1*
X2349286D1*
X2344477Y438919D1*
X2339724Y443727D1*
X2337292Y448480D1*
X2334916Y455665D1*
Y467659D1*
X2337292Y474789D1*
X2339724Y479597D1*
X2344477Y484350D1*
X2349286Y486782D1*
X2358847D1*
X2363600Y484350D1*
X2368409Y479597D1*
X2370786Y474789D1*
Y467659D1*
X2358847D1*
X2471623Y486782D2*
Y436597D1*
X2447692Y470035D1*
X2483562D1*
X2536551Y453289D2*
X2534119Y460474D1*
X2529366Y465282D1*
X2522181Y467659D1*
X2519804D1*
X2512619Y465282D1*
X2507866Y460474D1*
X2505434Y453289D1*
Y450912D1*
X2507866Y443727D1*
X2512619Y438974D1*
X2519804Y436597D1*
X2522181D1*
X2529366Y438974D1*
X2534119Y443727D1*
X2536551Y453289D1*
Y465282D1*
X2534119Y477220D1*
X2529366Y484405D1*
X2522181Y486782D1*
X2517427D1*
X2510242Y484405D1*
X2507866Y479597D1*
X2558423Y486782D2*
X2591916Y436597D1*
X2618597D2*
X2644850D1*
X2630535Y455721D1*
X2637720D1*
X2642473Y458097D1*
X2644850Y460474D1*
X2647282Y467659D1*
Y472412D1*
X2644850Y479597D1*
X2640097Y484405D1*
X2632912Y486782D1*
X2625727D1*
X2618597Y484405D1*
X2616220Y481974D1*
X2613789Y477220D1*
X2700271Y453289D2*
X2697839Y460474D1*
X2693086Y465282D1*
X2685901Y467659D1*
X2683524D1*
X2676339Y465282D1*
X2671586Y460474D1*
X2669154Y453289D1*
Y450912D1*
X2671586Y443727D1*
X2676339Y438974D1*
X2683524Y436597D1*
X2685901D1*
X2693086Y438974D1*
X2697839Y443727D1*
X2700271Y453289D1*
Y465282D1*
X2697839Y477220D1*
X2693086Y484405D1*
X2685901Y486782D1*
X2681148D1*
X2673963Y484405D1*
X2671586Y479597D1*
X2722143Y461690D2*
X2749778D1*
X2771650Y453289D2*
Y486782D1*
Y462850D2*
X2778835Y455665D1*
X2783644Y453289D1*
X2790773D1*
X2795582Y455665D1*
X2797959Y462850D1*
Y486782D1*
Y462850D2*
X2805144Y455665D1*
X2809952Y453289D1*
X2817082D1*
X2821890Y455665D1*
X2824322Y462850D1*
Y486782D1*
X2858133Y453289D2*
X2853379Y455665D1*
X2848571Y460474D1*
X2846194Y467659D1*
Y472412D1*
X2848571Y479597D1*
X2853379Y484350D1*
X2858133Y486782D1*
X2865318D1*
X2870126Y484350D1*
X2874879Y479597D1*
X2877311Y472412D1*
Y467659D1*
X2874879Y460474D1*
X2870126Y455665D1*
X2865318Y453289D1*
X2858133D1*
X2927868Y436542D2*
Y486782D1*
Y460474D2*
X2923115Y455665D1*
X2918307Y453289D1*
X2911122D1*
X2906368Y455665D1*
X2901560Y460474D1*
X2899183Y467659D1*
Y472412D1*
X2901560Y479597D1*
X2906368Y484350D1*
X2911122Y486782D1*
X2918307D1*
X2923115Y484350D1*
X2927868Y479597D1*
X2949740Y446159D2*
X2954549Y443727D1*
X2961734Y436597D1*
Y486782D1*
M02*
