M48
INCH
T01C0.0197
T02C0.0276
T03C0.0315
T04C0.0354
T05C0.0433
T06C0.1575
%
T01
X+019449Y+008957
X+020039Y+009803
X+020748Y+010276
X+021240Y+010054
X+021318Y+009330
X+020748Y+009173
X+020479Y+008458
X+022598Y+008976
X+022205Y+011102
X+022244Y+011614
X+020610Y+011437
X+020110Y+011437
X+024764Y+008799
X+025945Y+008917
X+027382Y+009902
X+021673Y+005413
X+014429Y+009055
X+013327Y+010217
T02
X+031535Y+011457G85X+030827Y+011457
X+031535Y+006850G85X+030827Y+006850
T03
X+014602Y+012126
X+015602Y+012126
X+016602Y+012126
X+017602Y+012126
X+018602Y+012126
X+019602Y+012126
X+020602Y+012126
X+021602Y+012126
X+022602Y+012126
X+023602Y+012126
X+024602Y+012126
X+025602Y+012126
X+026602Y+012126
X+027602Y+012126
X+028602Y+012126
X+028602Y+006126
X+027602Y+006126
X+026602Y+006126
X+025602Y+006126
X+024602Y+006126
X+023602Y+006126
X+022602Y+006126
X+021602Y+006126
X+020602Y+006126
X+019602Y+006126
X+018602Y+006126
X+017602Y+006126
X+016602Y+006126
X+015602Y+006126
X+014602Y+006126
X+013602Y+006126
T04
X+030157Y+007776
X+030157Y+008760
X+030157Y+009547
X+030157Y+010531
X+018583Y+010965
X+017677Y+010984
X+017156Y+008386
X+015256Y+008386
X+011240Y+008626
X+010240Y+008626
X+010240Y+007626
X+010240Y+006626
X+009240Y+006626
X+009240Y+007626
X+008240Y+007626
X+008240Y+006626
X+007240Y+006626
X+007240Y+007626
X+006240Y+007626
X+006240Y+006626
X+005240Y+007626
X+005240Y+008626
X+006240Y+008626
X+006240Y+009626
X+005240Y+009626
X+005240Y+010626
X+006240Y+010626
X+006240Y+011626
X+007240Y+011626
X+007240Y+010626
X+008240Y+010626
X+008240Y+011626
X+009240Y+011626
X+009240Y+010626
X+010240Y+010626
X+010240Y+011626
X+011240Y+010626
X+011240Y+009626
X+010240Y+009626
X+011240Y+007626
X+013602Y+012126
T05
X+031181Y+010039
X+031181Y+008268
T06
X+008240Y+009126
T00
M30
