G04 DipTrace 3.0.0.2*
G04 Top.gbr*
%MOIN*%
G04 #@! TF.FileFunction,Copper,L1,Top*
G04 #@! TF.Part,Single*
%AMOUTLINE0*
4,1,4,
-0.016617,-0.024395,
-0.024395,-0.016617,
0.016617,0.024395,
0.024395,0.016617,
-0.016617,-0.024395,
0*%
%AMOUTLINE1*
4,1,4,
-0.024395,0.016617,
-0.016617,0.024395,
0.024395,-0.016617,
0.016617,-0.024395,
-0.024395,0.016617,
0*%
G04 #@! TA.AperFunction,CopperBalancing*
%ADD13C,0.011024*%
G04 #@! TA.AperFunction,Conductor*
%ADD14C,0.019685*%
G04 #@! TA.AperFunction,CopperBalancing*
%ADD15C,0.03937*%
%ADD16R,0.059055X0.051181*%
%ADD18R,0.070866X0.088583*%
G04 #@! TA.AperFunction,ComponentPad*
%ADD22O,0.07874X0.055118*%
%ADD23O,0.125984X0.051181*%
%ADD24C,0.059055*%
%ADD29C,0.051181*%
%ADD30R,0.059055X0.059055*%
%ADD31C,0.055118*%
%ADD35C,0.059055*%
%ADD69OUTLINE0*%
%ADD70OUTLINE1*%
%FSLAX26Y26*%
G04*
G70*
G90*
G75*
G01*
G04 Top*
%LPD*%
X1857890Y960114D2*
D13*
Y959039D1*
X1921260Y895669D1*
X1944882D1*
X2047917Y845785D2*
X1969245Y767113D1*
X2092650Y1113228D2*
X2091496D1*
X2061024Y1143701D1*
X2245764Y878469D2*
Y883559D1*
X2259843Y897638D1*
X1777559Y944882D2*
Y925197D1*
X1822972D1*
X1857890Y960114D1*
X2358268Y913386D2*
X2275591D1*
X2259843Y897638D1*
X1777559Y944882D2*
D14*
Y938976D1*
X1795276Y956693D1*
X1720472D1*
X1669291Y1007874D1*
X1618110D1*
X1557087Y1068898D1*
Y1088583D1*
X1553150Y1092520D1*
X1360236Y1212598D2*
D13*
X1366142D1*
X1486220Y1092520D1*
X1553150D1*
X1560236Y612598D2*
Y595669D1*
X1529528Y564961D1*
X1326772D1*
X1305118Y586614D1*
Y962598D1*
X1350394D1*
X1379921Y992126D1*
Y1192913D1*
X1360236Y1212598D1*
X824016Y1162598D2*
X883858Y1102756D1*
Y1043307D1*
X1003937Y923228D1*
X1084646D1*
X1124016Y962598D1*
X1305118D1*
X2060236Y1212598D2*
X2160236D1*
X1871810Y974034D2*
X1900962Y944882D1*
X1919291D1*
X1953740Y979331D1*
X2003937Y929134D1*
Y829643D1*
X1955327Y781033D1*
X2106570Y1099308D2*
X2078127Y1070866D1*
X2045276D1*
X2011811Y1037402D1*
X1953740Y979331D1*
X2231844Y864549D2*
X2131825Y964567D1*
X2080709D1*
X2011811Y1033465D1*
Y1037402D1*
X2131825Y933007D2*
Y964567D1*
X1871810Y974034D2*
X1839938Y1005906D1*
X1789370D1*
X1777559Y1017717D1*
Y1019685D1*
X2231844Y864549D2*
X2231908D1*
X2263780Y832677D1*
X2352362D1*
X2358268Y838583D1*
X1777559Y1019685D2*
D14*
X1740157D1*
X1667323Y1092520D1*
X1661417D1*
Y1211417D1*
X1660236Y1212598D1*
X1437008Y897638D2*
D13*
X1629921D1*
X1633858Y901575D1*
X1955327Y781033D2*
X1954261D1*
X1917323Y744094D1*
X1407480D1*
X1379921Y771654D1*
Y875984D1*
X1401575Y897638D1*
X1437008D1*
X2160236Y612598D2*
Y607087D1*
X2035433Y482283D1*
X688976D1*
X450787Y720472D1*
Y958661D1*
X500000Y1007874D1*
X559055D1*
X574803Y992126D1*
Y913386D1*
X524016Y862598D1*
X924016Y1062598D2*
X929528D1*
X986220Y1005906D1*
X1316929D1*
X1332677Y1021654D1*
X1442913Y905512D2*
Y903543D1*
X1437008Y897638D1*
X2594488Y891732D2*
D14*
X2811024D1*
X2972441Y1053150D1*
X3015748D1*
X2134408Y1071470D2*
D13*
X2224383Y1161444D1*
X2148327Y1057550D2*
X2201013Y1110236D1*
X2220472D1*
X2738189Y990157D2*
X2586614D1*
X2476378Y879921D1*
X1997084Y1099308D2*
X1966535Y1129857D1*
Y1149606D1*
X2007874Y1190945D1*
Y1344488D1*
X2128346D1*
X2260236Y1212598D1*
X1124016Y862598D2*
X1113780D1*
X1074803Y901575D1*
X996063D1*
X864173Y1033465D1*
Y1088583D1*
X840551Y1112205D1*
X799213D1*
X771654Y1139764D1*
Y1208661D1*
X836614Y1273622D1*
X1210630D1*
X1281496Y1344488D1*
X2007874D1*
X2162247Y1043631D2*
X2124016Y1005400D1*
X1024016Y1062598D2*
X1008268D1*
X964567Y1106299D1*
Y1206693D1*
X992126Y1234252D1*
X1212598D1*
X1297244Y1318898D1*
X1853937D1*
X1960236Y1212598D1*
X2176167Y1029711D2*
X2223227Y1076772D1*
X2281496D1*
X2360236Y1155512D1*
Y1212598D1*
X1024016Y862598D2*
X1020079D1*
X962598Y805118D1*
X775591D1*
X720472Y860236D1*
Y968504D1*
X667323Y1021654D1*
Y1196850D1*
X775591Y1305118D1*
X1200787D1*
X1263780Y1368110D1*
X2204724D1*
X2360236Y1212598D1*
X2190085Y1015791D2*
X2231381Y1057087D1*
X2304724D1*
X2460236Y1212598D1*
X2204005Y1001873D2*
X2239534Y1037402D1*
X2385039D1*
X2560236Y1212598D1*
X2245764Y960114D2*
X2517201D1*
X2594488Y1037402D1*
X2685039D1*
X2860236Y1212598D1*
X2231844Y974034D2*
X2231908D1*
X2255906Y998031D1*
X2517717D1*
X2582677Y1062992D1*
X2614173D1*
X2753937Y1202756D1*
Y1218898D1*
X2760236Y1212598D1*
X2217924Y987953D2*
X2247688Y1017717D1*
X2465354D1*
X2660236Y1212598D1*
X1983165Y1085388D2*
X1860236Y1208318D1*
Y1212598D1*
X1124016Y1062598D2*
Y1080709D1*
X1092520Y1112205D1*
X1001969D1*
X984252Y1129921D1*
Y1185039D1*
X1009843Y1210630D1*
X1220472D1*
X1307087Y1297244D1*
X1775591D1*
X1860236Y1212598D1*
X1969245Y1071470D2*
X1879298Y1161417D1*
X1811417D1*
X1760236Y1212598D1*
X1024016Y1162598D2*
X1245276D1*
X1277559Y1194882D1*
Y1228346D1*
X1322835Y1273622D1*
X1699213D1*
X1760236Y1212598D1*
X1885730Y850630D2*
X1853997Y818898D1*
X1805118D1*
X1663386Y960630D1*
X1415354D1*
X1358268Y903543D1*
Y612598D1*
X1360236D1*
X2217924Y850630D2*
X2275247Y793307D1*
X2679528D1*
X2860236Y612598D1*
X2204005Y836710D2*
X2267093Y773622D1*
X2599213D1*
X2760236Y612598D1*
X2190085Y822791D2*
X2260908Y751969D1*
X2520866D1*
X2660236Y612598D1*
X2176167Y808871D2*
X2252755Y732283D1*
X2440551D1*
X2560236Y612598D1*
X2162247Y794951D2*
X2244600Y712598D1*
X2360236D1*
X2460236Y612598D1*
X2148327Y781033D2*
X2238415Y690945D1*
X2281890D1*
X2360236Y612598D1*
X2134408Y767113D2*
X2255906Y645615D1*
Y616929D1*
X2260236Y612598D1*
X2120488Y753194D2*
X2120822D1*
X2155512Y718504D1*
Y687008D1*
X2104331Y635827D1*
X2083465D1*
X2060236Y612598D1*
Y611417D1*
X1950787Y501969D1*
X714567D1*
X578740Y637795D1*
Y822835D1*
X620079Y864173D1*
X625591D1*
X624016Y862598D1*
X2106570Y739274D2*
X2107182D1*
X2135827Y710630D1*
Y698819D1*
X2104331Y667323D1*
X2045276D1*
X2000000Y622047D1*
X1969685D1*
X1960236Y612598D1*
X524016Y962598D2*
Y959055D1*
X480315Y915354D1*
Y840551D1*
X500000Y820866D1*
X539370D1*
X574803Y856299D1*
Y877953D1*
X602362Y905512D1*
X649606D1*
X673228Y881890D1*
Y736220D1*
X704724Y704724D1*
X765748D1*
X777559Y692913D1*
Y635827D1*
X811024Y602362D1*
X1200787D1*
X1281496Y521654D1*
X1869291D1*
X1960236Y612598D1*
X2092650Y725354D2*
X2071811D1*
X2001969Y655512D1*
X1903150D1*
X1860236Y612598D1*
X624016Y962598D2*
X659449D1*
X696850Y925197D1*
Y848425D1*
X773622Y771654D1*
Y744094D1*
X799213Y718504D1*
X1135827D1*
X1312992Y541339D1*
X1788976D1*
X1860236Y612598D1*
X2011004Y725354D2*
X1962815Y677165D1*
X1824803D1*
X1760236Y612598D1*
X524016Y1062598D2*
X517323D1*
X425197Y970472D1*
Y698819D1*
X665354Y458661D1*
X2084646D1*
X2167323Y541339D1*
X1997084Y739274D2*
X1954660Y696850D1*
X1744488D1*
X1660236Y612598D1*
X1913568Y822791D2*
X1882115Y791339D1*
X1762835D1*
X1715591Y838583D1*
X1645669D1*
X1633858Y826772D1*
X1983165Y753194D2*
X1950444Y720472D1*
X1568110D1*
X1460236Y612598D1*
X1927487Y808871D2*
X1884364Y765748D1*
X1598425D1*
X1525591Y838583D1*
X1452756D1*
X1437008Y822835D1*
X2011004Y1113228D2*
Y1143701D1*
X2120488Y1085388D2*
Y1085055D1*
X2090551Y1055118D1*
Y1043307D1*
X2074803Y1027559D1*
Y917323D2*
X2066929D1*
X2003937Y980315D1*
D15*
X1944882Y895669D3*
X2047917Y845785D3*
X2061024Y1143701D3*
X2259843Y897638D3*
X2061024Y1143701D3*
X2131825Y933007D3*
X1332677Y1021654D3*
X1442913Y905512D3*
X2594488Y891732D3*
X2224383Y1161444D3*
X2220472Y1110236D3*
X2738189Y990157D3*
X2476378Y879921D3*
X2124016Y1005400D3*
X2167323Y541339D3*
X2011004Y1143701D3*
X2074803Y1027559D3*
Y917323D3*
X2003937Y980315D3*
X523156Y1380052D2*
X1178268D1*
X2290247D2*
X3098020D1*
X484913Y1340814D2*
X713824D1*
X2329463D2*
X3137237D1*
X446620Y1301575D2*
X674607D1*
X2368731D2*
X3176504D1*
X417323Y1262336D2*
X635340D1*
X2936982D2*
X3206698D1*
X417323Y1223097D2*
X558650D1*
X2951746D2*
X3038863D1*
X417323Y1183858D2*
X536504D1*
X2947542D2*
X2999492D1*
X417323Y1144619D2*
X493495D1*
X2920373D2*
X2990573D1*
X417323Y1105381D2*
X445205D1*
X1282362D2*
X1309860D1*
X2850450D2*
X2928954D1*
X1214080Y1066142D2*
X1309860D1*
X2811234D2*
X2912755D1*
X3192734D2*
X3206698D1*
X2813541Y1026903D2*
X2915831D1*
X2822409Y987664D2*
X2918189D1*
X2810772Y948425D2*
X2912038D1*
X3182789D2*
X3206698D1*
X2603106Y909186D2*
X2918292D1*
X3113174D2*
X3206698D1*
X1213875Y869948D2*
X1235067D1*
X2563838D2*
X2912038D1*
X3192068D2*
X3206698D1*
X1208082Y830709D2*
X1235067D1*
X2739568D2*
X2924341D1*
X1209210Y791470D2*
X1235067D1*
X2778836D2*
X2912909D1*
X1213567Y752231D2*
X1235067D1*
X2818052D2*
X2915523D1*
X1428309Y712992D2*
X1463188D1*
X2857319D2*
X2939925D1*
X2927704Y673753D2*
X2991290D1*
X2949593Y634514D2*
X3006926D1*
X417323Y595276D2*
X431261D1*
X2950669D2*
X3206698D1*
X417323Y556037D2*
X470529D1*
X2931856D2*
X3201264D1*
X457641Y516798D2*
X509745D1*
X2247750D2*
X3161535D1*
X498447Y477559D2*
X549013D1*
X2220067D2*
X3121806D1*
X539201Y438320D2*
X588229D1*
X2161781D2*
X3082077D1*
X1490717Y736614D2*
X1424383D1*
X1424410Y693211D1*
X1432984Y696471D1*
X1446440Y699702D1*
X1454695Y700570D1*
X1490712Y736613D1*
X2994627Y689925D2*
X2983350Y691807D1*
X2970189Y696083D1*
X2957858Y702366D1*
X2946663Y710500D1*
X2936878Y720285D1*
X2928744Y731480D1*
X2922461Y743811D1*
X2918185Y756972D1*
X2916020Y770640D1*
Y784478D1*
X2918185Y798146D1*
X2922461Y811308D1*
X2928744Y823638D1*
X2930802Y826719D1*
X2925360Y835947D1*
X2920064Y848732D1*
X2916834Y862188D1*
X2915748Y875984D1*
X2916834Y889780D1*
X2920064Y903236D1*
X2925032Y915309D1*
X2920064Y927473D1*
X2916834Y940929D1*
X2915748Y954724D1*
X2916834Y968520D1*
X2920064Y981976D1*
X2925360Y994761D1*
X2930802Y1003884D1*
X2925034Y1013760D1*
X2920914Y1023410D1*
X2917969Y1033480D1*
X2916242Y1043830D1*
X2915756Y1054311D1*
X2916518Y1064776D1*
X2918517Y1075076D1*
X2921726Y1085066D1*
X2926098Y1094604D1*
X2931573Y1103555D1*
X2938071Y1111793D1*
X2945502Y1119200D1*
X2953761Y1125673D1*
X2962729Y1131119D1*
X2972281Y1135461D1*
X2982281Y1138638D1*
X2992587Y1140605D1*
X2994614Y1140838D1*
X2994801Y1153006D1*
X2996328Y1163386D1*
X2999105Y1173505D1*
X3003090Y1183210D1*
X3008225Y1192360D1*
X3014433Y1200819D1*
X3021622Y1208461D1*
X3029687Y1215173D1*
X3038507Y1220856D1*
X3047952Y1225425D1*
X3057882Y1228813D1*
X3068150Y1230970D1*
X3078604Y1231864D1*
X3161277Y1231697D1*
X3171683Y1230360D1*
X3181850Y1227768D1*
X3191628Y1223961D1*
X3200870Y1218995D1*
X3209440Y1212942D1*
X3210649Y1211943D1*
X3210630Y1271397D1*
X3062666Y1419338D1*
X2246606Y1419291D1*
X2251494Y1414880D1*
X2365785Y1300588D1*
X2374032Y1299702D1*
X2387488Y1296471D1*
X2400273Y1291175D1*
X2410206Y1285192D1*
X2420199Y1291175D1*
X2432984Y1296471D1*
X2446440Y1299702D1*
X2460236Y1300787D1*
X2474032Y1299702D1*
X2487488Y1296471D1*
X2500273Y1291175D1*
X2510206Y1285192D1*
X2520199Y1291175D1*
X2532984Y1296471D1*
X2546440Y1299702D1*
X2560236Y1300787D1*
X2574032Y1299702D1*
X2587488Y1296471D1*
X2600273Y1291175D1*
X2610206Y1285192D1*
X2620199Y1291175D1*
X2632984Y1296471D1*
X2646440Y1299702D1*
X2660236Y1300787D1*
X2674032Y1299702D1*
X2687488Y1296471D1*
X2700273Y1291175D1*
X2710206Y1285192D1*
X2720199Y1291175D1*
X2732984Y1296471D1*
X2746440Y1299702D1*
X2760236Y1300787D1*
X2774032Y1299702D1*
X2787488Y1296471D1*
X2800273Y1291175D1*
X2810206Y1285192D1*
X2820199Y1291175D1*
X2832984Y1296471D1*
X2846440Y1299702D1*
X2860236Y1300787D1*
X2874032Y1299702D1*
X2887488Y1296471D1*
X2900273Y1291175D1*
X2912072Y1283945D1*
X2922595Y1274957D1*
X2931583Y1264435D1*
X2938813Y1252635D1*
X2944109Y1239850D1*
X2947339Y1226394D1*
X2948425Y1212598D1*
X2947339Y1198803D1*
X2944109Y1185347D1*
X2938813Y1172561D1*
X2931583Y1160762D1*
X2922595Y1150239D1*
X2912072Y1141252D1*
X2900273Y1134021D1*
X2887488Y1128726D1*
X2874032Y1125495D1*
X2865777Y1124627D1*
X2791482Y1050305D1*
X2799261Y1042318D1*
X2806669Y1032122D1*
X2812390Y1020893D1*
X2816285Y1008907D1*
X2818256Y996459D1*
Y983856D1*
X2816285Y971408D1*
X2812390Y959422D1*
X2806669Y948193D1*
X2799261Y937997D1*
X2790349Y929086D1*
X2780153Y921678D1*
X2768924Y915956D1*
X2756938Y912062D1*
X2744490Y910090D1*
X2731888D1*
X2719440Y912062D1*
X2707454Y915956D1*
X2696225Y921678D1*
X2692722Y924018D1*
X2613978Y924016D1*
X2555340Y865345D1*
X2553986Y859441D1*
X2684717Y859245D1*
X2694968Y857621D1*
X2704839Y854414D1*
X2714087Y849702D1*
X2722483Y843602D1*
X2744856Y821517D1*
X2865745Y700628D1*
X2874032Y699702D1*
X2887488Y696471D1*
X2900273Y691175D1*
X2912072Y683945D1*
X2922595Y674957D1*
X2931583Y664435D1*
X2938813Y652635D1*
X2944109Y639850D1*
X2947339Y626394D1*
X2948425Y612598D1*
X2947339Y598803D1*
X2944109Y585347D1*
X2938813Y572561D1*
X2931583Y560762D1*
X2922595Y550239D1*
X2912072Y541252D1*
X2900273Y534021D1*
X2887488Y528726D1*
X2874032Y525495D1*
X2860236Y524409D1*
X2846440Y525495D1*
X2832984Y528726D1*
X2820199Y534021D1*
X2810267Y540005D1*
X2800273Y534021D1*
X2787488Y528726D1*
X2774032Y525495D1*
X2760236Y524409D1*
X2746440Y525495D1*
X2732984Y528726D1*
X2720199Y534021D1*
X2710267Y540005D1*
X2700273Y534021D1*
X2687488Y528726D1*
X2674032Y525495D1*
X2660236Y524409D1*
X2646440Y525495D1*
X2632984Y528726D1*
X2620199Y534021D1*
X2610267Y540005D1*
X2600273Y534021D1*
X2587488Y528726D1*
X2574032Y525495D1*
X2560236Y524409D1*
X2546440Y525495D1*
X2532984Y528726D1*
X2520199Y534021D1*
X2510267Y540005D1*
X2500273Y534021D1*
X2487488Y528726D1*
X2474032Y525495D1*
X2460236Y524409D1*
X2446440Y525495D1*
X2432984Y528726D1*
X2420199Y534021D1*
X2410267Y540005D1*
X2400273Y534021D1*
X2387488Y528726D1*
X2374032Y525495D1*
X2360236Y524409D1*
X2346440Y525495D1*
X2332984Y528726D1*
X2320199Y534021D1*
X2310267Y540005D1*
X2300273Y534021D1*
X2287488Y528726D1*
X2274032Y525495D1*
X2260236Y524409D1*
X2246096Y525564D1*
X2243707Y516520D1*
X2238884Y504876D1*
X2232299Y494131D1*
X2224114Y484547D1*
X2214531Y476362D1*
X2203785Y469777D1*
X2192142Y464955D1*
X2181941Y462421D1*
X2134877Y415354D1*
X3062818D1*
X3210621Y561366D1*
X3210630Y618715D1*
X3201765Y612275D1*
X3192584Y607196D1*
X3182855Y603269D1*
X3172720Y600554D1*
X3162331Y599089D1*
X3145013Y598819D1*
X3074417Y599049D1*
X3064019Y600450D1*
X3053867Y603103D1*
X3044114Y606970D1*
X3034902Y611993D1*
X3026369Y618098D1*
X3018640Y625194D1*
X3011831Y633176D1*
X3006041Y641927D1*
X3001357Y651315D1*
X2997848Y661203D1*
X2995567Y671445D1*
X2994546Y681887D1*
X2994625Y689870D1*
X3106464Y915309D2*
X3109456Y908591D1*
X3118110Y909055D1*
X3130982Y908042D1*
X3143537Y905028D1*
X3155466Y900087D1*
X3166475Y893340D1*
X3176293Y884955D1*
X3184679Y875137D1*
X3191425Y864128D1*
X3196366Y852199D1*
X3199381Y839644D1*
X3200394Y826772D1*
X3199381Y813900D1*
X3196366Y801345D1*
X3191425Y789416D1*
X3184679Y778407D1*
X3176379Y768681D1*
X3186797Y765384D1*
X3196324Y760989D1*
X3205247Y755469D1*
X3210649Y751313D1*
X3210630Y1079366D1*
X3201765Y1072905D1*
X3192584Y1067826D1*
X3182855Y1063899D1*
X3176387Y1062024D1*
X3184679Y1052302D1*
X3191425Y1041293D1*
X3196366Y1029364D1*
X3199381Y1016809D1*
X3200394Y1003937D1*
X3199381Y991065D1*
X3196366Y978510D1*
X3191425Y966581D1*
X3184679Y955572D1*
X3176293Y945754D1*
X3166475Y937368D1*
X3155466Y930622D1*
X3143537Y925681D1*
X3130982Y922667D1*
X3118110Y921654D1*
X3109524Y922159D1*
X3106464Y915400D1*
X1209970Y855834D2*
X1207854Y842471D1*
X1203673Y829603D1*
X1197531Y817548D1*
X1194254Y812645D1*
X1200839Y801742D1*
X1206016Y789242D1*
X1209175Y776086D1*
X1210236Y762598D1*
X1209175Y749111D1*
X1207316Y740562D1*
X1238962Y708907D1*
X1238976Y896500D1*
X1203361Y896457D1*
X1207854Y882726D1*
X1209970Y869363D1*
Y855834D1*
X439244Y1078032D2*
X442015Y1089242D1*
X447193Y1101742D1*
X454262Y1113278D1*
X463049Y1123566D1*
X473337Y1132352D1*
X484872Y1139421D1*
X497372Y1144599D1*
X510528Y1147757D1*
X524016Y1148819D1*
X537504Y1147757D1*
X539138Y1147432D1*
X538061Y1155834D1*
Y1169363D1*
X540178Y1182726D1*
X544358Y1195594D1*
X550501Y1207648D1*
X558453Y1218594D1*
X568020Y1228161D1*
X578966Y1236113D1*
X591021Y1242256D1*
X603888Y1246437D1*
X617251Y1248553D1*
X625681Y1248753D1*
X732635Y1355413D1*
X741032Y1361513D1*
X750279Y1366225D1*
X760150Y1369432D1*
X770401Y1371056D1*
X801837Y1371260D1*
X1173444D1*
X1220824Y1418405D1*
X1221095Y1418618D1*
X1220472Y1419291D1*
X557486D1*
X413394Y1271526D1*
X413386Y1052176D1*
X439216Y1078031D1*
X1209970Y1055834D2*
X1207854Y1042471D1*
X1203673Y1029603D1*
X1203263Y1028715D1*
X1313782Y1028740D1*
X1313779Y1122488D1*
X1298604Y1122441D1*
X1288231Y1112304D1*
X1279835Y1106203D1*
X1270587Y1101491D1*
X1260716Y1098284D1*
X1250465Y1096661D1*
X1219029Y1096457D1*
X1203291D1*
X1206016Y1089242D1*
X1209175Y1076086D1*
X1210236Y1062598D1*
X1209970Y1055834D1*
X615141Y415336D2*
X413382Y617095D1*
X413386Y555569D1*
X559143Y415327D1*
X615106Y415354D1*
X3118110Y1231839D2*
D13*
Y1145669D1*
Y685039D2*
Y598870D1*
D16*
X1777559Y944882D3*
Y1019685D3*
D18*
X1553150Y1092520D3*
X1667323D3*
D16*
X2358268Y913386D3*
Y838583D3*
X1633858Y826772D3*
Y901575D3*
X1437008Y822835D3*
Y897638D3*
D22*
X3015748Y777559D3*
Y875984D3*
Y954724D3*
Y1053150D3*
D23*
X3118110Y1145669D3*
Y685039D3*
D24*
X1767717Y1098425D3*
X1858268Y1096457D3*
D69*
X1857890Y878469D3*
X1871810Y864549D3*
X1885730Y850630D3*
X1899648Y836710D3*
X1913568Y822791D3*
X1927487Y808871D3*
X1941407Y794951D3*
X1955327Y781033D3*
X1969245Y767113D3*
X1983165Y753194D3*
X1997084Y739274D3*
X2011004Y725354D3*
D70*
X2092650D3*
X2106570Y739274D3*
X2120488Y753194D3*
X2134408Y767113D3*
X2148327Y781033D3*
X2162247Y794951D3*
X2176167Y808871D3*
X2190085Y822791D3*
X2204005Y836710D3*
X2217924Y850630D3*
X2231844Y864549D3*
X2245764Y878469D3*
D69*
Y960114D3*
X2231844Y974034D3*
X2217924Y987953D3*
X2204005Y1001873D3*
X2190085Y1015791D3*
X2176167Y1029711D3*
X2162247Y1043631D3*
X2148327Y1057550D3*
X2134408Y1071470D3*
X2120488Y1085388D3*
X2106570Y1099308D3*
X2092650Y1113228D3*
D70*
X2011004D3*
X1997084Y1099308D3*
X1983165Y1085388D3*
X1969245Y1071470D3*
X1955327Y1057550D3*
X1941407Y1043631D3*
X1927487Y1029711D3*
X1913568Y1015791D3*
X1899648Y1001873D3*
X1885730Y987953D3*
X1871810Y974034D3*
X1857890Y960114D3*
D29*
X1024016Y962598D3*
X1124016Y862598D3*
X1024016D3*
X1124016Y762598D3*
X1024016Y662598D3*
Y762598D3*
X924016Y662598D3*
Y762598D3*
X824016Y662598D3*
Y762598D3*
X724016Y662598D3*
Y762598D3*
X624016Y662598D3*
X524016Y762598D3*
X624016D3*
X524016Y862598D3*
X624016D3*
X524016Y962598D3*
X624016D3*
X524016Y1062598D3*
X624016D3*
X724016Y1162598D3*
Y1062598D3*
X824016Y1162598D3*
Y1062598D3*
X924016Y1162598D3*
Y1062598D3*
X1024016Y1162598D3*
X1124016Y1062598D3*
X1024016D3*
X1124016Y962598D3*
X624016Y1162598D3*
D30*
X1360236Y1212598D3*
D31*
X1460236D3*
X1560236D3*
X1660236D3*
X1760236D3*
X1860236D3*
X1960236D3*
X2060236D3*
X2160236D3*
X2260236D3*
X2360236D3*
X2460236D3*
X2560236D3*
X2660236D3*
X2760236D3*
X2860236D3*
Y612598D3*
X2760236D3*
X2660236D3*
X2560236D3*
X2460236D3*
X2360236D3*
X2260236D3*
X2160236D3*
X2060236D3*
X1960236D3*
X1860236D3*
X1760236D3*
X1660236D3*
X1560236D3*
X1460236D3*
X1360236D3*
D35*
X1525591Y838583D3*
X1715591D3*
M02*
