G04 DipTrace 3.0.0.2*
G04 TopAssy.gbr*
%MOIN*%
G04 #@! TF.FileFunction,Drawing,Top*
G04 #@! TF.Part,Single*
%ADD27C,0.001*%
%FSLAX26Y26*%
G04*
G70*
G90*
G75*
G01*
G04 TopAssy*
%LPD*%
X2024099Y1092385D2*
D27*
X2031871Y1100158D1*
X2004274Y1127711D1*
X1996501Y1119938D1*
X2024099Y1092385D1*
X2010169Y1078455D2*
X2017942Y1086228D1*
X1990344Y1113782D1*
X1982572Y1106009D1*
X2010169Y1078455D1*
X1996239Y1064526D2*
X2004012Y1072298D1*
X1976415Y1099852D1*
X1968642Y1092079D1*
X1996239Y1064526D1*
X1982354Y1050596D2*
X1990126Y1058413D1*
X1962529Y1085966D1*
X1954756Y1078193D1*
X1982354Y1050596D1*
X1968424Y1036667D2*
X1976197Y1044483D1*
X1948643Y1072080D1*
X1940827Y1064264D1*
X1968424Y1036667D1*
X1954494Y1022781D2*
X1962267Y1030553D1*
X1934713Y1058151D1*
X1926897Y1050334D1*
X1954494Y1022781D1*
X1940565Y1008851D2*
X1948337Y1016624D1*
X1920784Y1044221D1*
X1912968Y1036405D1*
X1940565Y1008851D1*
X1926635Y994922D2*
X1934451Y1002694D1*
X1906854Y1030291D1*
X1899038Y1022475D1*
X1926635Y994922D1*
X1912706Y980992D2*
X1920522Y988765D1*
X1892925Y1016362D1*
X1885152Y1008589D1*
X1912706Y980992D1*
X1898820Y967106D2*
X1906592Y974879D1*
X1879039Y1002476D1*
X1871266Y994703D1*
X1898820Y967106D1*
X1884890Y953176D2*
X1892663Y960949D1*
X1865109Y988546D1*
X1857337Y980774D1*
X1884890Y953176D1*
X1870961Y939247D2*
X1878733Y947020D1*
X1851180Y974617D1*
X1843407Y966844D1*
X1870961Y939247D1*
X1878733Y891563D2*
X1870961Y899336D1*
X1843407Y871739D1*
X1851180Y863966D1*
X1878733Y891563D1*
X1892663Y877634D2*
X1884890Y885406D1*
X1857337Y857809D1*
X1865109Y850036D1*
X1892663Y877634D1*
X1906592Y863704D2*
X1898820Y871520D1*
X1871223Y843923D1*
X1878995Y836151D1*
X1906592Y863704D1*
X1920522Y849818D2*
X1912706Y857591D1*
X1885152Y829994D1*
X1892925Y822221D1*
X1920522Y849818D1*
X1934451Y835889D2*
X1926635Y843661D1*
X1899082Y816064D1*
X1906854Y808291D1*
X1934451Y835889D1*
X1948337Y821959D2*
X1940565Y829732D1*
X1913011Y802134D1*
X1920784Y794362D1*
X1948337Y821959D1*
X1962267Y808029D2*
X1954494Y815802D1*
X1926897Y788248D1*
X1934670Y780476D1*
X1962267Y808029D1*
X1976197Y794100D2*
X1968424Y801916D1*
X1940827Y774319D1*
X1948599Y766546D1*
X1976197Y794100D1*
X1990126Y780170D2*
X1982354Y787986D1*
X1954756Y760389D1*
X1962529Y752617D1*
X1990126Y780170D1*
X2004056Y766284D2*
X1996239Y774057D1*
X1968686Y746460D1*
X1976459Y738687D1*
X2004056Y766284D1*
X2017942Y752355D2*
X2010169Y760127D1*
X1982572Y732574D1*
X1990344Y724801D1*
X2017942Y752355D1*
X2031871Y738425D2*
X2024099Y746198D1*
X1996501Y718644D1*
X2004274Y710872D1*
X2031871Y738425D1*
X2079555Y746198D2*
X2071782Y738425D1*
X2099379Y710872D1*
X2107152Y718644D1*
X2079555Y746198D1*
X2093485Y760127D2*
X2085712Y752355D1*
X2113309Y724801D1*
X2121082Y732574D1*
X2093485Y760127D1*
X2107414Y774057D2*
X2099641Y766284D1*
X2127239Y738731D1*
X2135011Y746503D1*
X2107414Y774057D1*
X2121300Y787986D2*
X2113527Y780170D1*
X2141125Y752617D1*
X2148897Y760389D1*
X2121300Y787986D1*
X2135230Y801916D2*
X2127457Y794100D1*
X2155010Y766503D1*
X2162827Y774319D1*
X2135230Y801916D1*
X2149159Y815802D2*
X2141387Y808029D1*
X2168940Y780432D1*
X2176756Y788248D1*
X2149159Y815802D1*
X2163089Y829732D2*
X2155316Y821959D1*
X2182870Y794362D1*
X2190686Y802178D1*
X2163089Y829732D1*
X2177018Y843661D2*
X2169202Y835889D1*
X2196799Y808291D1*
X2204616Y816108D1*
X2177018Y843661D1*
X2190948Y857591D2*
X2183132Y849818D1*
X2210729Y822221D1*
X2218501Y829994D1*
X2190948Y857591D1*
X2204834Y871477D2*
X2197061Y863704D1*
X2224615Y836107D1*
X2232387Y843879D1*
X2204834Y871477D1*
X2218763Y885406D2*
X2210991Y877634D1*
X2238544Y850036D1*
X2246317Y857809D1*
X2218763Y885406D1*
X2232693Y899336D2*
X2224920Y891563D1*
X2252474Y863966D1*
X2260247Y871739D1*
X2232693Y899336D1*
X2224920Y947020D2*
X2232693Y939247D1*
X2260247Y966844D1*
X2252474Y974617D1*
X2224920Y947020D1*
X2210991Y960949D2*
X2218763Y953176D1*
X2246317Y980774D1*
X2238544Y988546D1*
X2210991Y960949D1*
X2197061Y974879D2*
X2204834Y967062D1*
X2232431Y994660D1*
X2224658Y1002432D1*
X2197061Y974879D1*
X2183132Y988765D2*
X2190948Y980992D1*
X2218501Y1008589D1*
X2210729Y1016362D1*
X2183132Y988765D1*
X2169202Y1002694D2*
X2177018Y994922D1*
X2204572Y1022519D1*
X2196799Y1030291D1*
X2169202Y1002694D1*
X2155316Y1016624D2*
X2163089Y1008851D1*
X2190642Y1036448D1*
X2182870Y1044221D1*
X2155316Y1016624D1*
X2141387Y1030553D2*
X2149159Y1022781D1*
X2176756Y1050334D1*
X2168984Y1058107D1*
X2141387Y1030553D1*
X2127457Y1044483D2*
X2135230Y1036667D1*
X2162827Y1064264D1*
X2155054Y1072036D1*
X2127457Y1044483D1*
X2113527Y1058413D2*
X2121300Y1050596D1*
X2148897Y1078193D1*
X2141125Y1085966D1*
X2113527Y1058413D1*
X2099598Y1072298D2*
X2107414Y1064526D1*
X2134968Y1092123D1*
X2127195Y1099896D1*
X2099598Y1072298D1*
X2085712Y1086228D2*
X2093485Y1078455D1*
X2121082Y1106009D1*
X2113309Y1113782D1*
X2085712Y1086228D1*
X2071782Y1100158D2*
X2079555Y1092385D1*
X2107152Y1119938D1*
X2099379Y1127711D1*
X2071782Y1100158D1*
X1886375Y883922D2*
Y954661D1*
X2051827Y718470D2*
X2252649Y919291D1*
X2051827Y1120113D1*
X1851005Y919291D1*
X2051827Y718470D1*
M02*
