G04 DipTrace 3.0.0.2*
G04 TopMask.gbr*
%MOIN*%
G04 #@! TF.FileFunction,Soldermask,Top*
G04 #@! TF.Part,Single*
%AMOUTLINE0*
4,1,4,
-0.016617,-0.024395,
-0.024395,-0.016617,
0.016617,0.024395,
0.024395,0.016617,
-0.016617,-0.024395,
0*%
%AMOUTLINE1*
4,1,4,
-0.024395,0.016617,
-0.016617,0.024395,
0.024395,-0.016617,
0.016617,-0.024395,
-0.024395,0.016617,
0*%
%ADD24C,0.059055*%
%ADD36C,0.043307*%
%ADD37C,0.15748*%
%ADD43C,0.066929*%
%ADD49C,0.062992*%
%ADD51R,0.066929X0.066929*%
%ADD55C,0.066929*%
%ADD56O,0.133858X0.059055*%
%ADD58O,0.086614X0.062992*%
%ADD62R,0.07874X0.096457*%
%ADD64R,0.066929X0.059055*%
%ADD69OUTLINE0*%
%ADD70OUTLINE1*%
%FSLAX26Y26*%
G04*
G70*
G90*
G75*
G01*
G04 TopMask*
%LPD*%
D64*
X1777559Y944882D3*
Y1019685D3*
D62*
X1553150Y1092520D3*
X1667323D3*
D64*
X2358268Y913386D3*
Y838583D3*
X1633858Y826772D3*
Y901575D3*
X1437008Y822835D3*
Y897638D3*
D58*
X3015748Y777559D3*
Y875984D3*
Y954724D3*
Y1053150D3*
D56*
X3118110Y1145669D3*
Y685039D3*
D36*
Y1003937D3*
Y826772D3*
D55*
X1767717Y1098425D3*
X1858268Y1096457D3*
D69*
X1857890Y878469D3*
X1871810Y864549D3*
X1885730Y850630D3*
X1899648Y836710D3*
X1913568Y822791D3*
X1927487Y808871D3*
X1941407Y794951D3*
X1955327Y781033D3*
X1969245Y767113D3*
X1983165Y753194D3*
X1997084Y739274D3*
X2011004Y725354D3*
D70*
X2092650D3*
X2106570Y739274D3*
X2120488Y753194D3*
X2134408Y767113D3*
X2148327Y781033D3*
X2162247Y794951D3*
X2176167Y808871D3*
X2190085Y822791D3*
X2204005Y836710D3*
X2217924Y850630D3*
X2231844Y864549D3*
X2245764Y878469D3*
D69*
Y960114D3*
X2231844Y974034D3*
X2217924Y987953D3*
X2204005Y1001873D3*
X2190085Y1015791D3*
X2176167Y1029711D3*
X2162247Y1043631D3*
X2148327Y1057550D3*
X2134408Y1071470D3*
X2120488Y1085388D3*
X2106570Y1099308D3*
X2092650Y1113228D3*
D70*
X2011004D3*
X1997084Y1099308D3*
X1983165Y1085388D3*
X1969245Y1071470D3*
X1955327Y1057550D3*
X1941407Y1043631D3*
X1927487Y1029711D3*
X1913568Y1015791D3*
X1899648Y1001873D3*
X1885730Y987953D3*
X1871810Y974034D3*
X1857890Y960114D3*
D24*
X1024016Y962598D3*
X1124016Y862598D3*
X1024016D3*
X1124016Y762598D3*
X1024016Y662598D3*
Y762598D3*
X924016Y662598D3*
Y762598D3*
X824016Y662598D3*
Y762598D3*
X724016Y662598D3*
Y762598D3*
X624016Y662598D3*
X524016Y762598D3*
X624016D3*
X524016Y862598D3*
X624016D3*
X524016Y962598D3*
X624016D3*
X524016Y1062598D3*
X624016D3*
X724016Y1162598D3*
Y1062598D3*
X824016Y1162598D3*
Y1062598D3*
X924016Y1162598D3*
Y1062598D3*
X1024016Y1162598D3*
X1124016Y1062598D3*
X1024016D3*
X1124016Y962598D3*
X624016Y1162598D3*
D37*
X824016Y912598D3*
D51*
X1360236Y1212598D3*
D49*
X1460236D3*
X1560236D3*
X1660236D3*
X1760236D3*
X1860236D3*
X1960236D3*
X2060236D3*
X2160236D3*
X2260236D3*
X2360236D3*
X2460236D3*
X2560236D3*
X2660236D3*
X2760236D3*
X2860236D3*
Y612598D3*
X2760236D3*
X2660236D3*
X2560236D3*
X2460236D3*
X2360236D3*
X2260236D3*
X2160236D3*
X2060236D3*
X1960236D3*
X1860236D3*
X1760236D3*
X1660236D3*
X1560236D3*
X1460236D3*
X1360236D3*
D43*
X1525591Y838583D3*
X1715591D3*
M02*
