G04 DipTrace 3.0.0.2*
G04 TopPaste.gbr*
%MOIN*%
G04 #@! TF.FileFunction,Paste,Top*
G04 #@! TF.Part,Single*
%AMOUTLINE0*
4,1,4,
-0.016617,-0.024395,
-0.024395,-0.016617,
0.016617,0.024395,
0.024395,0.016617,
-0.016617,-0.024395,
0*%
%AMOUTLINE1*
4,1,4,
-0.024395,0.016617,
-0.016617,0.024395,
0.024395,-0.016617,
0.016617,-0.024395,
-0.024395,0.016617,
0*%
%ADD63R,0.062992X0.080709*%
%ADD65R,0.051181X0.043307*%
%ADD69OUTLINE0*%
%ADD70OUTLINE1*%
%FSLAX26Y26*%
G04*
G70*
G90*
G75*
G01*
G04 TopPaste*
%LPD*%
D65*
X1777559Y944882D3*
Y1019685D3*
D63*
X1553150Y1092520D3*
X1667323D3*
D65*
X2358268Y913386D3*
Y838583D3*
X1633858Y826772D3*
Y901575D3*
X1437008Y822835D3*
Y897638D3*
D69*
X1857890Y878469D3*
X1871810Y864549D3*
X1885730Y850630D3*
X1899648Y836710D3*
X1913568Y822791D3*
X1927487Y808871D3*
X1941407Y794951D3*
X1955327Y781033D3*
X1969245Y767113D3*
X1983165Y753194D3*
X1997084Y739274D3*
X2011004Y725354D3*
D70*
X2092650D3*
X2106570Y739274D3*
X2120488Y753194D3*
X2134408Y767113D3*
X2148327Y781033D3*
X2162247Y794951D3*
X2176167Y808871D3*
X2190085Y822791D3*
X2204005Y836710D3*
X2217924Y850630D3*
X2231844Y864549D3*
X2245764Y878469D3*
D69*
Y960114D3*
X2231844Y974034D3*
X2217924Y987953D3*
X2204005Y1001873D3*
X2190085Y1015791D3*
X2176167Y1029711D3*
X2162247Y1043631D3*
X2148327Y1057550D3*
X2134408Y1071470D3*
X2120488Y1085388D3*
X2106570Y1099308D3*
X2092650Y1113228D3*
D70*
X2011004D3*
X1997084Y1099308D3*
X1983165Y1085388D3*
X1969245Y1071470D3*
X1955327Y1057550D3*
X1941407Y1043631D3*
X1927487Y1029711D3*
X1913568Y1015791D3*
X1899648Y1001873D3*
X1885730Y987953D3*
X1871810Y974034D3*
X1857890Y960114D3*
M02*
