G04 DipTrace 3.0.0.2*
G04 TopSilk.gbr*
%MOIN*%
G04 #@! TF.FileFunction,Legend,Top*
G04 #@! TF.Part,Single*
%ADD10C,0.009843*%
%ADD17C,0.019683*%
%ADD26C,0.006*%
%ADD66C,0.006176*%
%FSLAX26Y26*%
G04*
G70*
G90*
G75*
G01*
G04 TopSilk*
%LPD*%
X1803130Y903522D2*
D10*
X1751988D1*
D17*
X1496062Y1092520D3*
X1600400Y1037402D2*
D10*
X1620083D1*
X1600400Y1147638D2*
X1620083D1*
X2332697Y954745D2*
X2383839D1*
X1659429Y785412D2*
X1608287D1*
X1462579Y781475D2*
X1411437D1*
X1861703Y929990D2*
D26*
X1851005Y919291D1*
X2062525Y1109415D2*
X2051827Y1120113D1*
X2241950Y908593D2*
X2252649Y919291D1*
X1886375Y909510D2*
Y929073D1*
X2051827Y718470D2*
X2062525Y729168D1*
X2252649Y919291D2*
X2241950Y929990D1*
X2051827Y1120113D2*
X2041129Y1109415D1*
X1851005Y919291D2*
X1861703Y908593D1*
X2041129Y729168D2*
X2051827Y718470D1*
X2114850Y939498D2*
D66*
Y910802D1*
X2116751Y905054D1*
X2120598Y901251D1*
X2126346Y899306D1*
X2130149D1*
X2135897Y901251D1*
X2139743Y905054D1*
X2141645Y910802D1*
Y939498D1*
X2153996Y931804D2*
X2157843Y933750D1*
X2163591Y939454D1*
Y899306D1*
M02*
