G04 DipTrace 4.1.3.1*
G04 2 - Bottom.gbr*
%MOIN*%
G04 #@! TF.FileFunction,Copper,L2,Bot*
G04 #@! TF.Part,Single*
G04 #@! TA.AperFunction,CopperBalancing*
%ADD18C,0.025*%
G04 #@! TA.AperFunction,ComponentPad*
%ADD20R,0.059055X0.059055*%
%ADD21C,0.059055*%
%FSLAX26Y26*%
G04*
G70*
G90*
G75*
G01*
G04 Bottom*
%LPD*%
X410301Y1102789D2*
D18*
X449490D1*
X541843D2*
X549479D1*
X641843D2*
X649479D1*
X741843D2*
X749479D1*
X841843D2*
X849479D1*
X941843D2*
X949479D1*
X1041843D2*
X1049479D1*
X1141843D2*
X1149479D1*
X1241843D2*
X1249479D1*
X1341843D2*
X1349479D1*
X1441843D2*
X1449479D1*
X1541843D2*
X1549479D1*
X1641843D2*
X1649479D1*
X1741843D2*
X1749479D1*
X1841843D2*
X1849479D1*
X1941843D2*
X1949479D1*
X2041843D2*
X2070778D1*
X410349Y1077920D2*
X438064D1*
X2053269D2*
X2070778D1*
X410349Y1053051D2*
X439089D1*
X2052243D2*
X2070730D1*
X410398Y1028182D2*
X453493D1*
X537839D2*
X553479D1*
X637839D2*
X653479D1*
X737839D2*
X753479D1*
X837839D2*
X853479D1*
X937839D2*
X953479D1*
X1037839D2*
X1053479D1*
X1137839D2*
X1153479D1*
X1237839D2*
X1253479D1*
X1337839D2*
X1353479D1*
X1437839D2*
X1453479D1*
X1537839D2*
X1553479D1*
X1637839D2*
X1653479D1*
X1737839D2*
X1753479D1*
X1837839D2*
X1853479D1*
X1937839D2*
X1953479D1*
X2037839D2*
X2070730D1*
X410398Y1003314D2*
X2070681D1*
X410446Y978445D2*
X2070633D1*
X410495Y953576D2*
X2070633D1*
X410495Y928707D2*
X2070583D1*
X410545Y903839D2*
X2070583D1*
X410545Y878970D2*
X2070534D1*
X410593Y854101D2*
X2070534D1*
X410593Y829232D2*
X2070486D1*
X410642Y804364D2*
X2070486D1*
X410642Y779495D2*
X2070437D1*
X410690Y754626D2*
X2070437D1*
X410690Y729757D2*
X2070388D1*
X410739Y704888D2*
X2070388D1*
X410739Y680020D2*
X2070339D1*
X410789Y655151D2*
X2070290D1*
X410837Y630282D2*
X2070290D1*
X410837Y605413D2*
X2070241D1*
X410886Y580545D2*
X2070241D1*
X410886Y555676D2*
X2070193D1*
X410934Y530807D2*
X2070193D1*
X410934Y505938D2*
X437136D1*
X639109D2*
X652175D1*
X739109D2*
X752175D1*
X839109D2*
X852175D1*
X939109D2*
X952175D1*
X1039109D2*
X1052175D1*
X1139109D2*
X1152175D1*
X1239109D2*
X1252175D1*
X1339109D2*
X1352175D1*
X1439109D2*
X1452175D1*
X1539109D2*
X1552175D1*
X1639109D2*
X1652175D1*
X1739109D2*
X1752175D1*
X1839109D2*
X1852175D1*
X1939109D2*
X1952175D1*
X2039109D2*
X2070144D1*
X410984Y481070D2*
X437136D1*
X2052585D2*
X2070144D1*
X410984Y456201D2*
X437136D1*
X2052976D2*
X2070094D1*
X411033Y431332D2*
X437136D1*
X640769D2*
X650589D1*
X740769D2*
X750589D1*
X840769D2*
X850589D1*
X940769D2*
X950589D1*
X1040769D2*
X1050589D1*
X1140769D2*
X1150589D1*
X1240769D2*
X1250589D1*
X1340769D2*
X1350589D1*
X1440769D2*
X1450589D1*
X1540769D2*
X1550589D1*
X1640769D2*
X1650589D1*
X1740769D2*
X1750589D1*
X1840769D2*
X1850589D1*
X1940769D2*
X1950589D1*
X2040769D2*
X2070094D1*
X452150Y523736D2*
X551689D1*
Y502399D1*
X556058Y507328D1*
X562741Y513038D1*
X570238Y517630D1*
X578358Y520995D1*
X586906Y523046D1*
X595669Y523736D1*
X604433Y523046D1*
X612980Y520995D1*
X621101Y517630D1*
X628597Y513038D1*
X635281Y507328D1*
X640991Y500644D1*
X645663Y492978D1*
X650348Y500644D1*
X656058Y507328D1*
X662741Y513038D1*
X670238Y517630D1*
X678358Y520995D1*
X686906Y523046D1*
X695669Y523736D1*
X704433Y523046D1*
X712980Y520995D1*
X721101Y517630D1*
X728597Y513038D1*
X735281Y507328D1*
X740991Y500644D1*
X745663Y492978D1*
X750348Y500644D1*
X756058Y507328D1*
X762741Y513038D1*
X770238Y517630D1*
X778358Y520995D1*
X786906Y523046D1*
X795669Y523736D1*
X804433Y523046D1*
X812980Y520995D1*
X821101Y517630D1*
X828597Y513038D1*
X835281Y507328D1*
X840991Y500644D1*
X845663Y492978D1*
X850348Y500644D1*
X856058Y507328D1*
X862741Y513038D1*
X870238Y517630D1*
X878358Y520995D1*
X886906Y523046D1*
X895669Y523736D1*
X904433Y523046D1*
X912980Y520995D1*
X921101Y517630D1*
X928597Y513038D1*
X935281Y507328D1*
X940991Y500644D1*
X945663Y492978D1*
X950348Y500644D1*
X956058Y507328D1*
X962741Y513038D1*
X970238Y517630D1*
X978358Y520995D1*
X986906Y523046D1*
X995669Y523736D1*
X1004433Y523046D1*
X1012980Y520995D1*
X1021101Y517630D1*
X1028597Y513038D1*
X1035281Y507328D1*
X1040991Y500644D1*
X1045663Y492978D1*
X1050348Y500644D1*
X1056058Y507328D1*
X1062741Y513038D1*
X1070238Y517630D1*
X1078358Y520995D1*
X1086906Y523046D1*
X1095669Y523736D1*
X1104433Y523046D1*
X1112980Y520995D1*
X1121101Y517630D1*
X1128597Y513038D1*
X1135281Y507328D1*
X1140991Y500644D1*
X1145663Y492978D1*
X1150348Y500644D1*
X1156058Y507328D1*
X1162741Y513038D1*
X1170238Y517630D1*
X1178358Y520995D1*
X1186906Y523046D1*
X1195669Y523736D1*
X1204433Y523046D1*
X1212980Y520995D1*
X1221101Y517630D1*
X1228597Y513038D1*
X1235281Y507328D1*
X1240991Y500644D1*
X1245663Y492978D1*
X1250348Y500644D1*
X1256058Y507328D1*
X1262741Y513038D1*
X1270238Y517630D1*
X1278358Y520995D1*
X1286906Y523046D1*
X1295669Y523736D1*
X1304433Y523046D1*
X1312980Y520995D1*
X1321101Y517630D1*
X1328597Y513038D1*
X1335281Y507328D1*
X1340991Y500644D1*
X1345663Y492978D1*
X1350348Y500644D1*
X1356058Y507328D1*
X1362741Y513038D1*
X1370238Y517630D1*
X1378358Y520995D1*
X1386906Y523046D1*
X1395669Y523736D1*
X1404433Y523046D1*
X1412980Y520995D1*
X1421101Y517630D1*
X1428597Y513038D1*
X1435281Y507328D1*
X1440991Y500644D1*
X1445663Y492978D1*
X1450348Y500644D1*
X1456058Y507328D1*
X1462741Y513038D1*
X1470238Y517630D1*
X1478358Y520995D1*
X1486906Y523046D1*
X1495669Y523736D1*
X1504433Y523046D1*
X1512980Y520995D1*
X1521101Y517630D1*
X1528597Y513038D1*
X1535281Y507328D1*
X1540991Y500644D1*
X1545663Y492978D1*
X1550348Y500644D1*
X1556058Y507328D1*
X1562741Y513038D1*
X1570238Y517630D1*
X1578358Y520995D1*
X1586906Y523046D1*
X1595669Y523736D1*
X1604433Y523046D1*
X1612980Y520995D1*
X1621101Y517630D1*
X1628597Y513038D1*
X1635281Y507328D1*
X1640991Y500644D1*
X1645663Y492978D1*
X1650348Y500644D1*
X1656058Y507328D1*
X1662741Y513038D1*
X1670238Y517630D1*
X1678358Y520995D1*
X1686906Y523046D1*
X1695669Y523736D1*
X1704433Y523046D1*
X1712980Y520995D1*
X1721101Y517630D1*
X1728597Y513038D1*
X1735281Y507328D1*
X1740991Y500644D1*
X1745663Y492978D1*
X1750348Y500644D1*
X1756058Y507328D1*
X1762741Y513038D1*
X1770238Y517630D1*
X1778358Y520995D1*
X1786906Y523046D1*
X1795669Y523736D1*
X1804433Y523046D1*
X1812980Y520995D1*
X1821101Y517630D1*
X1828597Y513038D1*
X1835281Y507328D1*
X1840991Y500644D1*
X1845663Y492978D1*
X1850348Y500644D1*
X1856058Y507328D1*
X1862741Y513038D1*
X1870238Y517630D1*
X1878358Y520995D1*
X1886906Y523046D1*
X1895669Y523736D1*
X1904433Y523046D1*
X1912980Y520995D1*
X1921101Y517630D1*
X1928597Y513038D1*
X1935281Y507328D1*
X1940991Y500644D1*
X1945663Y492978D1*
X1950348Y500644D1*
X1956058Y507328D1*
X1962741Y513038D1*
X1970238Y517630D1*
X1978358Y520995D1*
X1986906Y523046D1*
X1995669Y523736D1*
X2004433Y523046D1*
X2012980Y520995D1*
X2021101Y517630D1*
X2028597Y513038D1*
X2035281Y507328D1*
X2040991Y500644D1*
X2045583Y493148D1*
X2048948Y485028D1*
X2050999Y476480D1*
X2051689Y467717D1*
X2050999Y458953D1*
X2048948Y450406D1*
X2045583Y442285D1*
X2040991Y434789D1*
X2035281Y428105D1*
X2028597Y422395D1*
X2021101Y417803D1*
X2012980Y414438D1*
X2004433Y412387D1*
X1995669Y411697D1*
X1986906Y412387D1*
X1978358Y414438D1*
X1970238Y417803D1*
X1962741Y422395D1*
X1956058Y428105D1*
X1950348Y434789D1*
X1945676Y442455D1*
X1940991Y434789D1*
X1935281Y428105D1*
X1928597Y422395D1*
X1921101Y417803D1*
X1912980Y414438D1*
X1904433Y412387D1*
X1895669Y411697D1*
X1886906Y412387D1*
X1878358Y414438D1*
X1870238Y417803D1*
X1862741Y422395D1*
X1856058Y428105D1*
X1850348Y434789D1*
X1845676Y442455D1*
X1840991Y434789D1*
X1835281Y428105D1*
X1828597Y422395D1*
X1821101Y417803D1*
X1812980Y414438D1*
X1804433Y412387D1*
X1795669Y411697D1*
X1786906Y412387D1*
X1778358Y414438D1*
X1770238Y417803D1*
X1762741Y422395D1*
X1756058Y428105D1*
X1750348Y434789D1*
X1745676Y442455D1*
X1740991Y434789D1*
X1735281Y428105D1*
X1728597Y422395D1*
X1721101Y417803D1*
X1712980Y414438D1*
X1704433Y412387D1*
X1695669Y411697D1*
X1686906Y412387D1*
X1678358Y414438D1*
X1670238Y417803D1*
X1662741Y422395D1*
X1656058Y428105D1*
X1650348Y434789D1*
X1645676Y442455D1*
X1640991Y434789D1*
X1635281Y428105D1*
X1628597Y422395D1*
X1621101Y417803D1*
X1612980Y414438D1*
X1604433Y412387D1*
X1595669Y411697D1*
X1586906Y412387D1*
X1578358Y414438D1*
X1570238Y417803D1*
X1562741Y422395D1*
X1556058Y428105D1*
X1550348Y434789D1*
X1545676Y442455D1*
X1540991Y434789D1*
X1535281Y428105D1*
X1528597Y422395D1*
X1521101Y417803D1*
X1512980Y414438D1*
X1504433Y412387D1*
X1495669Y411697D1*
X1486906Y412387D1*
X1478358Y414438D1*
X1470238Y417803D1*
X1462741Y422395D1*
X1456058Y428105D1*
X1450348Y434789D1*
X1445676Y442455D1*
X1440991Y434789D1*
X1435281Y428105D1*
X1428597Y422395D1*
X1421101Y417803D1*
X1412980Y414438D1*
X1404433Y412387D1*
X1395669Y411697D1*
X1386906Y412387D1*
X1378358Y414438D1*
X1370238Y417803D1*
X1362741Y422395D1*
X1356058Y428105D1*
X1350348Y434789D1*
X1345676Y442455D1*
X1340991Y434789D1*
X1335281Y428105D1*
X1328597Y422395D1*
X1321101Y417803D1*
X1312980Y414438D1*
X1304433Y412387D1*
X1295669Y411697D1*
X1286906Y412387D1*
X1278358Y414438D1*
X1270238Y417803D1*
X1262741Y422395D1*
X1256058Y428105D1*
X1250348Y434789D1*
X1245676Y442455D1*
X1240991Y434789D1*
X1235281Y428105D1*
X1228597Y422395D1*
X1221101Y417803D1*
X1212980Y414438D1*
X1204433Y412387D1*
X1195669Y411697D1*
X1186906Y412387D1*
X1178358Y414438D1*
X1170238Y417803D1*
X1162741Y422395D1*
X1156058Y428105D1*
X1150348Y434789D1*
X1145676Y442455D1*
X1140991Y434789D1*
X1135281Y428105D1*
X1128597Y422395D1*
X1121101Y417803D1*
X1112980Y414438D1*
X1104433Y412387D1*
X1095669Y411697D1*
X1086906Y412387D1*
X1078358Y414438D1*
X1070238Y417803D1*
X1062741Y422395D1*
X1056058Y428105D1*
X1050348Y434789D1*
X1045676Y442455D1*
X1040991Y434789D1*
X1035281Y428105D1*
X1028597Y422395D1*
X1021101Y417803D1*
X1012980Y414438D1*
X1004433Y412387D1*
X995669Y411697D1*
X986906Y412387D1*
X978358Y414438D1*
X970238Y417803D1*
X962741Y422395D1*
X956058Y428105D1*
X950348Y434789D1*
X945676Y442455D1*
X940991Y434789D1*
X935281Y428105D1*
X928597Y422395D1*
X921101Y417803D1*
X912980Y414438D1*
X904433Y412387D1*
X895669Y411697D1*
X886906Y412387D1*
X878358Y414438D1*
X870238Y417803D1*
X862741Y422395D1*
X856058Y428105D1*
X850348Y434789D1*
X845676Y442455D1*
X840991Y434789D1*
X835281Y428105D1*
X828597Y422395D1*
X821101Y417803D1*
X812980Y414438D1*
X804433Y412387D1*
X795669Y411697D1*
X786906Y412387D1*
X778358Y414438D1*
X770238Y417803D1*
X762741Y422395D1*
X756058Y428105D1*
X750348Y434789D1*
X745676Y442455D1*
X740991Y434789D1*
X735281Y428105D1*
X728597Y422395D1*
X721101Y417803D1*
X712980Y414438D1*
X704433Y412387D1*
X695669Y411697D1*
X686906Y412387D1*
X678358Y414438D1*
X670238Y417803D1*
X662741Y422395D1*
X656058Y428105D1*
X650348Y434789D1*
X645676Y442455D1*
X640991Y434789D1*
X635281Y428105D1*
X628597Y422395D1*
X621101Y417803D1*
X612980Y414438D1*
X604433Y412387D1*
X595669Y411697D1*
X586906Y412387D1*
X578358Y414438D1*
X570238Y417803D1*
X562741Y422395D1*
X556058Y428105D1*
X551699Y433075D1*
X551689Y411697D1*
X439650D1*
Y523736D1*
X452150D1*
X2051516Y1063322D2*
X2050142Y1054639D1*
X2047425Y1046278D1*
X2043434Y1038446D1*
X2038266Y1031335D1*
X2032051Y1025119D1*
X2024940Y1019951D1*
X2017108Y1015961D1*
X2008747Y1013244D1*
X2000064Y1011870D1*
X1991274D1*
X1982592Y1013244D1*
X1974231Y1015961D1*
X1966399Y1019951D1*
X1959287Y1025119D1*
X1953072Y1031335D1*
X1947904Y1038446D1*
X1945583Y1042285D1*
X1940991Y1034789D1*
X1935281Y1028105D1*
X1928597Y1022395D1*
X1921101Y1017803D1*
X1912980Y1014438D1*
X1904433Y1012387D1*
X1895669Y1011697D1*
X1886906Y1012387D1*
X1878358Y1014438D1*
X1870238Y1017803D1*
X1862741Y1022395D1*
X1856058Y1028105D1*
X1850348Y1034789D1*
X1845676Y1042455D1*
X1840991Y1034789D1*
X1835281Y1028105D1*
X1828597Y1022395D1*
X1821101Y1017803D1*
X1812980Y1014438D1*
X1804433Y1012387D1*
X1795669Y1011697D1*
X1786906Y1012387D1*
X1778358Y1014438D1*
X1770238Y1017803D1*
X1762741Y1022395D1*
X1756058Y1028105D1*
X1750348Y1034789D1*
X1745676Y1042455D1*
X1740991Y1034789D1*
X1735281Y1028105D1*
X1728597Y1022395D1*
X1721101Y1017803D1*
X1712980Y1014438D1*
X1704433Y1012387D1*
X1695669Y1011697D1*
X1686906Y1012387D1*
X1678358Y1014438D1*
X1670238Y1017803D1*
X1662741Y1022395D1*
X1656058Y1028105D1*
X1650348Y1034789D1*
X1645676Y1042455D1*
X1640991Y1034789D1*
X1635281Y1028105D1*
X1628597Y1022395D1*
X1621101Y1017803D1*
X1612980Y1014438D1*
X1604433Y1012387D1*
X1595669Y1011697D1*
X1586906Y1012387D1*
X1578358Y1014438D1*
X1570238Y1017803D1*
X1562741Y1022395D1*
X1556058Y1028105D1*
X1550348Y1034789D1*
X1545676Y1042455D1*
X1540991Y1034789D1*
X1535281Y1028105D1*
X1528597Y1022395D1*
X1521101Y1017803D1*
X1512980Y1014438D1*
X1504433Y1012387D1*
X1495669Y1011697D1*
X1486906Y1012387D1*
X1478358Y1014438D1*
X1470238Y1017803D1*
X1462741Y1022395D1*
X1456058Y1028105D1*
X1450348Y1034789D1*
X1445676Y1042455D1*
X1440991Y1034789D1*
X1435281Y1028105D1*
X1428597Y1022395D1*
X1421101Y1017803D1*
X1412980Y1014438D1*
X1404433Y1012387D1*
X1395669Y1011697D1*
X1386906Y1012387D1*
X1378358Y1014438D1*
X1370238Y1017803D1*
X1362741Y1022395D1*
X1356058Y1028105D1*
X1350348Y1034789D1*
X1345676Y1042455D1*
X1340991Y1034789D1*
X1335281Y1028105D1*
X1328597Y1022395D1*
X1321101Y1017803D1*
X1312980Y1014438D1*
X1304433Y1012387D1*
X1295669Y1011697D1*
X1286906Y1012387D1*
X1278358Y1014438D1*
X1270238Y1017803D1*
X1262741Y1022395D1*
X1256058Y1028105D1*
X1250348Y1034789D1*
X1245676Y1042455D1*
X1240991Y1034789D1*
X1235281Y1028105D1*
X1228597Y1022395D1*
X1221101Y1017803D1*
X1212980Y1014438D1*
X1204433Y1012387D1*
X1195669Y1011697D1*
X1186906Y1012387D1*
X1178358Y1014438D1*
X1170238Y1017803D1*
X1162741Y1022395D1*
X1156058Y1028105D1*
X1150348Y1034789D1*
X1145676Y1042455D1*
X1140991Y1034789D1*
X1135281Y1028105D1*
X1128597Y1022395D1*
X1121101Y1017803D1*
X1112980Y1014438D1*
X1104433Y1012387D1*
X1095669Y1011697D1*
X1086906Y1012387D1*
X1078358Y1014438D1*
X1070238Y1017803D1*
X1062741Y1022395D1*
X1056058Y1028105D1*
X1050348Y1034789D1*
X1045676Y1042455D1*
X1040991Y1034789D1*
X1035281Y1028105D1*
X1028597Y1022395D1*
X1021101Y1017803D1*
X1012980Y1014438D1*
X1004433Y1012387D1*
X995669Y1011697D1*
X986906Y1012387D1*
X978358Y1014438D1*
X970238Y1017803D1*
X962741Y1022395D1*
X956058Y1028105D1*
X950348Y1034789D1*
X945676Y1042455D1*
X940991Y1034789D1*
X935281Y1028105D1*
X928597Y1022395D1*
X921101Y1017803D1*
X912980Y1014438D1*
X904433Y1012387D1*
X895669Y1011697D1*
X886906Y1012387D1*
X878358Y1014438D1*
X870238Y1017803D1*
X862741Y1022395D1*
X856058Y1028105D1*
X850348Y1034789D1*
X845676Y1042455D1*
X840991Y1034789D1*
X835281Y1028105D1*
X828597Y1022395D1*
X821101Y1017803D1*
X812980Y1014438D1*
X804433Y1012387D1*
X795669Y1011697D1*
X786906Y1012387D1*
X778358Y1014438D1*
X770238Y1017803D1*
X762741Y1022395D1*
X756058Y1028105D1*
X750348Y1034789D1*
X745676Y1042455D1*
X740991Y1034789D1*
X735281Y1028105D1*
X728597Y1022395D1*
X721101Y1017803D1*
X712980Y1014438D1*
X704433Y1012387D1*
X695669Y1011697D1*
X686906Y1012387D1*
X678358Y1014438D1*
X670238Y1017803D1*
X662741Y1022395D1*
X656058Y1028105D1*
X650348Y1034789D1*
X645676Y1042455D1*
X640991Y1034789D1*
X635281Y1028105D1*
X628597Y1022395D1*
X621101Y1017803D1*
X612980Y1014438D1*
X604433Y1012387D1*
X595669Y1011697D1*
X586906Y1012387D1*
X578358Y1014438D1*
X570238Y1017803D1*
X562741Y1022395D1*
X556058Y1028105D1*
X550348Y1034789D1*
X545676Y1042455D1*
X540991Y1034789D1*
X535281Y1028105D1*
X528597Y1022395D1*
X521101Y1017803D1*
X512980Y1014438D1*
X504433Y1012387D1*
X495669Y1011697D1*
X486906Y1012387D1*
X478358Y1014438D1*
X470238Y1017803D1*
X462741Y1022395D1*
X456058Y1028105D1*
X450348Y1034789D1*
X445756Y1042285D1*
X442391Y1050406D1*
X440340Y1058953D1*
X439650Y1067717D1*
X440340Y1076480D1*
X442391Y1085028D1*
X445756Y1093148D1*
X450348Y1100644D1*
X456058Y1107328D1*
X462741Y1113038D1*
X470238Y1117630D1*
X478358Y1120995D1*
X486906Y1123046D1*
X495669Y1123736D1*
X504433Y1123046D1*
X512980Y1120995D1*
X521101Y1117630D1*
X528597Y1113038D1*
X535281Y1107328D1*
X540991Y1100644D1*
X545663Y1092978D1*
X550348Y1100644D1*
X556058Y1107328D1*
X562741Y1113038D1*
X570238Y1117630D1*
X578358Y1120995D1*
X586906Y1123046D1*
X595669Y1123736D1*
X604433Y1123046D1*
X612980Y1120995D1*
X621101Y1117630D1*
X628597Y1113038D1*
X635281Y1107328D1*
X640991Y1100644D1*
X645663Y1092978D1*
X650348Y1100644D1*
X656058Y1107328D1*
X662741Y1113038D1*
X670238Y1117630D1*
X678358Y1120995D1*
X686906Y1123046D1*
X695669Y1123736D1*
X704433Y1123046D1*
X712980Y1120995D1*
X721101Y1117630D1*
X728597Y1113038D1*
X735281Y1107328D1*
X740991Y1100644D1*
X745663Y1092978D1*
X750348Y1100644D1*
X756058Y1107328D1*
X762741Y1113038D1*
X770238Y1117630D1*
X778358Y1120995D1*
X786906Y1123046D1*
X795669Y1123736D1*
X804433Y1123046D1*
X812980Y1120995D1*
X821101Y1117630D1*
X828597Y1113038D1*
X835281Y1107328D1*
X840991Y1100644D1*
X845663Y1092978D1*
X850348Y1100644D1*
X856058Y1107328D1*
X862741Y1113038D1*
X870238Y1117630D1*
X878358Y1120995D1*
X886906Y1123046D1*
X895669Y1123736D1*
X904433Y1123046D1*
X912980Y1120995D1*
X921101Y1117630D1*
X928597Y1113038D1*
X935281Y1107328D1*
X940991Y1100644D1*
X945663Y1092978D1*
X950348Y1100644D1*
X956058Y1107328D1*
X962741Y1113038D1*
X970238Y1117630D1*
X978358Y1120995D1*
X986906Y1123046D1*
X995669Y1123736D1*
X1004433Y1123046D1*
X1012980Y1120995D1*
X1021101Y1117630D1*
X1028597Y1113038D1*
X1035281Y1107328D1*
X1040991Y1100644D1*
X1045663Y1092978D1*
X1050348Y1100644D1*
X1056058Y1107328D1*
X1062741Y1113038D1*
X1070238Y1117630D1*
X1078358Y1120995D1*
X1086906Y1123046D1*
X1095669Y1123736D1*
X1104433Y1123046D1*
X1112980Y1120995D1*
X1121101Y1117630D1*
X1128597Y1113038D1*
X1135281Y1107328D1*
X1140991Y1100644D1*
X1145663Y1092978D1*
X1150348Y1100644D1*
X1156058Y1107328D1*
X1162741Y1113038D1*
X1170238Y1117630D1*
X1178358Y1120995D1*
X1186906Y1123046D1*
X1195669Y1123736D1*
X1204433Y1123046D1*
X1212980Y1120995D1*
X1221101Y1117630D1*
X1228597Y1113038D1*
X1235281Y1107328D1*
X1240991Y1100644D1*
X1245663Y1092978D1*
X1250348Y1100644D1*
X1256058Y1107328D1*
X1262741Y1113038D1*
X1270238Y1117630D1*
X1278358Y1120995D1*
X1286906Y1123046D1*
X1295669Y1123736D1*
X1304433Y1123046D1*
X1312980Y1120995D1*
X1321101Y1117630D1*
X1328597Y1113038D1*
X1335281Y1107328D1*
X1340991Y1100644D1*
X1345663Y1092978D1*
X1350348Y1100644D1*
X1356058Y1107328D1*
X1362741Y1113038D1*
X1370238Y1117630D1*
X1378358Y1120995D1*
X1386906Y1123046D1*
X1395669Y1123736D1*
X1404433Y1123046D1*
X1412980Y1120995D1*
X1421101Y1117630D1*
X1428597Y1113038D1*
X1435281Y1107328D1*
X1440991Y1100644D1*
X1445663Y1092978D1*
X1450348Y1100644D1*
X1456058Y1107328D1*
X1462741Y1113038D1*
X1470238Y1117630D1*
X1478358Y1120995D1*
X1486906Y1123046D1*
X1495669Y1123736D1*
X1504433Y1123046D1*
X1512980Y1120995D1*
X1521101Y1117630D1*
X1528597Y1113038D1*
X1535281Y1107328D1*
X1540991Y1100644D1*
X1545663Y1092978D1*
X1550348Y1100644D1*
X1556058Y1107328D1*
X1562741Y1113038D1*
X1570238Y1117630D1*
X1578358Y1120995D1*
X1586906Y1123046D1*
X1595669Y1123736D1*
X1604433Y1123046D1*
X1612980Y1120995D1*
X1621101Y1117630D1*
X1628597Y1113038D1*
X1635281Y1107328D1*
X1640991Y1100644D1*
X1645663Y1092978D1*
X1650348Y1100644D1*
X1656058Y1107328D1*
X1662741Y1113038D1*
X1670238Y1117630D1*
X1678358Y1120995D1*
X1686906Y1123046D1*
X1695669Y1123736D1*
X1704433Y1123046D1*
X1712980Y1120995D1*
X1721101Y1117630D1*
X1728597Y1113038D1*
X1735281Y1107328D1*
X1740991Y1100644D1*
X1745663Y1092978D1*
X1750348Y1100644D1*
X1756058Y1107328D1*
X1762741Y1113038D1*
X1770238Y1117630D1*
X1778358Y1120995D1*
X1786906Y1123046D1*
X1795669Y1123736D1*
X1804433Y1123046D1*
X1812980Y1120995D1*
X1821101Y1117630D1*
X1828597Y1113038D1*
X1835281Y1107328D1*
X1840991Y1100644D1*
X1845663Y1092978D1*
X1850348Y1100644D1*
X1856058Y1107328D1*
X1862741Y1113038D1*
X1870238Y1117630D1*
X1878358Y1120995D1*
X1886906Y1123046D1*
X1895669Y1123736D1*
X1904433Y1123046D1*
X1912980Y1120995D1*
X1921101Y1117630D1*
X1928597Y1113038D1*
X1935281Y1107328D1*
X1940991Y1100644D1*
X1945663Y1092978D1*
X1950348Y1100644D1*
X1956058Y1107328D1*
X1962741Y1113038D1*
X1970238Y1117630D1*
X1978358Y1120995D1*
X1986906Y1123046D1*
X1995669Y1123736D1*
X2004433Y1123046D1*
X2012980Y1120995D1*
X2021101Y1117630D1*
X2028597Y1113038D1*
X2035281Y1107328D1*
X2040991Y1100644D1*
X2045583Y1093148D1*
X2048948Y1085028D1*
X2050999Y1076480D1*
X2051689Y1067717D1*
X2051516Y1063322D1*
X407789Y1126932D2*
X408563Y407776D1*
X2072552Y407789D1*
X2073314Y1127661D1*
X407757Y1126875D1*
D20*
X495669Y467717D3*
D21*
X595669D3*
X695669D3*
X795669D3*
X895669D3*
X995669D3*
X1095669D3*
X1195669D3*
X1295669D3*
X1395669D3*
X1495669D3*
X1595669D3*
X1695669D3*
X1795669D3*
X1895669D3*
X1995669D3*
Y1067717D3*
X1895669D3*
X1795669D3*
X1695669D3*
X1595669D3*
X1495669D3*
X1395669D3*
X1295669D3*
X1195669D3*
X1095669D3*
X995669D3*
X895669D3*
X795669D3*
X695669D3*
X595669D3*
X495669D3*
M02*
