M48
INCH
T01C0.0354
%
T01
X+004957Y+004677
X+005957Y+004677
X+006957Y+004677
X+007957Y+004677
X+008957Y+004677
X+009957Y+004677
X+010957Y+004677
X+011957Y+004677
X+012957Y+004677
X+013957Y+004677
X+014957Y+004677
X+015957Y+004677
X+016957Y+004677
X+017957Y+004677
X+018957Y+004677
X+019957Y+004677
X+019957Y+010677
X+018957Y+010677
X+017957Y+010677
X+016957Y+010677
X+015957Y+010677
X+014957Y+010677
X+013957Y+010677
X+012957Y+010677
X+011957Y+010677
X+010957Y+010677
X+009957Y+010677
X+008957Y+010677
X+007957Y+010677
X+006957Y+010677
X+005957Y+010677
X+004957Y+010677
T00
M30
