G04 DipTrace 4.1.3.1*
G04 TopSilk.gbr*
%MOIN*%
G04 #@! TF.FileFunction,Legend,Top*
G04 #@! TF.Part,Single*
%ADD10C,0.009843*%
%ADD23C,0.001*%
%ADD34C,0.008749*%
%FSLAX26Y26*%
G04*
G70*
G90*
G75*
G01*
G04 TopSilk*
%LPD*%
X911075Y925207D2*
D10*
Y610218D1*
X1580346D1*
Y925207D1*
X1281138D1*
X1210201D2*
X911075D1*
X1210201D2*
G03X1281138Y925207I35469J32D01*
G01*
X430709Y514969D2*
X2060630D1*
X430709Y1018882D2*
X2060630D1*
Y514969D2*
Y1018882D1*
X430709Y514969D2*
Y735423D1*
Y1018882D2*
Y798429D1*
Y735423D2*
G03X430709Y798429I-45J31503D01*
G01*
X993732Y925211D2*
Y610222D1*
X1497606Y925211D2*
Y610222D1*
X993732D2*
X1497606D1*
X993732Y925211D2*
X1214185D1*
X1277153D2*
X1497606D1*
X1214185D2*
G03X1277153Y925211I31484J-47D01*
G01*
X1033050D2*
Y610222D1*
X1458288D1*
Y925211D1*
X1269268D1*
X1033050D2*
X1222071D1*
G03X1269268Y925211I23598J-57D01*
G01*
X1912282Y696297D2*
D23*
Y833319D1*
X1913277Y696297D2*
Y833319D1*
X1914273Y696297D2*
Y833319D1*
X1915281Y696297D2*
Y833319D1*
X1916277Y696297D2*
Y833319D1*
X1917299Y696297D2*
Y833319D1*
X1918294Y696297D2*
Y833319D1*
X1919289Y696297D2*
Y833319D1*
X1920285Y696297D2*
Y833319D1*
X1921280Y696297D2*
Y833319D1*
X1922274Y696297D2*
Y833319D1*
X1923283Y696297D2*
Y833319D1*
X1924278Y696297D2*
Y833319D1*
X1925274Y696297D2*
Y833319D1*
X1926269Y696297D2*
Y833319D1*
X1927291Y696297D2*
Y833319D1*
X1928286Y696297D2*
Y833319D1*
X1929282Y696297D2*
Y833319D1*
X1930290Y696297D2*
Y833319D1*
X1931286Y696297D2*
Y833319D1*
X1932281Y696297D2*
Y833319D1*
X1933276Y696297D2*
Y833319D1*
X1934272Y696297D2*
Y833319D1*
X1935280Y696297D2*
Y833319D1*
X1936276Y696297D2*
Y833319D1*
X1937298Y696297D2*
Y833319D1*
X1938293Y696297D2*
Y722340D1*
X1939287Y696297D2*
Y722340D1*
X1940283Y696297D2*
Y722340D1*
X1941278Y696297D2*
Y722340D1*
X1942273Y696297D2*
Y722340D1*
X1943282Y696297D2*
Y722340D1*
X1944277Y696297D2*
Y722340D1*
X1945273Y696297D2*
Y722340D1*
X1946295Y696297D2*
Y722340D1*
X1947290Y696297D2*
Y722340D1*
X1948285Y696297D2*
Y722340D1*
X1949281Y696297D2*
Y722340D1*
X1950289Y696297D2*
Y722340D1*
X1951285Y696297D2*
Y722340D1*
X1952280Y696297D2*
Y722340D1*
X1953276Y696297D2*
Y722340D1*
X1954270Y696297D2*
Y722340D1*
X1955265Y696297D2*
Y722340D1*
X1956287Y696297D2*
Y722340D1*
X1957297Y696297D2*
Y722340D1*
X1958291Y696297D2*
Y722340D1*
X1959286Y696297D2*
Y722340D1*
X1960282Y696297D2*
Y722340D1*
X1961277Y696297D2*
Y722340D1*
X1962273Y696297D2*
Y722340D1*
X1963281Y696297D2*
Y722340D1*
X1964277Y696297D2*
Y722340D1*
X1965272Y696297D2*
Y777314D1*
Y818318D2*
Y827324D1*
X1966294Y696297D2*
Y777314D1*
Y816860D2*
Y828534D1*
X1967289Y696297D2*
Y777314D1*
Y815609D2*
Y829538D1*
X1968285Y696297D2*
Y777314D1*
Y814591D2*
Y830459D1*
X1969280Y696297D2*
Y777314D1*
Y813807D2*
Y831188D1*
X1970287Y696297D2*
Y777314D1*
Y813189D2*
Y831765D1*
X1971283Y696297D2*
Y777314D1*
Y812803D2*
Y820352D1*
Y825289D2*
Y832205D1*
X1972278Y696297D2*
Y777314D1*
Y812501D2*
Y819472D1*
Y826114D2*
Y832591D1*
X1973274Y696297D2*
Y777314D1*
Y812404D2*
Y818757D1*
Y826692D2*
Y832934D1*
X1974269Y696297D2*
Y777314D1*
Y812364D2*
Y818029D1*
Y827076D2*
Y833071D1*
X1975291Y696297D2*
Y777314D1*
Y812308D2*
Y817299D1*
Y827118D2*
Y833071D1*
X1976286Y696297D2*
Y777314D1*
Y812364D2*
Y817974D1*
Y826692D2*
Y832879D1*
X1977295Y696297D2*
Y777314D1*
Y812501D2*
Y818606D1*
Y826059D2*
Y832591D1*
X1978290Y696297D2*
Y777314D1*
Y812748D2*
Y819335D1*
Y825329D2*
Y832302D1*
X1979286Y696297D2*
Y777314D1*
Y813189D2*
Y831916D1*
X1980281Y696297D2*
Y777314D1*
Y813766D2*
Y831476D1*
X1981276Y696297D2*
Y777314D1*
Y814535D2*
Y830899D1*
X1982272Y696297D2*
Y777314D1*
Y815361D2*
Y830171D1*
X1983280Y696297D2*
Y777314D1*
Y816131D2*
Y829441D1*
X1984276Y696297D2*
Y777314D1*
Y816722D2*
Y828919D1*
X1985297Y696297D2*
Y777314D1*
Y817052D2*
Y828575D1*
X1986293Y696297D2*
Y777314D1*
Y817203D2*
Y828424D1*
X1987287Y696297D2*
Y777314D1*
Y817299D2*
Y828382D1*
X1988283Y696297D2*
Y777314D1*
Y817299D2*
Y828328D1*
X1989278Y696297D2*
Y777314D1*
Y817299D2*
Y828328D1*
X1990287Y696297D2*
Y777314D1*
Y817299D2*
Y828328D1*
X1991282Y696297D2*
Y777314D1*
Y817299D2*
Y828328D1*
X1992277Y696297D2*
Y777314D1*
Y817299D2*
Y828328D1*
X1993273Y696297D2*
Y722340D1*
Y817299D2*
Y828328D1*
X1994268Y696297D2*
Y722340D1*
Y817108D2*
Y828382D1*
X1995290Y696297D2*
Y722340D1*
Y816722D2*
Y828575D1*
X1996285Y696297D2*
Y722340D1*
Y816034D2*
Y829249D1*
X1997294Y696297D2*
Y722340D1*
Y815265D2*
Y830073D1*
X1998289Y696297D2*
Y722340D1*
Y814440D2*
Y830803D1*
X1999285Y696297D2*
Y722340D1*
Y813766D2*
Y831476D1*
X2000280Y696297D2*
Y722340D1*
Y813189D2*
Y832013D1*
X2001274Y696297D2*
Y722340D1*
Y812748D2*
Y820352D1*
Y825289D2*
Y832493D1*
X2002270Y696297D2*
Y722340D1*
Y812501D2*
Y819528D1*
Y826114D2*
Y832879D1*
X2003278Y696297D2*
Y722340D1*
Y812404D2*
Y818950D1*
Y826692D2*
Y833126D1*
X2004287Y696297D2*
Y722340D1*
Y812364D2*
Y818606D1*
Y827021D2*
Y833223D1*
X2005297Y696297D2*
Y722340D1*
Y812308D2*
Y818454D1*
Y827172D2*
Y833264D1*
X2006291Y696297D2*
Y722340D1*
Y812364D2*
Y818551D1*
Y827076D2*
Y833126D1*
X2007286Y696297D2*
Y722340D1*
Y812501D2*
Y818895D1*
Y826787D2*
Y832879D1*
X2008282Y696297D2*
Y722340D1*
Y812748D2*
Y819335D1*
Y826306D2*
Y832591D1*
X2009277Y696297D2*
Y722340D1*
Y813189D2*
Y832260D1*
X2010286Y696297D2*
Y722340D1*
Y813766D2*
Y831765D1*
X2011281Y696297D2*
Y722340D1*
Y814535D2*
Y831092D1*
X2012276Y696297D2*
Y722340D1*
Y815361D2*
Y830266D1*
X2013272Y696297D2*
Y722340D1*
Y816131D2*
Y829496D1*
X2014294Y696297D2*
Y722340D1*
Y816722D2*
Y828919D1*
X2015289Y696297D2*
Y722340D1*
Y817052D2*
Y828575D1*
X2016283Y696297D2*
Y722340D1*
Y817203D2*
Y828424D1*
X2017280Y696297D2*
Y722340D1*
Y817299D2*
Y828382D1*
X2018287Y696297D2*
Y722340D1*
Y817299D2*
Y828328D1*
X2019283Y696297D2*
Y722340D1*
Y817299D2*
Y828328D1*
X2020278Y696297D2*
Y722340D1*
Y817299D2*
Y828328D1*
X2021273Y696297D2*
Y722340D1*
Y817299D2*
Y828328D1*
X2022269Y696297D2*
Y722340D1*
Y817299D2*
Y828328D1*
X2023277Y696297D2*
Y722340D1*
Y817299D2*
Y828328D1*
X2024286Y696297D2*
Y722340D1*
Y817299D2*
Y828382D1*
X2025295Y696297D2*
Y722340D1*
Y758297D2*
Y763329D1*
Y789318D2*
Y794308D1*
Y817108D2*
Y828534D1*
X2026290Y696297D2*
Y722340D1*
Y756413D2*
Y765117D1*
Y787392D2*
Y796097D1*
Y816722D2*
Y828919D1*
X2027285Y696297D2*
Y722340D1*
Y754818D2*
Y766726D1*
Y785839D2*
Y797692D1*
Y816034D2*
Y829538D1*
X2028281Y696297D2*
Y722340D1*
Y753552D2*
Y768031D1*
Y784533D2*
Y799052D1*
Y815223D2*
Y830266D1*
X2029276Y696297D2*
Y722340D1*
Y752591D2*
Y769188D1*
Y783419D2*
Y800207D1*
Y814302D2*
Y830899D1*
X2030285Y696297D2*
Y722340D1*
Y751916D2*
Y831476D1*
X2031280Y696297D2*
Y722340D1*
Y751421D2*
Y832054D1*
X2032274Y696297D2*
Y722340D1*
Y751037D2*
Y757471D1*
Y764113D2*
Y788507D1*
Y794255D2*
Y819472D1*
Y826114D2*
Y832493D1*
X2033297Y696297D2*
Y722340D1*
Y750706D2*
Y756757D1*
Y764690D2*
Y787778D1*
Y795134D2*
Y818757D1*
Y826692D2*
Y832879D1*
X2034293Y696297D2*
Y722340D1*
Y750500D2*
Y756220D1*
Y765021D2*
Y787241D1*
Y795711D2*
Y818029D1*
Y827021D2*
Y833126D1*
X2035287Y696297D2*
Y722340D1*
Y750404D2*
Y755836D1*
Y765172D2*
Y786802D1*
Y796097D2*
Y817299D1*
Y827172D2*
Y833168D1*
X2036282Y696297D2*
Y722340D1*
Y750404D2*
Y755877D1*
Y765172D2*
Y786898D1*
Y796097D2*
Y817974D1*
Y827172D2*
Y833126D1*
X2037278Y696297D2*
Y722340D1*
Y750500D2*
Y756413D1*
Y764732D2*
Y787434D1*
Y795711D2*
Y818647D1*
Y826732D2*
Y832879D1*
X2038286Y696297D2*
Y722340D1*
Y750748D2*
Y757280D1*
Y764058D2*
Y788259D1*
Y795079D2*
Y819472D1*
Y826059D2*
Y832591D1*
X2039282Y696297D2*
Y722340D1*
Y751133D2*
Y758297D1*
Y763329D2*
Y789318D1*
Y794308D2*
Y820298D1*
Y825329D2*
Y832302D1*
X2040277Y696297D2*
Y722340D1*
Y751614D2*
Y831916D1*
X2041272Y696297D2*
Y722340D1*
Y752109D2*
Y831283D1*
X2042268Y696297D2*
Y722340D1*
Y752783D2*
Y769146D1*
Y783364D2*
Y799301D1*
Y814344D2*
Y830459D1*
X2043290Y696297D2*
Y722340D1*
Y753705D2*
Y767936D1*
Y784533D2*
Y798131D1*
Y815512D2*
Y829441D1*
X2044285Y696297D2*
Y722340D1*
Y754915D2*
Y766630D1*
Y785839D2*
Y796770D1*
Y816860D2*
Y828382D1*
X2045294Y696297D2*
Y722340D1*
Y756316D2*
Y765323D1*
Y787337D2*
Y795327D1*
Y818318D2*
Y827324D1*
G36*
X2046773Y696312D2*
X2046769Y696247D1*
X2046756Y696184D1*
X2046735Y696122D1*
X2046706Y696064D1*
X2046670Y696010D1*
X2046627Y695961D1*
X2046578Y695918D1*
X2046524Y695882D1*
X2046466Y695853D1*
X2046404Y695832D1*
X2046341Y695819D1*
X2046276Y695815D1*
X2046211Y695819D1*
X2046147Y695832D1*
X2046085Y695853D1*
X2046027Y695882D1*
X2045973Y695918D1*
X2045924Y695961D1*
X2045881Y696010D1*
X2045845Y696064D1*
X2045816Y696122D1*
X2045795Y696184D1*
X2045782Y696247D1*
X2045778Y696312D1*
Y696335D1*
X2045782Y696400D1*
X2045795Y696463D1*
X2045816Y696525D1*
X2045845Y696583D1*
X2045881Y696637D1*
X2045924Y696686D1*
X2045973Y696729D1*
X2046027Y696765D1*
X2046085Y696794D1*
X2046147Y696815D1*
X2046211Y696828D1*
X2046276Y696832D1*
X2046341Y696828D1*
X2046404Y696815D1*
X2046466Y696794D1*
X2046524Y696765D1*
X2046578Y696729D1*
X2046627Y696686D1*
X2046670Y696637D1*
X2046706Y696583D1*
X2046735Y696525D1*
X2046756Y696463D1*
X2046769Y696400D1*
X2046773Y696335D1*
Y696312D1*
G37*
X1912282Y696297D2*
D23*
X1913277D1*
X1914273D1*
X1915281D1*
X1916277D1*
X1917299D1*
X1918294D1*
X1919289D1*
X1920285D1*
X1921280D1*
X1922274D1*
X1923283D1*
X1924278D1*
X1925274D1*
X1926269D1*
X1927291D1*
X1928286D1*
X1929282D1*
X1930290D1*
X1931286D1*
X1932281D1*
X1933276D1*
X1934272D1*
X1935280D1*
X1936276D1*
X1937298D1*
X1938293D1*
X1939287D1*
X1940283D1*
X1941278D1*
X1942273D1*
X1943282D1*
X1944277D1*
X1945273D1*
X1946295D1*
X1947290D1*
X1948285D1*
X1949281D1*
X1950289D1*
X1951285D1*
X1952280D1*
X1953276D1*
X1954270D1*
X1955265D1*
X1956287D1*
X1957297D1*
X1958291D1*
X1959286D1*
X1960282D1*
X1961277D1*
X1962273D1*
X1963281D1*
X1964277D1*
X1965272D1*
X1966294D1*
X1967289D1*
X1968285D1*
X1969280D1*
X1970287D1*
X1971283D1*
X1972278D1*
X1973274D1*
X1974269D1*
X1975291D1*
X1976286D1*
X1977295D1*
X1978290D1*
X1979286D1*
X1980281D1*
X1981276D1*
X1982272D1*
X1983280D1*
X1984276D1*
X1985297D1*
X1986293D1*
X1987287D1*
X1988283D1*
X1989278D1*
X1990287D1*
X1991282D1*
X1992277D1*
X1993273D1*
X1994268D1*
X1995290D1*
X1996285D1*
X1997294D1*
X1998289D1*
X1999285D1*
X2000280D1*
X2001274D1*
X2002270D1*
X2003278D1*
X2004287D1*
X2005297D1*
X2006291D1*
X2007286D1*
X2008282D1*
X2009277D1*
X2010286D1*
X2011281D1*
X2012276D1*
X2013272D1*
X2014294D1*
X2015289D1*
X2016283D1*
X2017280D1*
X2018287D1*
X2019283D1*
X2020278D1*
X2021273D1*
X2022269D1*
X2023277D1*
X2024286D1*
X2025295D1*
X2026290D1*
X2027285D1*
X2028281D1*
X2029276D1*
X2030285D1*
X2031280D1*
X2032274D1*
X2033297D1*
X2034293D1*
X2035287D1*
X2036282D1*
X2037278D1*
X2038286D1*
X2039282D1*
X2040277D1*
X2041272D1*
X2042268D1*
X2043290D1*
X2044285D1*
X2045294D1*
X2046289D1*
X1912282Y833319D2*
X1913277D1*
X1914273D1*
X1915281D1*
X1916277D1*
X1917299D1*
X1918294D1*
X1919289D1*
X1920285D1*
X1921280D1*
X1922274D1*
X1923283D1*
X1924278D1*
X1925274D1*
X1926269D1*
X1927291D1*
X1928286D1*
X1929282D1*
X1930290D1*
X1931286D1*
X1932281D1*
X1933276D1*
X1934272D1*
X1935280D1*
X1936276D1*
X1937298D1*
Y722340D2*
X1938293D1*
X1939287D1*
X1940283D1*
X1941278D1*
X1942273D1*
X1943282D1*
X1944277D1*
X1945273D1*
X1946295D1*
X1947290D1*
X1948285D1*
X1949281D1*
X1950289D1*
X1951285D1*
X1952280D1*
X1953276D1*
X1954270D1*
X1955265D1*
X1956287D1*
X1957297D1*
X1958291D1*
X1959286D1*
X1960282D1*
X1961277D1*
X1962273D1*
X1963281D1*
X1964277D1*
X1965272D1*
Y777314D2*
X1966294D1*
X1967289D1*
X1968285D1*
X1969280D1*
X1970287D1*
X1971283D1*
X1972278D1*
X1973274D1*
X1974269D1*
X1975291D1*
X1976286D1*
X1977295D1*
X1978290D1*
X1979286D1*
X1980281D1*
X1981276D1*
X1982272D1*
X1983280D1*
X1984276D1*
X1985297D1*
X1986293D1*
X1987287D1*
X1988283D1*
X1989278D1*
X1990287D1*
X1991282D1*
X1992277D1*
X1965272Y818318D2*
X1966294Y816860D1*
X1967289Y815609D1*
X1968285Y814591D1*
X1969280Y813807D1*
X1970287Y813189D1*
X1971283Y812803D1*
X1972278Y812501D1*
X1973274Y812404D1*
X1974269Y812364D1*
X1975291Y812308D1*
X1976286Y812364D1*
X1977295Y812501D1*
X1978290Y812748D1*
X1979286Y813189D1*
X1980281Y813766D1*
X1981276Y814535D1*
X1982272Y815361D1*
X1983280Y816131D1*
X1984276Y816722D1*
X1985297Y817052D1*
X1986293Y817203D1*
X1987287Y817299D1*
X1988283D1*
X1989278D1*
X1990287D1*
X1991282D1*
X1992277D1*
X1993273D1*
X1994268Y817108D1*
X1995290Y816722D1*
X1996285Y816034D1*
X1997294Y815265D1*
X1998289Y814440D1*
X1999285Y813766D1*
X2000280Y813189D1*
X2001274Y812748D1*
X2002270Y812501D1*
X2003278Y812404D1*
X2004287Y812364D1*
X2005297Y812308D1*
X2006291Y812364D1*
X2007286Y812501D1*
X2008282Y812748D1*
X2009277Y813189D1*
X2010286Y813766D1*
X2011281Y814535D1*
X2012276Y815361D1*
X2013272Y816131D1*
X2014294Y816722D1*
X2015289Y817052D1*
X2016283Y817203D1*
X2017280Y817299D1*
X2018287D1*
X2019283D1*
X2020278D1*
X2021273D1*
X2022269D1*
X2023277D1*
X2024286D1*
X2025295Y817108D1*
X2026290Y816722D1*
X2027285Y816034D1*
X2028281Y815223D1*
X2029276Y814302D1*
X2030285Y813325D1*
X1965272Y827324D2*
X1966294Y828534D1*
X1967289Y829538D1*
X1968285Y830459D1*
X1969280Y831188D1*
X1970287Y831765D1*
X1971283Y832205D1*
X1972278Y832591D1*
X1973274Y832934D1*
X1974269Y833071D1*
X1975291D1*
X1976286Y832879D1*
X1977295Y832591D1*
X1978290Y832302D1*
X1979286Y831916D1*
X1980281Y831476D1*
X1981276Y830899D1*
X1982272Y830171D1*
X1983280Y829441D1*
X1984276Y828919D1*
X1985297Y828575D1*
X1986293Y828424D1*
X1987287Y828382D1*
X1988283Y828328D1*
X1989278D1*
X1990287D1*
X1991282D1*
X1992277D1*
X1993273D1*
X1994268Y828382D1*
X1995290Y828575D1*
X1996285Y829249D1*
X1997294Y830073D1*
X1998289Y830803D1*
X1999285Y831476D1*
X2000280Y832013D1*
X2001274Y832493D1*
X2002270Y832879D1*
X2003278Y833126D1*
X2004287Y833223D1*
X2005297Y833264D1*
X2006291Y833126D1*
X2007286Y832879D1*
X2008282Y832591D1*
X2009277Y832260D1*
X2010286Y831765D1*
X2011281Y831092D1*
X2012276Y830266D1*
X2013272Y829496D1*
X2014294Y828919D1*
X2015289Y828575D1*
X2016283Y828424D1*
X2017280Y828382D1*
X2018287Y828328D1*
X2019283D1*
X2020278D1*
X2021273D1*
X2022269D1*
X2023277D1*
X2024286Y828382D1*
X2025295Y828534D1*
X2026290Y828919D1*
X2027285Y829538D1*
X2028281Y830266D1*
X2029276Y830899D1*
X2030285Y831476D1*
X2031280Y832054D1*
X2032274Y832493D1*
X2033297Y832879D1*
X2034293Y833126D1*
X2035287Y833168D1*
X2036282Y833126D1*
X2037278Y832879D1*
X2038286Y832591D1*
X2039282Y832302D1*
X2040277Y831916D1*
X2041272Y831283D1*
X2042268Y830459D1*
X2043290Y829441D1*
X2044285Y828382D1*
X2045294Y827324D1*
X1970287Y821315D2*
X1971283Y820352D1*
X1972278Y819472D1*
X1973274Y818757D1*
X1974269Y818029D1*
X1975291Y817299D1*
X1976286Y817974D1*
X1977295Y818606D1*
X1978290Y819335D1*
X1970287Y824312D2*
X1971283Y825289D1*
X1972278Y826114D1*
X1973274Y826692D1*
X1974269Y827076D1*
X1975291Y827118D1*
X1976286Y826692D1*
X1977295Y826059D1*
X1978290Y825329D1*
X1992277Y722340D2*
X1993273D1*
X1994268D1*
X1995290D1*
X1996285D1*
X1997294D1*
X1998289D1*
X1999285D1*
X2000280D1*
X2001274D1*
X2002270D1*
X2003278D1*
X2004287D1*
X2005297D1*
X2006291D1*
X2007286D1*
X2008282D1*
X2009277D1*
X2010286D1*
X2011281D1*
X2012276D1*
X2013272D1*
X2014294D1*
X2015289D1*
X2016283D1*
X2017280D1*
X2018287D1*
X2019283D1*
X2020278D1*
X2021273D1*
X2022269D1*
X2023277D1*
X2024286D1*
X2025295D1*
X2026290D1*
X2027285D1*
X2028281D1*
X2029276D1*
X2030285D1*
X2031280D1*
X2032274D1*
X2033297D1*
X2034293D1*
X2035287D1*
X2036282D1*
X2037278D1*
X2038286D1*
X2039282D1*
X2040277D1*
X2041272D1*
X2042268D1*
X2043290D1*
X2044285D1*
X2045294D1*
X2000280Y821315D2*
X2001274Y820352D1*
X2002270Y819528D1*
X2003278Y818950D1*
X2004287Y818606D1*
X2005297Y818454D1*
X2006291Y818551D1*
X2007286Y818895D1*
X2008282Y819335D1*
X2000280Y824312D2*
X2001274Y825289D1*
X2002270Y826114D1*
X2003278Y826692D1*
X2004287Y827021D1*
X2005297Y827172D1*
X2006291Y827076D1*
X2007286Y826787D1*
X2008282Y826306D1*
X2025295Y758297D2*
X2026290Y756413D1*
X2027285Y754818D1*
X2028281Y753552D1*
X2029276Y752591D1*
X2030285Y751916D1*
X2031280Y751421D1*
X2032274Y751037D1*
X2033297Y750706D1*
X2034293Y750500D1*
X2035287Y750404D1*
X2036282D1*
X2037278Y750500D1*
X2038286Y750748D1*
X2039282Y751133D1*
X2040277Y751614D1*
X2041272Y752109D1*
X2042268Y752783D1*
X2043290Y753705D1*
X2044285Y754915D1*
X2045294Y756316D1*
X2025295Y763329D2*
X2026290Y765117D1*
X2027285Y766726D1*
X2028281Y768031D1*
X2029276Y769188D1*
X2030285Y770301D1*
X2025295Y789318D2*
X2026290Y787392D1*
X2027285Y785839D1*
X2028281Y784533D1*
X2029276Y783419D1*
X2030285Y782304D1*
X2025295Y794308D2*
X2026290Y796097D1*
X2027285Y797692D1*
X2028281Y799052D1*
X2029276Y800207D1*
X2030285Y801322D1*
X2031280Y758297D2*
X2032274Y757471D1*
X2033297Y756757D1*
X2034293Y756220D1*
X2035287Y755836D1*
X2036282Y755877D1*
X2037278Y756413D1*
X2038286Y757280D1*
X2039282Y758297D1*
X2031280Y763329D2*
X2032274Y764113D1*
X2033297Y764690D1*
X2034293Y765021D1*
X2035287Y765172D1*
X2036282D1*
X2037278Y764732D1*
X2038286Y764058D1*
X2039282Y763329D1*
X2031280Y789318D2*
X2032274Y788507D1*
X2033297Y787778D1*
X2034293Y787241D1*
X2035287Y786802D1*
X2036282Y786898D1*
X2037278Y787434D1*
X2038286Y788259D1*
X2039282Y789318D1*
X2031280Y793346D2*
X2032274Y794255D1*
X2033297Y795134D1*
X2034293Y795711D1*
X2035287Y796097D1*
X2036282D1*
X2037278Y795711D1*
X2038286Y795079D1*
X2039282Y794308D1*
X2031280Y820298D2*
X2032274Y819472D1*
X2033297Y818757D1*
X2034293Y818029D1*
X2035287Y817299D1*
X2036282Y817974D1*
X2037278Y818647D1*
X2038286Y819472D1*
X2039282Y820298D1*
X2031280Y825329D2*
X2032274Y826114D1*
X2033297Y826692D1*
X2034293Y827021D1*
X2035287Y827172D1*
X2036282D1*
X2037278Y826732D1*
X2038286Y826059D1*
X2039282Y825329D1*
X2041272Y770301D2*
X2042268Y769146D1*
X2043290Y767936D1*
X2044285Y766630D1*
X2045294Y765323D1*
X2041272Y782304D2*
X2042268Y783364D1*
X2043290Y784533D1*
X2044285Y785839D1*
X2045294Y787337D1*
X2041272Y800304D2*
X2042268Y799301D1*
X2043290Y798131D1*
X2044285Y796770D1*
X2045294Y795327D1*
X2041272Y813325D2*
X2042268Y814344D1*
X2043290Y815512D1*
X2044285Y816860D1*
X2045294Y818318D1*
X483004Y538899D2*
D34*
X523196D1*
X483004Y525502D2*
Y552296D1*
X488753Y596589D2*
X484906Y592786D1*
X483004Y587038D1*
Y579389D1*
X484906Y573641D1*
X488753Y569794D1*
X492555D1*
X496402Y571740D1*
X498303Y573641D1*
X500204Y577444D1*
X504051Y588940D1*
X505952Y592786D1*
X507898Y594688D1*
X511700Y596589D1*
X517448D1*
X521251Y592786D1*
X523196Y587038D1*
Y579389D1*
X521251Y573641D1*
X517448Y569794D1*
X483004Y625583D2*
X484906Y621736D1*
X488753Y617933D1*
X492555Y615988D1*
X498303Y614087D1*
X507898D1*
X513602Y615988D1*
X517448Y617933D1*
X521251Y621736D1*
X523196Y625583D1*
Y633232D1*
X521251Y637035D1*
X517448Y640881D1*
X513602Y642783D1*
X507898Y644684D1*
X498303D1*
X492555Y642783D1*
X488753Y640881D1*
X484906Y637035D1*
X483004Y633232D1*
Y625583D1*
X504051Y662182D2*
Y679426D1*
X502150Y685130D1*
X500204Y687075D1*
X496402Y688976D1*
X490654D1*
X486851Y687075D1*
X484906Y685130D1*
X483004Y679426D1*
Y662182D1*
X523196D1*
X483049Y710321D2*
Y731323D1*
X498347Y719872D1*
Y725620D1*
X500249Y729422D1*
X502150Y731323D1*
X507898Y733269D1*
X511700D1*
X517448Y731323D1*
X521295Y727521D1*
X523196Y721773D1*
Y716025D1*
X521295Y710321D1*
X519350Y708420D1*
X515547Y706474D1*
X492599Y752712D2*
X490698D1*
X486851Y754613D1*
X484950Y756515D1*
X483049Y760361D1*
Y768011D1*
X484950Y771813D1*
X486851Y773715D1*
X490698Y775660D1*
X494501D1*
X498347Y773715D1*
X504051Y769912D1*
X523196Y750767D1*
Y777561D1*
X503123Y795059D2*
Y817167D1*
X483004Y834665D2*
X523196D1*
Y848062D1*
X521251Y853810D1*
X517448Y857657D1*
X513602Y859558D1*
X507898Y861459D1*
X498303D1*
X492555Y859558D1*
X488753Y857657D1*
X484906Y853810D1*
X483004Y848062D1*
Y834665D1*
Y878957D2*
X523196D1*
X504051Y896455D2*
Y913699D1*
X502150Y919403D1*
X500204Y921349D1*
X496402Y923250D1*
X490654D1*
X486851Y921349D1*
X484906Y919403D1*
X483004Y913699D1*
Y896455D1*
X523196D1*
X483049Y944594D2*
Y965597D1*
X498347Y954145D1*
Y959893D1*
X500249Y963696D1*
X502150Y965597D1*
X507898Y967542D1*
X511700D1*
X517448Y965597D1*
X521295Y961794D1*
X523196Y956046D1*
Y950298D1*
X521295Y944594D1*
X519350Y942693D1*
X515547Y940748D1*
X492599Y986986D2*
X490698D1*
X486851Y988887D1*
X484950Y990788D1*
X483049Y994635D1*
Y1002284D1*
X484950Y1006087D1*
X486851Y1007988D1*
X490698Y1009933D1*
X494501D1*
X498347Y1007988D1*
X504051Y1004185D1*
X523196Y985040D1*
Y1011835D1*
M02*
