G04 DipTrace 3.0.0.2*
G04 Bottom.gbr*
%MOIN*%
G04 #@! TF.FileFunction,Copper,L2,Bot*
G04 #@! TF.Part,Single*
G04 #@! TA.AperFunction,Conductor*
%ADD13C,0.007874*%
G04 #@! TA.AperFunction,ComponentPad*
%ADD16R,0.059055X0.059055*%
%ADD17C,0.059055*%
G04 #@! TA.AperFunction,ViaPad*
%ADD19C,0.03937*%
%FSLAX26Y26*%
G04*
G70*
G90*
G75*
G01*
G04 Bottom*
%LPD*%
X1100000Y961417D2*
D13*
Y914961D1*
X1084252Y899213D1*
Y814173D1*
X1143307Y755118D1*
X1293701D1*
X1479528Y940945D1*
X1868898D1*
X1995669Y1067717D1*
X1234646Y972441D2*
X1306299D1*
X1333071Y999213D1*
X1241732Y901575D2*
Y910236D1*
X1294488D1*
X1333071Y948819D1*
X1131496Y870079D2*
Y816535D1*
X1174803Y773228D1*
X1275591D1*
X1480315Y977953D1*
X1605906D1*
X1695669Y1067717D1*
X1178740Y852756D2*
Y816535D1*
X1196063Y799213D1*
X1269291D1*
X1472441Y1002362D1*
X1534646D1*
X1595669Y1063386D1*
Y1067717D1*
X1226772Y837008D2*
X1277165D1*
X1507874Y1067717D1*
X1495669D1*
X1791339Y851181D2*
Y563386D1*
X1695669Y467717D1*
X1741732Y828346D2*
Y613780D1*
X1595669Y467717D1*
X1694488Y800787D2*
Y666535D1*
X1495669Y467717D1*
X1363780Y769291D2*
Y499606D1*
X1395669Y467717D1*
X1295669Y653150D2*
Y467717D1*
X1422047Y726772D2*
Y531496D1*
X1445669Y507874D1*
Y443307D1*
X1424409Y422047D1*
X1241339D1*
X1195669Y467717D1*
D19*
X1100000Y961417D3*
X1234646Y972441D3*
X1333071Y999213D3*
X1241732Y901575D3*
X1333071Y948819D3*
X1131496Y870079D3*
X1178740Y852756D3*
X1226772Y837008D3*
X1791339Y851181D3*
X1741732Y828346D3*
X1694488Y800787D3*
X1363780Y769291D3*
X1295669Y653150D3*
X1422047Y726772D3*
D16*
X495669Y467717D3*
D17*
X595669D3*
X695669D3*
X795669D3*
X895669D3*
X995669D3*
X1095669D3*
X1195669D3*
X1295669D3*
X1395669D3*
X1495669D3*
X1595669D3*
X1695669D3*
X1795669D3*
X1895669D3*
X1995669D3*
Y1067717D3*
X1895669D3*
X1795669D3*
X1695669D3*
X1595669D3*
X1495669D3*
X1395669D3*
X1295669D3*
X1195669D3*
X1095669D3*
X995669D3*
X895669D3*
X795669D3*
X695669D3*
X595669D3*
X495669D3*
M02*
