M48
INCH
T01C0.0197
T02C0.0354
%
T01
X+011000Y+009614
X+011315Y+008701
X+011787Y+008528
X+012268Y+008370
X+012417Y+009016
X+012346Y+009724
X+013331Y+009488
X+013331Y+009992
X+013638Y+007693
X+014220Y+007268
X+012957Y+006531
X+016945Y+008008
X+017417Y+008283
X+017913Y+008512
T02
X+004957Y+004677
X+005957Y+004677
X+006957Y+004677
X+007957Y+004677
X+008957Y+004677
X+009957Y+004677
X+010957Y+004677
X+011957Y+004677
X+012957Y+004677
X+013957Y+004677
X+014957Y+004677
X+015957Y+004677
X+016957Y+004677
X+017957Y+004677
X+018957Y+004677
X+019957Y+004677
X+019957Y+010677
X+018957Y+010677
X+017957Y+010677
X+016957Y+010677
X+015957Y+010677
X+014957Y+010677
X+013957Y+010677
X+012957Y+010677
X+011957Y+010677
X+010957Y+010677
X+009957Y+010677
X+008957Y+010677
X+007957Y+010677
X+006957Y+010677
X+005957Y+010677
X+004957Y+010677
T00
M30
