G04 DipTrace 3.0.0.2*
G04 TopPaste.gbr*
%MOIN*%
G04 #@! TF.FileFunction,Paste,Top*
G04 #@! TF.Part,Single*
%ADD25R,0.055118X0.003937*%
%ADD31R,0.055118X0.0*%
%FSLAX26Y26*%
G04*
G70*
G90*
G75*
G01*
G04 TopPaste*
%LPD*%
D31*
X1627559Y620079D3*
Y639764D3*
Y659449D3*
Y679134D3*
Y698819D3*
Y718504D3*
Y738189D3*
Y757874D3*
Y777559D3*
Y797244D3*
Y816929D3*
Y836614D3*
Y856299D3*
Y875984D3*
Y895669D3*
Y915354D3*
X863780D3*
Y895669D3*
Y875984D3*
Y856299D3*
Y836614D3*
Y816929D3*
Y797244D3*
Y777559D3*
Y757874D3*
Y738189D3*
Y718504D3*
Y698819D3*
Y679134D3*
Y659449D3*
Y639764D3*
Y620079D3*
D25*
X1544886D3*
Y639764D3*
Y659449D3*
Y679134D3*
Y698819D3*
Y718504D3*
Y738189D3*
Y757874D3*
Y777559D3*
Y797244D3*
Y816929D3*
Y836614D3*
Y856299D3*
Y875984D3*
Y895669D3*
Y915354D3*
X946453D3*
X946461Y895669D3*
Y875984D3*
Y856299D3*
Y836614D3*
Y816929D3*
Y797244D3*
Y777559D3*
Y757874D3*
Y738189D3*
Y718504D3*
Y698819D3*
Y679134D3*
Y659449D3*
Y639764D3*
Y620079D3*
X1505512D3*
Y639764D3*
Y659449D3*
Y679134D3*
Y698819D3*
Y718504D3*
Y738189D3*
Y757874D3*
Y777559D3*
Y797244D3*
Y816929D3*
Y836614D3*
Y856299D3*
Y875984D3*
Y895669D3*
Y915354D3*
X985827D3*
Y895669D3*
Y875984D3*
Y856299D3*
Y836614D3*
Y816929D3*
Y797244D3*
Y777559D3*
Y757874D3*
Y738189D3*
Y718504D3*
Y698819D3*
Y679134D3*
Y659449D3*
Y639764D3*
Y620079D3*
M02*
