G04 DipTrace 3.0.0.2*
G04 TopSilk.gbr*
%MOIN*%
G04 #@! TF.FileFunction,Legend,Top*
G04 #@! TF.Part,Single*
%ADD10C,0.009843*%
%ADD33C,0.008749*%
%FSLAX26Y26*%
G04*
G70*
G90*
G75*
G01*
G04 TopSilk*
%LPD*%
X1580264Y610226D2*
D10*
Y925215D1*
X910992D1*
Y610226D1*
X1210201D1*
X1281138D2*
X1580264D1*
X1281138D2*
G03X1210201Y610226I-35469J-32D01*
G01*
X430709Y514969D2*
X2060630D1*
X430709Y1018882D2*
X2060630D1*
Y514969D2*
Y1018882D1*
X430709Y514969D2*
Y735423D1*
Y1018882D2*
Y798429D1*
Y735423D2*
G03X430709Y798429I-45J31503D01*
G01*
X1497606Y610222D2*
Y925211D1*
X993732Y610222D2*
Y925211D1*
X1497606D2*
X993732D1*
X1497606Y610222D2*
X1277153D1*
X1214185D2*
X993732D1*
X1277153D2*
G03X1214185Y610222I-31484J47D01*
G01*
X1458288D2*
Y925211D1*
X1033050D1*
Y610222D1*
X1222071D1*
X1458288D2*
X1269268D1*
G03X1222071Y610222I-23598J57D01*
G01*
X483005Y538899D2*
D33*
X523197D1*
X483004Y525502D2*
X483005Y552297D1*
X488753Y596589D2*
X484906Y592786D1*
X483005Y587038D1*
Y579389D1*
X484906Y573641D1*
X488753Y569794D1*
X492555D1*
X496402Y571740D1*
X498303Y573641D1*
X500204Y577444D1*
X504051Y588940D1*
X505952Y592786D1*
X507898Y594688D1*
X511700Y596589D1*
X517448D1*
X521251Y592786D1*
X523197Y587038D1*
Y579389D1*
X521251Y573641D1*
X517448Y569794D1*
X483005Y625583D2*
X484906Y621736D1*
X488753Y617934D1*
X492555Y615988D1*
X498303Y614087D1*
X507898D1*
X513602Y615988D1*
X517448Y617933D1*
X521251Y621736D1*
X523196Y625583D1*
Y633232D1*
X521251Y637035D1*
X517448Y640881D1*
X513602Y642783D1*
X507898Y644684D1*
X498303D1*
X492555Y642783D1*
X488753Y640881D1*
X484906Y637035D1*
X483005Y633232D1*
Y625583D1*
X504051Y662182D2*
Y679426D1*
X502150Y685130D1*
X500204Y687075D1*
X496402Y688976D1*
X490654D1*
X486851Y687075D1*
X484906Y685130D1*
X483005Y679426D1*
Y662182D1*
X523196D1*
X483049Y710321D2*
Y731323D1*
X498347Y719872D1*
Y725620D1*
X500249Y729422D1*
X502150Y731323D1*
X507898Y733269D1*
X511700D1*
X517448Y731323D1*
X521295Y727521D1*
X523196Y721773D1*
Y716025D1*
X521295Y710321D1*
X519350Y708420D1*
X515547Y706474D1*
X492599Y752712D2*
X490698D1*
X486851Y754613D1*
X484950Y756515D1*
X483049Y760362D1*
Y768011D1*
X484950Y771813D1*
X486851Y773715D1*
X490698Y775660D1*
X494501D1*
X498347Y773715D1*
X504051Y769912D1*
X523196Y750767D1*
Y777561D1*
X503123Y795059D2*
Y817167D1*
X483004Y834665D2*
X523196D1*
Y848062D1*
X521251Y853810D1*
X517448Y857657D1*
X513602Y859558D1*
X507898Y861459D1*
X498303D1*
X492555Y859558D1*
X488753Y857657D1*
X484906Y853810D1*
X483004Y848062D1*
Y834665D1*
Y878957D2*
X523196D1*
X504051Y896455D2*
Y913699D1*
X502150Y919403D1*
X500204Y921349D1*
X496402Y923250D1*
X490654D1*
X486851Y921349D1*
X484906Y919403D1*
X483004Y913699D1*
Y896455D1*
X523196D1*
X483049Y944594D2*
Y965597D1*
X498347Y954145D1*
Y959893D1*
X500249Y963696D1*
X502150Y965597D1*
X507898Y967542D1*
X511700D1*
X517448Y965597D1*
X521295Y961794D1*
X523196Y956046D1*
Y950298D1*
X521295Y944594D1*
X519350Y942693D1*
X515547Y940748D1*
X492599Y986986D2*
X490698D1*
X486851Y988887D1*
X484950Y990788D1*
X483049Y994635D1*
Y1002284D1*
X484950Y1006087D1*
X486851Y1007988D1*
X490698Y1009933D1*
X494501D1*
X498347Y1007988D1*
X504051Y1004185D1*
X523196Y985040D1*
Y1011835D1*
M02*
