G04 DipTrace 4.1.3.1*
G04 1 - Top.gbr*
%MOIN*%
G04 #@! TF.FileFunction,Copper,L1,Top*
G04 #@! TF.Part,Single*
G04 #@! TA.AperFunction,CopperBalancing*
%ADD15C,0.011024*%
%ADD16C,0.019685*%
%ADD17C,0.03937*%
%ADD18R,0.051181X0.059055*%
%ADD19R,0.059055X0.051181*%
%ADD20R,0.088583X0.070866*%
G04 #@! TA.AperFunction,ComponentPad*
%ADD21O,0.07874X0.055118*%
%ADD22O,0.125984X0.051181*%
%ADD23C,0.059055*%
%ADD24R,0.070866X0.019685*%
%ADD25R,0.019685X0.070866*%
G04 #@! TA.AperFunction,ComponentPad*
%ADD27C,0.051181*%
%ADD28R,0.059055X0.059055*%
%ADD29C,0.055118*%
%ADD31C,0.059055*%
%FSLAX26Y26*%
G04*
G70*
G90*
G75*
G01*
G04 Top*
%LPD*%
X1377953Y950787D2*
D15*
X1466535D1*
X1562992D1*
X1564961Y952756D1*
X1783465Y911417D2*
X1714567D1*
X1675197Y950787D1*
X1566929D1*
X1564961Y952756D1*
X2007874Y1135827D2*
Y994094D1*
X1992126Y978346D1*
Y909449D2*
X1783465D1*
Y911417D1*
X2232283D2*
Y915354D1*
X2082677D1*
X2039370Y687008D2*
Y801181D1*
X2082677Y844488D1*
X1377953Y950787D2*
X1334646D1*
X1314961Y931102D1*
Y769685D1*
Y657874D1*
X1360236Y612598D1*
X2232283Y911417D2*
Y913386D1*
X2568898D1*
X2854331D1*
X2879921Y938976D1*
Y1011811D1*
X2921260Y1053150D1*
X3015748D1*
X3118110Y1145669D2*
X2897638D1*
X2838583Y1086614D1*
X3118110Y685039D2*
X2956693D1*
X2899606Y742126D1*
X2836614D1*
X1466535Y994094D2*
Y950787D1*
X524016Y862598D2*
X529134D1*
X582677Y809055D1*
X875984D1*
X950787Y883858D1*
X3001969Y1309055D2*
X3076772D1*
X3129921Y1255906D1*
Y1157480D1*
X3118110Y1145669D1*
X2568898Y858268D2*
Y913386D1*
X1496063Y769685D2*
X1314961D1*
X3007874Y474409D2*
X3072835D1*
X3118110Y519685D1*
Y685039D1*
X2494094Y866142D2*
Y858268D1*
X2102362Y687008D2*
Y641732D1*
X2127953Y616142D1*
X2156693D1*
X2160236Y612598D1*
X868110Y466535D2*
X874016D1*
Y712598D1*
X924016Y762598D1*
X2232283Y816929D2*
X2354331D1*
X2456693Y714567D1*
X2564961D1*
X2660236Y619291D1*
Y612598D1*
X1024016Y862598D2*
X1042913D1*
X1088583Y816929D1*
X1204724D1*
X1240157Y781496D1*
Y582677D1*
X1305118Y517717D1*
X2649606D1*
X2661417Y505906D1*
X2232283Y974409D2*
X2712598D1*
X2734252Y952756D1*
X2816929D1*
X2820866Y956693D1*
X1024016Y962598D2*
X1027559D1*
X1070866Y919291D1*
X1212598D1*
X1287402Y844488D1*
Y606299D1*
X1328740Y564961D1*
X2812598D1*
X2860236Y612598D1*
X2232283Y848425D2*
X2356299D1*
X2460630Y744094D1*
X2633858D1*
X2759843Y618110D1*
Y624016D1*
X2771260Y612598D1*
X2760236D1*
X1124016Y862598D2*
X1220079D1*
X1261811Y820866D1*
Y596457D1*
X1316929Y541339D1*
X2899606D1*
X2917323Y559055D1*
Y649606D1*
X2899606Y667323D1*
X2814961D1*
X2760236Y612598D1*
X2232283Y785433D2*
X2354331D1*
X2448819Y690945D1*
X2490157D1*
X2560236Y620866D1*
Y612598D1*
X1124016Y762598D2*
X1129134D1*
X1196850Y694882D1*
Y590551D1*
X1293307Y494094D1*
X2549213D1*
X2561024Y482283D1*
X2232283Y753937D2*
X2326772D1*
X2468110Y612598D1*
X2460236D1*
X1024016Y662598D2*
X1044094D1*
X1263780Y442913D1*
X2309055D1*
X2332677Y419291D1*
X2425197D1*
X2460630Y454724D1*
X2165354Y687008D2*
X2285827D1*
X2360236Y612598D1*
X1024016Y762598D2*
X1032677D1*
X1100394Y694882D1*
Y651575D1*
X1281496Y470472D1*
X2346457D1*
X2360236Y456693D1*
X2133858Y687008D2*
Y740157D1*
X2122047Y751969D1*
X925197Y435039D2*
Y663780D1*
X924016Y662598D1*
X2070866Y687008D2*
Y623228D1*
X2060236Y612598D1*
X814961Y653543D2*
X824016Y662598D1*
X820866D1*
Y496063D1*
X1976378Y687008D2*
Y628740D1*
X1960236Y612598D1*
X732283Y486220D2*
X738189Y480315D1*
X773622Y515748D1*
Y712205D1*
X824016Y762598D1*
X1944882Y687008D2*
Y748031D1*
X1954724Y757874D1*
X724409Y537402D2*
Y662992D1*
X724016Y662598D1*
X1913386Y687008D2*
Y750000D1*
X1906496Y756890D1*
X521654Y631890D2*
Y653543D1*
X578740Y710630D1*
X672047D1*
X724016Y762598D1*
X1881890Y687008D2*
Y732283D1*
X1856299Y757874D1*
X1850394Y687008D2*
X1634646D1*
X1560236Y612598D1*
X1783465Y753937D2*
X1732283D1*
X1690945Y712598D1*
X1576772D1*
X1476772Y612598D1*
X1460236D1*
X1909449Y860236D2*
X1877953D1*
X1834646Y816929D1*
X1783465D1*
Y1005906D2*
X1716535D1*
X1580709Y1141732D1*
X1427165D1*
X1360236Y1208661D1*
Y1212598D1*
X624016Y862598D2*
X628346D1*
X787402Y1021654D1*
X1226378D1*
X1358268Y1153543D1*
Y1212598D1*
X1360236D1*
X1783465Y1037402D2*
X1716535D1*
X1586614Y1167323D1*
X1503937D1*
X1460236Y1211024D1*
Y1212598D1*
X1418898Y1253937D1*
X1330709D1*
X1301181Y1224409D1*
X805118D1*
X783465Y1202756D1*
Y1137795D1*
X748031Y1102362D1*
X702756D1*
X675197Y1074803D1*
Y1041339D1*
X643701Y1009843D1*
X578740D1*
X531496Y962598D1*
X524016D1*
X1783465Y1068898D2*
X1722441D1*
X1578740Y1212598D1*
X1560236D1*
X624016Y962598D2*
X688976D1*
X775591Y1049213D1*
Y1078740D1*
X799213Y1102362D1*
X1242126D1*
X1305118Y1165354D1*
X1850394Y1135827D2*
X1737008D1*
X1660236Y1212598D1*
Y1219685D1*
X1602362Y1277559D1*
X1320866D1*
X1287402Y1244094D1*
X795276D1*
X763780Y1212598D1*
Y1145669D1*
X740157Y1122047D1*
X681102D1*
X663386Y1104331D1*
X565748D1*
X524016Y1062598D1*
X1881890Y1135827D2*
Y1076772D1*
X624016Y1162598D2*
X656693D1*
X779528Y1285433D1*
X1269685D1*
X1301181Y1316929D1*
X1655906D1*
X1760236Y1212598D1*
X1913386Y1135827D2*
Y1188976D1*
X1895669Y1206693D1*
X1866142D1*
X1860236Y1212598D1*
X1226378Y1155512D2*
X1177165Y1204724D1*
X903543D1*
X874016Y1175197D1*
Y1135827D1*
X1944882D2*
Y1197244D1*
X1960236Y1212598D1*
X724016Y1162598D2*
Y1200394D1*
X789370Y1265748D1*
X1281496D1*
X1312992Y1297244D1*
X1645669D1*
X1708661Y1234252D1*
Y1200787D1*
X1746063Y1163386D1*
X1787402D1*
X1812992Y1188976D1*
Y1236220D1*
X1834646Y1257874D1*
X1914961D1*
X1960236Y1212598D1*
X1976378Y1135827D2*
X1972441D1*
Y1057087D1*
X2070866Y1135827D2*
Y1061024D1*
X2076772Y1055118D1*
X559055Y1206693D2*
X667323D1*
X765748Y1305118D1*
X1255906D1*
X1287402Y1336614D1*
X1669291D1*
X1726378Y1279528D1*
X2093307D1*
X2160236Y1212598D1*
X2102362Y1135827D2*
Y1082677D1*
X2116142Y1068898D1*
Y1011811D1*
X2655512Y1277559D2*
X2657480Y1279528D1*
X2625984Y1311024D1*
X2480315D1*
X2413386Y1244094D1*
Y1200787D1*
X2377953Y1165354D1*
X2307480D1*
X2260236Y1212598D1*
X2133858Y1135827D2*
Y1088583D1*
X2157480Y1064961D1*
X600394Y1255906D2*
X675197D1*
X744094Y1324803D1*
X1240157D1*
X1275591Y1360236D1*
X1679134D1*
X1736220Y1303150D1*
X2269685D1*
X2360236Y1212598D1*
X2165354Y1135827D2*
X2383465D1*
X2460236Y1212598D1*
X2596457Y1275591D2*
X2523228D1*
X2460236Y1212598D1*
X2232283Y1068898D2*
X2416535D1*
X2560236Y1212598D1*
X1660472Y889764D2*
X1576772D1*
X1564961Y877953D1*
X1783465Y879921D2*
X1670315D1*
X1660472Y889764D1*
X2232283Y1037402D2*
X2485039D1*
X2660236Y1212598D1*
X1470472Y889764D2*
X1391732D1*
X1377953Y875984D1*
X1783465Y848425D2*
X1710630D1*
X1685039Y822835D1*
X1488189D1*
X1466535Y844488D1*
Y889764D1*
X1470472D1*
X2232283Y1005906D2*
X2557087D1*
X2755906Y1204724D1*
Y1208268D1*
X2760236Y1212598D1*
X2039370Y1135827D2*
Y942913D1*
Y879921D1*
Y858268D1*
X2028883Y847781D1*
X2009843Y828740D1*
Y688976D1*
X2007874Y687008D1*
X2232283Y879921D2*
X2039370D1*
X1783465Y942913D2*
X1915354D1*
X2039370D1*
X1915354Y980315D2*
Y942913D1*
X2232283Y879921D2*
X2358268D1*
X2452756Y785433D1*
X2657480D1*
X2751969Y879921D1*
X2820866D1*
X2923228Y777559D1*
X2940365D1*
X3015748D1*
X2940365D2*
Y1002549D1*
X2938976Y1003937D1*
X1783465Y942913D2*
X1714567D1*
X1655512Y1001969D1*
X1553150D1*
X1513780Y1041339D1*
Y1098425D1*
X1500000Y1112205D1*
X1466535D1*
X1362205D1*
X1214567Y964567D1*
X1125984D1*
X1124016Y962598D1*
X1466535Y1068898D2*
Y1112205D1*
X1124016Y962598D2*
Y970472D1*
X1092520Y1001969D1*
X994094D1*
X950787Y958661D1*
X2860236Y1212598D2*
X2980315D1*
X3001969Y1234252D1*
X2028883Y847781D2*
X1984896D1*
X1976378Y856299D1*
X1570866Y771654D2*
Y769685D1*
X3007874Y588583D2*
D3*
X1889764Y811024D2*
X1862205D1*
X1834646Y783465D1*
X1785433D1*
X1783465Y785433D1*
Y974409D2*
X1844488D1*
X1846457Y976378D1*
X1783465Y974409D2*
X1716535D1*
X1663386Y1027559D1*
X1618110D1*
X1561024Y1084646D1*
X2761811Y1007874D2*
Y1084646D1*
X2763780Y1086614D1*
X2761811Y742126D2*
Y817874D1*
D17*
X1992126Y978346D3*
Y909449D3*
X2082677Y915354D3*
Y844488D3*
Y915354D3*
X2494094Y866142D3*
X868110Y466535D3*
X2661417Y505906D3*
X2820866Y956693D3*
X2561024Y482283D3*
X2460630Y454724D3*
X2360236Y456693D3*
X2122047Y751969D3*
X925197Y435039D3*
X820866Y496063D3*
X732283Y486220D3*
X1954724Y757874D3*
X724409Y537402D3*
X1906496Y756890D3*
X521654Y631890D3*
X1856299Y757874D3*
X1909449Y860236D3*
X1305118Y1165354D3*
X1881890Y1076772D3*
X1226378Y1155512D3*
X874016Y1135827D3*
X1972441Y1057087D3*
D3*
X2076772Y1055118D3*
X559055Y1206693D3*
X2116142Y1011811D3*
X2655512Y1277559D3*
X2157480Y1064961D3*
X600394Y1255906D3*
X2596457Y1275591D3*
X1915354Y980315D3*
X2938976Y1003937D3*
X1976378Y856299D3*
X1570866Y771654D3*
X3007874Y588583D3*
D3*
X1889764Y811024D3*
X1846457Y976378D3*
X523156Y1380052D2*
X703827D1*
X1756752D2*
X2907886D1*
X484913Y1340814D2*
X662663D1*
X2329463D2*
X2412633D1*
X2708963D2*
X2907886D1*
X3096051D2*
X3137236D1*
X446619Y1301575D2*
X530404D1*
X2736083D2*
X2907886D1*
X3096051D2*
X3176504D1*
X417323Y1262336D2*
X497185D1*
X3096051D2*
X3206698D1*
X417323Y1223097D2*
X476475D1*
X417323Y1183858D2*
X478115D1*
X417323Y1144619D2*
X493495D1*
X417323Y1105381D2*
X445205D1*
X417323Y1066142D2*
X433927D1*
X3192734D2*
X3206698D1*
X417323Y1026903D2*
X441617D1*
X417323Y987664D2*
X437567D1*
X417323Y948425D2*
X435055D1*
X3182789D2*
X3206698D1*
X417323Y909186D2*
X447512D1*
X3113173D2*
X3206698D1*
X417323Y869948D2*
X434184D1*
X3192067D2*
X3206698D1*
X417323Y830709D2*
X439976D1*
X417323Y791470D2*
X438848D1*
X417323Y752231D2*
X434491D1*
X1357463D2*
X1405927D1*
X417323Y712992D2*
X449562D1*
X1357463D2*
X1405927D1*
X417323Y673753D2*
X449152D1*
X417323Y634514D2*
X437465D1*
X417323Y595276D2*
X446230D1*
X3114762D2*
X3206698D1*
X417323Y556037D2*
X491341D1*
X551966D2*
X642362D1*
X995238D2*
X1053185D1*
X3114762D2*
X3201264D1*
X457642Y516798D2*
X642824D1*
X995238D2*
X1092453D1*
X3114762D2*
X3161535D1*
X498446Y477559D2*
X648514D1*
X997289D2*
X1131669D1*
X539201Y438320D2*
X663894D1*
X1009386D2*
X1170937D1*
X2708759D2*
X2897068D1*
X1409824Y789764D2*
X1353537D1*
X1353543Y700490D1*
X1361978Y700770D1*
X1372438Y699940D1*
X1382724Y697871D1*
X1392693Y694597D1*
X1402202Y690163D1*
X1409840Y685504D1*
X1409843Y789774D1*
X3106465Y915308D2*
X3109457Y908591D1*
X3118110Y909055D1*
X3130982Y908042D1*
X3143537Y905028D1*
X3155466Y900087D1*
X3166475Y893340D1*
X3176294Y884955D1*
X3184678Y875136D1*
X3191425Y864127D1*
X3196366Y852198D1*
X3199381Y839643D1*
X3200394Y826772D1*
X3199381Y813900D1*
X3196366Y801345D1*
X3191425Y789416D1*
X3184678Y778407D1*
X3176379Y768681D1*
X3186797Y765383D1*
X3196324Y760988D1*
X3205247Y755469D1*
X3210650Y751312D1*
X3210630Y1079366D1*
X3201765Y1072906D1*
X3192584Y1067825D1*
X3182854Y1063899D1*
X3176387Y1062024D1*
X3184678Y1052302D1*
X3191425Y1041293D1*
X3196366Y1029364D1*
X3199381Y1016808D1*
X3200394Y1003937D1*
X3199381Y991066D1*
X3196366Y978510D1*
X3191425Y966581D1*
X3184678Y955572D1*
X3176294Y945753D1*
X3166475Y937369D1*
X3155466Y930622D1*
X3143537Y925681D1*
X3130982Y922667D1*
X3118110Y921654D1*
X3109524Y922159D1*
X3106465Y915400D1*
X3210644Y618757D2*
X3201765Y612276D1*
X3192584Y607196D1*
X3182854Y603269D1*
X3172720Y600554D1*
X3162331Y599089D1*
X3145013Y598819D1*
X3110820D1*
X3110827Y462789D1*
X3210621Y561366D1*
X3210630Y618715D1*
X1035902Y577249D2*
X1024016Y576378D1*
X1010528Y577440D1*
X997373Y580598D1*
X991343Y582822D1*
X991339Y480617D1*
X996759Y471501D1*
X1001581Y459858D1*
X1004524Y447604D1*
X1005512Y435039D1*
X1004524Y422475D1*
X1003018Y415318D1*
X1197865Y415354D1*
X1035949Y577205D1*
X658283Y583528D2*
X650659Y580598D1*
X637504Y577440D1*
X624016Y576378D1*
X610528Y577440D1*
X597373Y580598D1*
X586770Y584900D1*
X578445Y575098D1*
X568861Y566913D1*
X558115Y560328D1*
X546472Y555505D1*
X534218Y552563D1*
X521654Y551575D1*
X509089Y552563D1*
X496835Y555505D1*
X485192Y560328D1*
X474446Y566913D1*
X464862Y575098D1*
X456677Y584682D1*
X450092Y595428D1*
X445269Y607071D1*
X442327Y619325D1*
X441339Y631890D1*
X442327Y644454D1*
X445269Y656709D1*
X450092Y668352D1*
X456677Y679097D1*
X464862Y688681D1*
X468357Y692692D1*
X468020Y697035D1*
X458453Y706602D1*
X450501Y717549D1*
X444358Y729604D1*
X440177Y742471D1*
X438062Y755833D1*
Y769364D1*
X440177Y782726D1*
X444358Y795593D1*
X450501Y807648D1*
X453591Y812856D1*
X448071Y821778D1*
X443675Y831306D1*
X440469Y841295D1*
X438500Y851601D1*
X437797Y862070D1*
X438371Y872546D1*
X440214Y882875D1*
X443297Y892904D1*
X447576Y902484D1*
X452987Y911474D1*
X453777Y912585D1*
X447193Y923455D1*
X442016Y935955D1*
X438857Y949110D1*
X437795Y962598D1*
X438857Y976087D1*
X442016Y989241D1*
X447193Y1001741D1*
X453777Y1012552D1*
X447193Y1023455D1*
X442016Y1035955D1*
X438857Y1049110D1*
X437795Y1062598D1*
X438857Y1076087D1*
X442016Y1089241D1*
X447193Y1101741D1*
X454262Y1113277D1*
X463049Y1123566D1*
X473337Y1132352D1*
X484873Y1139421D1*
X497373Y1144598D1*
X505573Y1146772D1*
X497983Y1154533D1*
X490575Y1164728D1*
X484854Y1175958D1*
X480959Y1187944D1*
X478988Y1200391D1*
Y1212995D1*
X480959Y1225442D1*
X484854Y1237428D1*
X490575Y1248657D1*
X497983Y1258853D1*
X506895Y1267765D1*
X517091Y1275173D1*
X523331Y1278594D1*
X526193Y1286640D1*
X531913Y1297870D1*
X539322Y1308066D1*
X548234Y1316978D1*
X558429Y1324386D1*
X569659Y1330106D1*
X581644Y1334001D1*
X594092Y1335972D1*
X606696D1*
X619143Y1334001D1*
X631129Y1330106D1*
X642358Y1324386D1*
X645861Y1322045D1*
X656266Y1330513D1*
X701139Y1375097D1*
X709535Y1381198D1*
X718783Y1385911D1*
X728654Y1389117D1*
X738906Y1390741D1*
X770341Y1390945D1*
X1212793D1*
X1232635Y1410530D1*
X1241031Y1416631D1*
X1245839Y1419297D1*
X557487Y1419291D1*
X413394Y1271525D1*
X413386Y555570D1*
X559143Y415328D1*
X694462Y415354D1*
X685076Y421244D1*
X675492Y429429D1*
X667307Y439013D1*
X660722Y449759D1*
X655899Y461402D1*
X652957Y473656D1*
X651969Y486220D1*
X652957Y498785D1*
X653241Y500210D1*
X650209Y506667D1*
X646314Y518652D1*
X644343Y531100D1*
Y543703D1*
X646314Y556151D1*
X650209Y568136D1*
X655929Y579366D1*
X658270Y582869D1*
X2900984Y415348D2*
Y475223D1*
X2735618Y475171D1*
X2729898Y463941D1*
X2722490Y453745D1*
X2713577Y444833D1*
X2703382Y437425D1*
X2692152Y431705D1*
X2680167Y427810D1*
X2667719Y425839D1*
X2655115D1*
X2642668Y427810D1*
X2630682Y431705D1*
X2625336Y434169D1*
X2617815Y425492D1*
X2608231Y417307D1*
X2605303Y415350D1*
X2901031Y415354D1*
X3092088Y1320472D2*
X3092119Y1231890D1*
X3161277Y1231697D1*
X3171684Y1230360D1*
X3181850Y1227768D1*
X3191627Y1223961D1*
X3200870Y1218995D1*
X3209441Y1212942D1*
X3210650Y1211942D1*
X3210630Y1271398D1*
X3062665Y1419339D1*
X1708856Y1419291D1*
X1718010Y1413745D1*
X1725903Y1407005D1*
X1763638Y1369270D1*
X2274874Y1369088D1*
X2285126Y1367463D1*
X2294996Y1364257D1*
X2304244Y1359545D1*
X2312640Y1353444D1*
X2335013Y1331360D1*
X2365789Y1300585D1*
X2375226Y1299465D1*
X2437360Y1361319D1*
X2445756Y1367419D1*
X2455004Y1372131D1*
X2464874Y1375339D1*
X2475126Y1376962D1*
X2506562Y1377165D1*
X2631173Y1376962D1*
X2641425Y1375339D1*
X2651295Y1372131D1*
X2660543Y1367419D1*
X2668940Y1361319D1*
X2675110Y1355437D1*
X2686247Y1351760D1*
X2697476Y1346039D1*
X2707672Y1338631D1*
X2716584Y1329719D1*
X2723992Y1319524D1*
X2729713Y1308294D1*
X2733508Y1296664D1*
X2746441Y1299702D1*
X2760236Y1300787D1*
X2774031Y1299702D1*
X2787488Y1296471D1*
X2800273Y1291176D1*
X2810206Y1285192D1*
X2820199Y1291176D1*
X2832984Y1296471D1*
X2846441Y1299702D1*
X2860236Y1300787D1*
X2874031Y1299702D1*
X2887488Y1296471D1*
X2900273Y1291176D1*
X2911825Y1284110D1*
X2911811Y1395276D1*
X3086752D1*
X3092126Y1389892D1*
Y1232546D1*
X3118110Y1231839D2*
D15*
Y1145669D1*
Y685039D2*
Y598870D1*
X1360236Y700736D2*
Y612598D1*
X3001969Y1395224D2*
D16*
Y1309055D1*
D18*
X2763780Y1086614D3*
X2838583D3*
X2761811Y742126D3*
X2836614D3*
D19*
X1466535Y994094D3*
Y1068898D3*
X950787Y883858D3*
Y958661D3*
X1564961Y877953D3*
Y952756D3*
X1377953Y875984D3*
Y950787D3*
D20*
X3007874Y588583D3*
Y474409D3*
D19*
X3001969Y1234252D3*
Y1309055D3*
D18*
X2494094Y858268D3*
X2568898D3*
X1570866Y769685D3*
X1496063D3*
D21*
X3015748Y777559D3*
Y875984D3*
Y954724D3*
Y1053150D3*
D22*
X3118110Y1145669D3*
Y685039D3*
D23*
X1561024Y1084646D3*
D24*
X1783465Y1068898D3*
Y1037402D3*
Y1005906D3*
Y974409D3*
Y942913D3*
Y911417D3*
Y879921D3*
Y848425D3*
Y816929D3*
Y785433D3*
Y753937D3*
D25*
X1850394Y687008D3*
X1881890D3*
X1913386D3*
X1944882D3*
X1976378D3*
X2007874D3*
X2039370D3*
X2070866D3*
X2102362D3*
X2133858D3*
X2165354D3*
D24*
X2232283Y753937D3*
Y785433D3*
Y816929D3*
Y848425D3*
Y879921D3*
Y911417D3*
Y942913D3*
Y974409D3*
Y1005906D3*
Y1037402D3*
Y1068898D3*
D25*
X2165354Y1135827D3*
X2133858D3*
X2102362D3*
X2070866D3*
X2039370D3*
X2007874D3*
X1976378D3*
X1944882D3*
X1913386D3*
X1881890D3*
X1850394D3*
D27*
X1024016Y962598D3*
X1124016Y862598D3*
X1024016D3*
X1124016Y762598D3*
X1024016Y662598D3*
Y762598D3*
X924016Y662598D3*
Y762598D3*
X824016Y662598D3*
Y762598D3*
X724016Y662598D3*
Y762598D3*
X624016Y662598D3*
X524016Y762598D3*
X624016D3*
X524016Y862598D3*
X624016D3*
X524016Y962598D3*
X624016D3*
X524016Y1062598D3*
X624016D3*
X724016Y1162598D3*
Y1062598D3*
X824016Y1162598D3*
Y1062598D3*
X924016Y1162598D3*
Y1062598D3*
X1024016Y1162598D3*
X1124016Y1062598D3*
X1024016D3*
X1124016Y962598D3*
X624016Y1162598D3*
D28*
X2860236Y612598D3*
D29*
X2760236D3*
X2660236D3*
X2560236D3*
X2460236D3*
X2360236D3*
X2260236D3*
X2160236D3*
X2060236D3*
X1960236D3*
X1860236D3*
X1760236D3*
X1660236D3*
X1560236D3*
X1460236D3*
X1360236D3*
Y1212598D3*
X1460236D3*
X1560236D3*
X1660236D3*
X1760236D3*
X1860236D3*
X1960236D3*
X2060236D3*
X2160236D3*
X2260236D3*
X2360236D3*
X2460236D3*
X2560236D3*
X2660236D3*
X2760236D3*
X2860236D3*
D31*
X1470472Y889764D3*
X1660472D3*
X2761811Y1007874D3*
Y817874D3*
M02*
