G04 DipTrace 4.1.3.1*
G04 BottomSilk.gbr*
%MOIN*%
G04 #@! TF.FileFunction,Legend,Bot*
G04 #@! TF.Part,Single*
%ADD10C,0.009843*%
%ADD26C,0.011811*%
%ADD32C,0.001*%
%ADD63C,0.010936*%
%FSLAX26Y26*%
G04*
G70*
G90*
G75*
G01*
G04 BotSilk*
%LPD*%
X3816929Y1151555D2*
D10*
Y679154D1*
Y1151555D2*
X3200805D1*
X3816929Y679154D2*
X3200805D1*
X3078757Y789346D2*
Y728339D1*
Y1102370D2*
Y1041362D1*
G36*
X2998010Y718512D2*
X2996470Y718613D1*
X2994956Y718914D1*
X2993495Y719410D1*
X2992111Y720092D1*
X2990828Y720950D1*
X2989668Y721967D1*
X2988650Y723127D1*
X2987793Y724410D1*
X2987110Y725794D1*
X2986614Y727256D1*
X2986313Y728769D1*
X2986212Y730309D1*
X2986313Y731849D1*
X2986614Y733362D1*
X2987110Y734824D1*
X2987793Y736208D1*
X2988650Y737491D1*
X2989668Y738651D1*
X2990828Y739668D1*
X2992111Y740526D1*
X2993495Y741208D1*
X2994956Y741704D1*
X2996470Y742005D1*
X2998010Y742106D1*
X2998035D1*
X2999574Y742005D1*
X3001088Y741704D1*
X3002549Y741208D1*
X3003933Y740526D1*
X3005216Y739668D1*
X3006377Y738651D1*
X3007394Y737491D1*
X3008251Y736208D1*
X3008934Y734824D1*
X3009430Y733362D1*
X3009731Y731849D1*
X3009832Y730309D1*
X3009731Y728769D1*
X3009430Y727256D1*
X3008934Y725794D1*
X3008251Y724410D1*
X3007394Y723127D1*
X3006377Y721967D1*
X3005216Y720950D1*
X3003933Y720092D1*
X3002549Y719410D1*
X3001088Y718914D1*
X2999574Y718613D1*
X2998035Y718512D1*
X2998010D1*
G37*
X3078757Y966535D2*
D10*
Y864173D1*
X1217717Y1266929D2*
D26*
X430315D1*
Y558268D1*
X1217717D1*
Y1266929D1*
G36*
X1213780Y563795D2*
Y698441D1*
X1079134Y563795D1*
X1076772D1*
X1213780D1*
G37*
X2925197Y659819D2*
D10*
X1295276D1*
X2925197Y1163738D2*
X1295276D1*
Y659819D2*
Y1163738D1*
X2925197Y659819D2*
Y880337D1*
Y1163738D2*
Y943286D1*
Y880337D2*
G02X2925197Y943286I17J31474D01*
G01*
X2660040Y973428D2*
Y839565D1*
X2254524Y973428D2*
X2660040D1*
Y839565D2*
X2254524D1*
Y890749D1*
Y973428D2*
Y922243D1*
G02X2254524Y890749I1864J-15747D01*
G01*
X1445465Y974764D2*
X1685479D1*
X1445465Y804764D2*
X1685479D1*
X1445465Y954772D2*
X1685479D1*
Y824756D2*
X1445465D1*
Y804764D2*
G02X1445465Y974764I7J85000D01*
G01*
X1685479D2*
G02X1685479Y804764I-7J-85000D01*
G01*
X1445465Y824756D2*
G02X1445465Y954772I23J65008D01*
G01*
X1685479D2*
G02X1685479Y824756I-23J-65008D01*
G01*
X2846811Y1032881D2*
Y792867D1*
X2676811Y1032881D2*
Y792867D1*
X2826819Y1032881D2*
Y792867D1*
X2696803D2*
Y1032881D1*
X2676811D2*
G02X2846811Y1032881I85000J-7D01*
G01*
Y792867D2*
G02X2676811Y792867I-85000J7D01*
G01*
X2696803Y1032881D2*
G02X2826819Y1032881I65008J-23D01*
G01*
Y792867D2*
G02X2696803Y792867I-65008J23D01*
G01*
X796617Y1425513D2*
D32*
X659594D1*
X796617Y1424518D2*
X659594D1*
X796617Y1423522D2*
X659594D1*
X796617Y1422514D2*
X659594D1*
X796617Y1421518D2*
X659594D1*
X796617Y1420496D2*
X659594D1*
X796617Y1419501D2*
X659594D1*
X796617Y1418507D2*
X659594D1*
X796617Y1417510D2*
X659594D1*
X796617Y1416516D2*
X659594D1*
X796617Y1415521D2*
X659594D1*
X796617Y1414512D2*
X659594D1*
X796617Y1413517D2*
X659594D1*
X796617Y1412521D2*
X659594D1*
X796617Y1411526D2*
X659594D1*
X796617Y1410504D2*
X659594D1*
X796617Y1409509D2*
X659594D1*
X796617Y1408513D2*
X659594D1*
X796617Y1407505D2*
X659594D1*
X796617Y1406509D2*
X659594D1*
X796617Y1405514D2*
X659594D1*
X796617Y1404520D2*
X659594D1*
X796617Y1403524D2*
X659594D1*
X796617Y1402516D2*
X659594D1*
X796617Y1401520D2*
X659594D1*
X796617Y1400497D2*
X659594D1*
X796617Y1399503D2*
X770573D1*
X796617Y1398508D2*
X770573D1*
X796617Y1397512D2*
X770573D1*
X796617Y1396517D2*
X770573D1*
X796617Y1395522D2*
X770573D1*
X796617Y1394513D2*
X770573D1*
X796617Y1393518D2*
X770573D1*
X796617Y1392522D2*
X770573D1*
X796617Y1391500D2*
X770573D1*
X796617Y1390505D2*
X770573D1*
X796617Y1389510D2*
X770573D1*
X796617Y1388514D2*
X770573D1*
X796617Y1387507D2*
X770573D1*
X796617Y1386510D2*
X770573D1*
X796617Y1385516D2*
X770573D1*
X796617Y1384520D2*
X770573D1*
X796617Y1383525D2*
X770573D1*
X796617Y1382530D2*
X770573D1*
X796617Y1381508D2*
X770573D1*
X796617Y1380499D2*
X770573D1*
X796617Y1379504D2*
X770573D1*
X796617Y1378509D2*
X770573D1*
X796617Y1377513D2*
X770573D1*
X796617Y1376518D2*
X770573D1*
X796617Y1375522D2*
X770573D1*
X796617Y1374514D2*
X770573D1*
X796617Y1373518D2*
X770573D1*
X796617Y1372524D2*
X715600D1*
X674596D2*
X665589D1*
X796617Y1371501D2*
X715600D1*
X676054D2*
X664379D1*
X796617Y1370507D2*
X715600D1*
X677304D2*
X663375D1*
X796617Y1369510D2*
X715600D1*
X678323D2*
X662454D1*
X796617Y1368516D2*
X715600D1*
X679106D2*
X661726D1*
X796617Y1367508D2*
X715600D1*
X679724D2*
X661148D1*
X796617Y1366512D2*
X715600D1*
X680110D2*
X672562D1*
X667625D2*
X660709D1*
X796617Y1365517D2*
X715600D1*
X680412D2*
X673441D1*
X666799D2*
X660323D1*
X796617Y1364521D2*
X715600D1*
X680509D2*
X674156D1*
X666222D2*
X659979D1*
X796617Y1363526D2*
X715600D1*
X680550D2*
X674885D1*
X665837D2*
X659843D1*
X796617Y1362504D2*
X715600D1*
X680605D2*
X675614D1*
X665795D2*
X659843D1*
X796617Y1361509D2*
X715600D1*
X680550D2*
X674940D1*
X666222D2*
X660034D1*
X796617Y1360500D2*
X715600D1*
X680412D2*
X674307D1*
X666854D2*
X660323D1*
X796617Y1359505D2*
X715600D1*
X680165D2*
X673579D1*
X667584D2*
X660612D1*
X796617Y1358509D2*
X715600D1*
X679724D2*
X660997D1*
X796617Y1357514D2*
X715600D1*
X679147D2*
X661437D1*
X796617Y1356520D2*
X715600D1*
X678378D2*
X662014D1*
X796617Y1355524D2*
X715600D1*
X677552D2*
X662743D1*
X796617Y1354516D2*
X715600D1*
X676782D2*
X663472D1*
X796617Y1353520D2*
X715600D1*
X676192D2*
X663995D1*
X796617Y1352499D2*
X715600D1*
X675861D2*
X664339D1*
X796617Y1351503D2*
X715600D1*
X675710D2*
X664490D1*
X796617Y1350508D2*
X715600D1*
X675614D2*
X664531D1*
X796617Y1349512D2*
X715600D1*
X675614D2*
X664585D1*
X796617Y1348517D2*
X715600D1*
X675614D2*
X664585D1*
X796617Y1347508D2*
X715600D1*
X675614D2*
X664585D1*
X796617Y1346513D2*
X715600D1*
X675614D2*
X664585D1*
X796617Y1345518D2*
X715600D1*
X675614D2*
X664585D1*
X796617Y1344522D2*
X770573D1*
X675614D2*
X664585D1*
X796617Y1343528D2*
X770573D1*
X675806D2*
X664531D1*
X796617Y1342505D2*
X770573D1*
X676192D2*
X664339D1*
X796617Y1341510D2*
X770573D1*
X676879D2*
X663664D1*
X796617Y1340501D2*
X770573D1*
X677648D2*
X662840D1*
X796617Y1339507D2*
X770573D1*
X678474D2*
X662110D1*
X796617Y1338510D2*
X770573D1*
X679147D2*
X661437D1*
X796617Y1337516D2*
X770573D1*
X679724D2*
X660900D1*
X796617Y1336521D2*
X770573D1*
X680165D2*
X672562D1*
X667625D2*
X660420D1*
X796617Y1335525D2*
X770573D1*
X680412D2*
X673386D1*
X666799D2*
X660034D1*
X796617Y1334517D2*
X770573D1*
X680509D2*
X673963D1*
X666222D2*
X659787D1*
X796617Y1333508D2*
X770573D1*
X680550D2*
X674307D1*
X665892D2*
X659690D1*
X796617Y1332499D2*
X770573D1*
X680605D2*
X674459D1*
X665741D2*
X659650D1*
X796617Y1331504D2*
X770573D1*
X680550D2*
X674362D1*
X665837D2*
X659787D1*
X796617Y1330509D2*
X770573D1*
X680412D2*
X674018D1*
X666126D2*
X660034D1*
X796617Y1329513D2*
X770573D1*
X680165D2*
X673579D1*
X666608D2*
X660323D1*
X796617Y1328518D2*
X770573D1*
X679724D2*
X660654D1*
X796617Y1327509D2*
X770573D1*
X679147D2*
X661148D1*
X796617Y1326514D2*
X770573D1*
X678378D2*
X661822D1*
X796617Y1325520D2*
X770573D1*
X677552D2*
X662647D1*
X796617Y1324524D2*
X770573D1*
X676782D2*
X663417D1*
X796617Y1323501D2*
X770573D1*
X676192D2*
X663995D1*
X796617Y1322507D2*
X770573D1*
X675861D2*
X664339D1*
X796617Y1321512D2*
X770573D1*
X675710D2*
X664490D1*
X796617Y1320516D2*
X770573D1*
X675614D2*
X664531D1*
X796617Y1319508D2*
X770573D1*
X675614D2*
X664585D1*
X796617Y1318512D2*
X770573D1*
X675614D2*
X664585D1*
X796617Y1317517D2*
X770573D1*
X675614D2*
X664585D1*
X796617Y1316522D2*
X770573D1*
X675614D2*
X664585D1*
X796617Y1315526D2*
X770573D1*
X675614D2*
X664585D1*
X796617Y1314518D2*
X770573D1*
X675614D2*
X664585D1*
X796617Y1313509D2*
X770573D1*
X675614D2*
X664531D1*
X796617Y1312500D2*
X770573D1*
X734617D2*
X729584D1*
X703596D2*
X698605D1*
X675806D2*
X664379D1*
X796617Y1311505D2*
X770573D1*
X736500D2*
X727797D1*
X705521D2*
X696816D1*
X676192D2*
X663995D1*
X796617Y1310510D2*
X770573D1*
X738096D2*
X726188D1*
X707075D2*
X695222D1*
X676879D2*
X663375D1*
X796617Y1309514D2*
X770573D1*
X739361D2*
X724882D1*
X708381D2*
X693861D1*
X677690D2*
X662647D1*
X796617Y1308520D2*
X770573D1*
X740323D2*
X723726D1*
X709495D2*
X692706D1*
X678612D2*
X662014D1*
X796617Y1307510D2*
X770573D1*
X740997D2*
X661437D1*
X796617Y1306516D2*
X770573D1*
X741492D2*
X660860D1*
X796617Y1305521D2*
X770573D1*
X741877D2*
X735442D1*
X728801D2*
X704407D1*
X698659D2*
X673441D1*
X666799D2*
X660420D1*
X796617Y1304499D2*
X770573D1*
X742207D2*
X736156D1*
X728223D2*
X705135D1*
X697780D2*
X674156D1*
X666222D2*
X660034D1*
X796617Y1303503D2*
X770573D1*
X742413D2*
X736693D1*
X727892D2*
X705672D1*
X697202D2*
X674885D1*
X665892D2*
X659787D1*
X796617Y1302508D2*
X770573D1*
X742509D2*
X737077D1*
X727741D2*
X706112D1*
X696816D2*
X675614D1*
X665741D2*
X659745D1*
X796617Y1301513D2*
X770573D1*
X742509D2*
X737037D1*
X727741D2*
X706016D1*
X696816D2*
X674940D1*
X665741D2*
X659787D1*
X796617Y1300517D2*
X770573D1*
X742413D2*
X736500D1*
X728181D2*
X705479D1*
X697202D2*
X674266D1*
X666181D2*
X660034D1*
X796617Y1299509D2*
X770573D1*
X742165D2*
X735634D1*
X728856D2*
X704655D1*
X697835D2*
X673441D1*
X666854D2*
X660323D1*
X796617Y1298513D2*
X770573D1*
X741781D2*
X734617D1*
X729584D2*
X703596D1*
X698605D2*
X672615D1*
X667584D2*
X660612D1*
X796617Y1297518D2*
X770573D1*
X741299D2*
X660997D1*
X796617Y1296524D2*
X770573D1*
X740804D2*
X661630D1*
X796617Y1295528D2*
X770573D1*
X740130D2*
X723768D1*
X709550D2*
X693613D1*
X678570D2*
X662454D1*
X796617Y1294505D2*
X770573D1*
X739209D2*
X724978D1*
X708381D2*
X694782D1*
X677402D2*
X663472D1*
X796617Y1293510D2*
X770573D1*
X737999D2*
X726283D1*
X707075D2*
X696143D1*
X676054D2*
X664531D1*
X796617Y1292501D2*
X770573D1*
X736597D2*
X727591D1*
X705576D2*
X697587D1*
X674596D2*
X665589D1*
G36*
X796579Y1291022D2*
X796514Y1291027D1*
X796450Y1291039D1*
X796388Y1291060D1*
X796330Y1291089D1*
X796276Y1291125D1*
X796227Y1291168D1*
X796184Y1291217D1*
X796148Y1291271D1*
X796119Y1291329D1*
X796098Y1291391D1*
X796086Y1291455D1*
X796081Y1291520D1*
X796086Y1291585D1*
X796098Y1291648D1*
X796119Y1291710D1*
X796148Y1291768D1*
X796184Y1291822D1*
X796227Y1291871D1*
X796276Y1291914D1*
X796330Y1291950D1*
X796388Y1291979D1*
X796450Y1292000D1*
X796514Y1292013D1*
X796579Y1292017D1*
X796601D1*
X796666Y1292013D1*
X796730Y1292000D1*
X796791Y1291979D1*
X796850Y1291950D1*
X796904Y1291914D1*
X796953Y1291871D1*
X796996Y1291822D1*
X797032Y1291768D1*
X797061Y1291710D1*
X797081Y1291648D1*
X797094Y1291585D1*
X797098Y1291520D1*
X797094Y1291455D1*
X797081Y1291391D1*
X797061Y1291329D1*
X797032Y1291271D1*
X796996Y1291217D1*
X796953Y1291168D1*
X796904Y1291125D1*
X796850Y1291089D1*
X796791Y1291060D1*
X796730Y1291039D1*
X796666Y1291027D1*
X796601Y1291022D1*
X796579D1*
G37*
X796617Y1425513D2*
D32*
Y1424518D1*
Y1423522D1*
Y1422514D1*
Y1421518D1*
Y1420496D1*
Y1419501D1*
Y1418507D1*
Y1417510D1*
Y1416516D1*
Y1415521D1*
Y1414512D1*
Y1413517D1*
Y1412521D1*
Y1411526D1*
Y1410504D1*
Y1409509D1*
Y1408513D1*
Y1407505D1*
Y1406509D1*
Y1405514D1*
Y1404520D1*
Y1403524D1*
Y1402516D1*
Y1401520D1*
Y1400497D1*
Y1399503D1*
Y1398508D1*
Y1397512D1*
Y1396517D1*
Y1395522D1*
Y1394513D1*
Y1393518D1*
Y1392522D1*
Y1391500D1*
Y1390505D1*
Y1389510D1*
Y1388514D1*
Y1387507D1*
Y1386510D1*
Y1385516D1*
Y1384520D1*
Y1383525D1*
Y1382530D1*
Y1381508D1*
Y1380499D1*
Y1379504D1*
Y1378509D1*
Y1377513D1*
Y1376518D1*
Y1375522D1*
Y1374514D1*
Y1373518D1*
Y1372524D1*
Y1371501D1*
Y1370507D1*
Y1369510D1*
Y1368516D1*
Y1367508D1*
Y1366512D1*
Y1365517D1*
Y1364521D1*
Y1363526D1*
Y1362504D1*
Y1361509D1*
Y1360500D1*
Y1359505D1*
Y1358509D1*
Y1357514D1*
Y1356520D1*
Y1355524D1*
Y1354516D1*
Y1353520D1*
Y1352499D1*
Y1351503D1*
Y1350508D1*
Y1349512D1*
Y1348517D1*
Y1347508D1*
Y1346513D1*
Y1345518D1*
Y1344522D1*
Y1343528D1*
Y1342505D1*
Y1341510D1*
Y1340501D1*
Y1339507D1*
Y1338510D1*
Y1337516D1*
Y1336521D1*
Y1335525D1*
Y1334517D1*
Y1333508D1*
Y1332499D1*
Y1331504D1*
Y1330509D1*
Y1329513D1*
Y1328518D1*
Y1327509D1*
Y1326514D1*
Y1325520D1*
Y1324524D1*
Y1323501D1*
Y1322507D1*
Y1321512D1*
Y1320516D1*
Y1319508D1*
Y1318512D1*
Y1317517D1*
Y1316522D1*
Y1315526D1*
Y1314518D1*
Y1313509D1*
Y1312500D1*
Y1311505D1*
Y1310510D1*
Y1309514D1*
Y1308520D1*
Y1307510D1*
Y1306516D1*
Y1305521D1*
Y1304499D1*
Y1303503D1*
Y1302508D1*
Y1301513D1*
Y1300517D1*
Y1299509D1*
Y1298513D1*
Y1297518D1*
Y1296524D1*
Y1295528D1*
Y1294505D1*
Y1293510D1*
Y1292501D1*
Y1291507D1*
X659594Y1425513D2*
Y1424518D1*
Y1423522D1*
Y1422514D1*
Y1421518D1*
Y1420496D1*
Y1419501D1*
Y1418507D1*
Y1417510D1*
Y1416516D1*
Y1415521D1*
Y1414512D1*
Y1413517D1*
Y1412521D1*
Y1411526D1*
Y1410504D1*
Y1409509D1*
Y1408513D1*
Y1407505D1*
Y1406509D1*
Y1405514D1*
Y1404520D1*
Y1403524D1*
Y1402516D1*
Y1401520D1*
Y1400497D1*
X770573D2*
Y1399503D1*
Y1398508D1*
Y1397512D1*
Y1396517D1*
Y1395522D1*
Y1394513D1*
Y1393518D1*
Y1392522D1*
Y1391500D1*
Y1390505D1*
Y1389510D1*
Y1388514D1*
Y1387507D1*
Y1386510D1*
Y1385516D1*
Y1384520D1*
Y1383525D1*
Y1382530D1*
Y1381508D1*
Y1380499D1*
Y1379504D1*
Y1378509D1*
Y1377513D1*
Y1376518D1*
Y1375522D1*
Y1374514D1*
Y1373518D1*
Y1372524D1*
X715600D2*
Y1371501D1*
Y1370507D1*
Y1369510D1*
Y1368516D1*
Y1367508D1*
Y1366512D1*
Y1365517D1*
Y1364521D1*
Y1363526D1*
Y1362504D1*
Y1361509D1*
Y1360500D1*
Y1359505D1*
Y1358509D1*
Y1357514D1*
Y1356520D1*
Y1355524D1*
Y1354516D1*
Y1353520D1*
Y1352499D1*
Y1351503D1*
Y1350508D1*
Y1349512D1*
Y1348517D1*
Y1347508D1*
Y1346513D1*
Y1345518D1*
X674596Y1372524D2*
X676054Y1371501D1*
X677304Y1370507D1*
X678323Y1369510D1*
X679106Y1368516D1*
X679724Y1367508D1*
X680110Y1366512D1*
X680412Y1365517D1*
X680509Y1364521D1*
X680550Y1363526D1*
X680605Y1362504D1*
X680550Y1361509D1*
X680412Y1360500D1*
X680165Y1359505D1*
X679724Y1358509D1*
X679147Y1357514D1*
X678378Y1356520D1*
X677552Y1355524D1*
X676782Y1354516D1*
X676192Y1353520D1*
X675861Y1352499D1*
X675710Y1351503D1*
X675614Y1350508D1*
Y1349512D1*
Y1348517D1*
Y1347508D1*
Y1346513D1*
Y1345518D1*
Y1344522D1*
X675806Y1343528D1*
X676192Y1342505D1*
X676879Y1341510D1*
X677648Y1340501D1*
X678474Y1339507D1*
X679147Y1338510D1*
X679724Y1337516D1*
X680165Y1336521D1*
X680412Y1335525D1*
X680509Y1334517D1*
X680550Y1333508D1*
X680605Y1332499D1*
X680550Y1331504D1*
X680412Y1330509D1*
X680165Y1329513D1*
X679724Y1328518D1*
X679147Y1327509D1*
X678378Y1326514D1*
X677552Y1325520D1*
X676782Y1324524D1*
X676192Y1323501D1*
X675861Y1322507D1*
X675710Y1321512D1*
X675614Y1320516D1*
Y1319508D1*
Y1318512D1*
Y1317517D1*
Y1316522D1*
Y1315526D1*
Y1314518D1*
Y1313509D1*
X675806Y1312500D1*
X676192Y1311505D1*
X676879Y1310510D1*
X677690Y1309514D1*
X678612Y1308520D1*
X679588Y1307510D1*
X665589Y1372524D2*
X664379Y1371501D1*
X663375Y1370507D1*
X662454Y1369510D1*
X661726Y1368516D1*
X661148Y1367508D1*
X660709Y1366512D1*
X660323Y1365517D1*
X659979Y1364521D1*
X659843Y1363526D1*
Y1362504D1*
X660034Y1361509D1*
X660323Y1360500D1*
X660612Y1359505D1*
X660997Y1358509D1*
X661437Y1357514D1*
X662014Y1356520D1*
X662743Y1355524D1*
X663472Y1354516D1*
X663995Y1353520D1*
X664339Y1352499D1*
X664490Y1351503D1*
X664531Y1350508D1*
X664585Y1349512D1*
Y1348517D1*
Y1347508D1*
Y1346513D1*
Y1345518D1*
Y1344522D1*
X664531Y1343528D1*
X664339Y1342505D1*
X663664Y1341510D1*
X662840Y1340501D1*
X662110Y1339507D1*
X661437Y1338510D1*
X660900Y1337516D1*
X660420Y1336521D1*
X660034Y1335525D1*
X659787Y1334517D1*
X659690Y1333508D1*
X659650Y1332499D1*
X659787Y1331504D1*
X660034Y1330509D1*
X660323Y1329513D1*
X660654Y1328518D1*
X661148Y1327509D1*
X661822Y1326514D1*
X662647Y1325520D1*
X663417Y1324524D1*
X663995Y1323501D1*
X664339Y1322507D1*
X664490Y1321512D1*
X664531Y1320516D1*
X664585Y1319508D1*
Y1318512D1*
Y1317517D1*
Y1316522D1*
Y1315526D1*
Y1314518D1*
X664531Y1313509D1*
X664379Y1312500D1*
X663995Y1311505D1*
X663375Y1310510D1*
X662647Y1309514D1*
X662014Y1308520D1*
X661437Y1307510D1*
X660860Y1306516D1*
X660420Y1305521D1*
X660034Y1304499D1*
X659787Y1303503D1*
X659745Y1302508D1*
X659787Y1301513D1*
X660034Y1300517D1*
X660323Y1299509D1*
X660612Y1298513D1*
X660997Y1297518D1*
X661630Y1296524D1*
X662454Y1295528D1*
X663472Y1294505D1*
X664531Y1293510D1*
X665589Y1292501D1*
X671598Y1367508D2*
X672562Y1366512D1*
X673441Y1365517D1*
X674156Y1364521D1*
X674885Y1363526D1*
X675614Y1362504D1*
X674940Y1361509D1*
X674307Y1360500D1*
X673579Y1359505D1*
X668601Y1367508D2*
X667625Y1366512D1*
X666799Y1365517D1*
X666222Y1364521D1*
X665837Y1363526D1*
X665795Y1362504D1*
X666222Y1361509D1*
X666854Y1360500D1*
X667584Y1359505D1*
X770573Y1345518D2*
Y1344522D1*
Y1343528D1*
Y1342505D1*
Y1341510D1*
Y1340501D1*
Y1339507D1*
Y1338510D1*
Y1337516D1*
Y1336521D1*
Y1335525D1*
Y1334517D1*
Y1333508D1*
Y1332499D1*
Y1331504D1*
Y1330509D1*
Y1329513D1*
Y1328518D1*
Y1327509D1*
Y1326514D1*
Y1325520D1*
Y1324524D1*
Y1323501D1*
Y1322507D1*
Y1321512D1*
Y1320516D1*
Y1319508D1*
Y1318512D1*
Y1317517D1*
Y1316522D1*
Y1315526D1*
Y1314518D1*
Y1313509D1*
Y1312500D1*
Y1311505D1*
Y1310510D1*
Y1309514D1*
Y1308520D1*
Y1307510D1*
Y1306516D1*
Y1305521D1*
Y1304499D1*
Y1303503D1*
Y1302508D1*
Y1301513D1*
Y1300517D1*
Y1299509D1*
Y1298513D1*
Y1297518D1*
Y1296524D1*
Y1295528D1*
Y1294505D1*
Y1293510D1*
Y1292501D1*
X671598Y1337516D2*
X672562Y1336521D1*
X673386Y1335525D1*
X673963Y1334517D1*
X674307Y1333508D1*
X674459Y1332499D1*
X674362Y1331504D1*
X674018Y1330509D1*
X673579Y1329513D1*
X668601Y1337516D2*
X667625Y1336521D1*
X666799Y1335525D1*
X666222Y1334517D1*
X665892Y1333508D1*
X665741Y1332499D1*
X665837Y1331504D1*
X666126Y1330509D1*
X666608Y1329513D1*
X734617Y1312500D2*
X736500Y1311505D1*
X738096Y1310510D1*
X739361Y1309514D1*
X740323Y1308520D1*
X740997Y1307510D1*
X741492Y1306516D1*
X741877Y1305521D1*
X742207Y1304499D1*
X742413Y1303503D1*
X742509Y1302508D1*
Y1301513D1*
X742413Y1300517D1*
X742165Y1299509D1*
X741781Y1298513D1*
X741299Y1297518D1*
X740804Y1296524D1*
X740130Y1295528D1*
X739209Y1294505D1*
X737999Y1293510D1*
X736597Y1292501D1*
X729584Y1312500D2*
X727797Y1311505D1*
X726188Y1310510D1*
X724882Y1309514D1*
X723726Y1308520D1*
X722613Y1307510D1*
X703596Y1312500D2*
X705521Y1311505D1*
X707075Y1310510D1*
X708381Y1309514D1*
X709495Y1308520D1*
X710609Y1307510D1*
X698605Y1312500D2*
X696816Y1311505D1*
X695222Y1310510D1*
X693861Y1309514D1*
X692706Y1308520D1*
X691592Y1307510D1*
X734617Y1306516D2*
X735442Y1305521D1*
X736156Y1304499D1*
X736693Y1303503D1*
X737077Y1302508D1*
X737037Y1301513D1*
X736500Y1300517D1*
X735634Y1299509D1*
X734617Y1298513D1*
X729584Y1306516D2*
X728801Y1305521D1*
X728223Y1304499D1*
X727892Y1303503D1*
X727741Y1302508D1*
Y1301513D1*
X728181Y1300517D1*
X728856Y1299509D1*
X729584Y1298513D1*
X703596Y1306516D2*
X704407Y1305521D1*
X705135Y1304499D1*
X705672Y1303503D1*
X706112Y1302508D1*
X706016Y1301513D1*
X705479Y1300517D1*
X704655Y1299509D1*
X703596Y1298513D1*
X699567Y1306516D2*
X698659Y1305521D1*
X697780Y1304499D1*
X697202Y1303503D1*
X696816Y1302508D1*
Y1301513D1*
X697202Y1300517D1*
X697835Y1299509D1*
X698605Y1298513D1*
X672615Y1306516D2*
X673441Y1305521D1*
X674156Y1304499D1*
X674885Y1303503D1*
X675614Y1302508D1*
X674940Y1301513D1*
X674266Y1300517D1*
X673441Y1299509D1*
X672615Y1298513D1*
X667584Y1306516D2*
X666799Y1305521D1*
X666222Y1304499D1*
X665892Y1303503D1*
X665741Y1302508D1*
Y1301513D1*
X666181Y1300517D1*
X666854Y1299509D1*
X667584Y1298513D1*
X722613Y1296524D2*
X723768Y1295528D1*
X724978Y1294505D1*
X726283Y1293510D1*
X727591Y1292501D1*
X710609Y1296524D2*
X709550Y1295528D1*
X708381Y1294505D1*
X707075Y1293510D1*
X705576Y1292501D1*
X692609Y1296524D2*
X693613Y1295528D1*
X694782Y1294505D1*
X696143Y1293510D1*
X697587Y1292501D1*
X679588Y1296524D2*
X678570Y1295528D1*
X677402Y1294505D1*
X676054Y1293510D1*
X674596Y1292501D1*
X3015203Y1360200D2*
D63*
X2993648D1*
X2986518Y1362576D1*
X2984086Y1365008D1*
X2981710Y1369761D1*
Y1376946D1*
X2984086Y1381699D1*
X2986518Y1384131D1*
X2993648Y1386508D1*
X3015203D1*
Y1336268D1*
X2931153Y1369761D2*
Y1336268D1*
Y1362576D2*
X2935906Y1367385D1*
X2940714Y1369761D1*
X2947844D1*
X2952653Y1367385D1*
X2957406Y1362576D1*
X2959838Y1355391D1*
Y1350638D1*
X2957406Y1343453D1*
X2952653Y1338700D1*
X2947844Y1336268D1*
X2940714D1*
X2935906Y1338700D1*
X2931153Y1343453D1*
X2909280Y1369761D2*
Y1336268D1*
Y1355391D2*
X2906849Y1362576D1*
X2902095Y1367385D1*
X2897287Y1369761D1*
X2890102D1*
X2839545D2*
Y1336268D1*
Y1362576D2*
X2844298Y1367385D1*
X2849106Y1369761D1*
X2856236D1*
X2861045Y1367385D1*
X2865798Y1362576D1*
X2868230Y1355391D1*
Y1350638D1*
X2865798Y1343453D1*
X2861045Y1338700D1*
X2856236Y1336268D1*
X2849106D1*
X2844298Y1338700D1*
X2839545Y1343453D1*
X2817672Y1360200D2*
X2796117D1*
X2788988Y1362576D1*
X2786556Y1365008D1*
X2784179Y1369761D1*
Y1376946D1*
X2786556Y1381699D1*
X2788988Y1384131D1*
X2796117Y1386508D1*
X2817672D1*
Y1336268D1*
X2762307Y1362576D2*
X2740807D1*
X2733622Y1365008D1*
X2731190Y1367385D1*
X2728813Y1372138D1*
Y1376946D1*
X2731190Y1381699D1*
X2733622Y1384131D1*
X2740807Y1386508D1*
X2762307D1*
Y1336268D1*
X2745560Y1362576D2*
X2728813Y1336268D1*
X2692571Y1386508D2*
X2697380Y1384131D1*
X2702133Y1379323D1*
X2704565Y1374570D1*
X2706941Y1367385D1*
Y1355391D1*
X2704565Y1348261D1*
X2702133Y1343453D1*
X2697380Y1338700D1*
X2692571Y1336268D1*
X2683010D1*
X2678256Y1338700D1*
X2673448Y1343453D1*
X2671071Y1348261D1*
X2668695Y1355391D1*
Y1367385D1*
X2671071Y1374570D1*
X2673448Y1379323D1*
X2678256Y1384131D1*
X2683010Y1386508D1*
X2692571D1*
X2610953Y1374570D2*
X2613329Y1379323D1*
X2618138Y1384131D1*
X2622891Y1386508D1*
X2632452D1*
X2637261Y1384131D1*
X2642014Y1379323D1*
X2644446Y1374570D1*
X2646822Y1367385D1*
Y1355391D1*
X2644446Y1348261D1*
X2642014Y1343453D1*
X2637261Y1338700D1*
X2632452Y1336268D1*
X2622891D1*
X2618138Y1338700D1*
X2613329Y1343453D1*
X2610953Y1348261D1*
Y1355391D1*
X2622891D1*
X2531614Y1374514D2*
Y1376891D1*
X2529238Y1381699D1*
X2526861Y1384076D1*
X2522053Y1386453D1*
X2512491D1*
X2507738Y1384076D1*
X2505361Y1381699D1*
X2502930Y1376891D1*
Y1372138D1*
X2505361Y1367329D1*
X2510115Y1360200D1*
X2534046Y1336268D1*
X2500553D1*
X2447564Y1369761D2*
X2449996Y1362576D1*
X2454749Y1357768D1*
X2461934Y1355391D1*
X2464311D1*
X2471496Y1357768D1*
X2476249Y1362576D1*
X2478681Y1369761D1*
Y1372138D1*
X2476249Y1379323D1*
X2471496Y1384076D1*
X2464311Y1386453D1*
X2461934D1*
X2454749Y1384076D1*
X2449996Y1379323D1*
X2447564Y1369761D1*
Y1357768D1*
X2449996Y1345829D1*
X2454749Y1338644D1*
X2461934Y1336268D1*
X2466687D1*
X2473872Y1338644D1*
X2476249Y1343453D1*
X2425692Y1336268D2*
X2392198Y1386453D1*
X2365518D2*
X2339265D1*
X2353579Y1367329D1*
X2346394D1*
X2341641Y1364953D1*
X2339265Y1362576D1*
X2336833Y1355391D1*
Y1350638D1*
X2339265Y1343453D1*
X2344018Y1338644D1*
X2351203Y1336268D1*
X2358388D1*
X2365518Y1338644D1*
X2367894Y1341076D1*
X2370326Y1345829D1*
X2283844Y1369761D2*
X2286276Y1362576D1*
X2291029Y1357768D1*
X2298214Y1355391D1*
X2300590D1*
X2307775Y1357768D1*
X2312529Y1362576D1*
X2314960Y1369761D1*
Y1372138D1*
X2312529Y1379323D1*
X2307775Y1384076D1*
X2300590Y1386453D1*
X2298214D1*
X2291029Y1384076D1*
X2286276Y1379323D1*
X2283844Y1369761D1*
Y1357768D1*
X2286276Y1345829D1*
X2291029Y1338644D1*
X2298214Y1336268D1*
X2302967D1*
X2310152Y1338644D1*
X2312529Y1343453D1*
X2261971Y1336268D2*
X2228478Y1386453D1*
X2182674Y1336268D2*
Y1386453D1*
X2206606Y1353015D1*
X2170736D1*
X2117747Y1369761D2*
X2120179Y1362576D1*
X2124932Y1357768D1*
X2132117Y1355391D1*
X2134494D1*
X2141679Y1357768D1*
X2146432Y1362576D1*
X2148864Y1369761D1*
Y1372138D1*
X2146432Y1379323D1*
X2141679Y1384076D1*
X2134494Y1386453D1*
X2132117D1*
X2124932Y1384076D1*
X2120179Y1379323D1*
X2117747Y1369761D1*
Y1357768D1*
X2120179Y1345829D1*
X2124932Y1338644D1*
X2132117Y1336268D1*
X2136870D1*
X2144055Y1338644D1*
X2146432Y1343453D1*
X2095875Y1361360D2*
X2068240D1*
X2017683Y1386453D2*
X2041559D1*
X2043936Y1364953D1*
X2041559Y1367329D1*
X2034374Y1369761D1*
X2027244D1*
X2020059Y1367329D1*
X2015251Y1362576D1*
X2012874Y1355391D1*
Y1350638D1*
X2015251Y1343453D1*
X2020059Y1338644D1*
X2027244Y1336268D1*
X2034374D1*
X2041559Y1338644D1*
X2043936Y1341076D1*
X2046368Y1345829D1*
X1991002Y1386508D2*
X1971879Y1336268D1*
X1952755Y1386508D1*
M02*
