M48
INCH
T01C0.0197
T02C0.0276
T03C0.0315
T04C0.0354
T05C0.0433
T06C0.1575
%
T01
X+019921Y+009783
X+019921Y+009094
X+019764Y+008563
X+019094Y+008602
X+018898Y+008110
X+019065Y+007569
X+019547Y+007579
X+018563Y+007579
X+018465Y+009764
X+019154Y+009803
X+019724Y+010571
X+018819Y+010768
X+020768Y+010551
X+021161Y+010118
X+021575Y+010650
X+020827Y+009154
X+020827Y+008445
X+021220Y+007520
X+023602Y+004567
X+024606Y+004547
X+025610Y+004823
X+026614Y+005059
X+030079Y+005886
X+028209Y+009567
X+029390Y+010039
X+026555Y+012776
X+025965Y+012756
X+024941Y+008661
X+015709Y+007717
X+013051Y+011654
X+012264Y+011555
X+008740Y+011358
X+006004Y+012559
X+005591Y+012067
X+005217Y+006319
X+007244Y+005374
X+007323Y+004862
X+008209Y+004961
X+008681Y+004665
X+009252Y+004350
T02
X+031535Y+011457G85X+030827Y+011457
X+031535Y+006850G85X+030827Y+006850
T03
X+027602Y+006126
X+026602Y+006126
X+025602Y+006126
X+024602Y+006126
X+023602Y+006126
X+022602Y+006126
X+021602Y+006126
X+020602Y+006126
X+019602Y+006126
X+018602Y+006126
X+017602Y+006126
X+016602Y+006126
X+015602Y+006126
X+014602Y+006126
X+013602Y+006126
X+013602Y+012126
X+014602Y+012126
X+015602Y+012126
X+016602Y+012126
X+017602Y+012126
X+018602Y+012126
X+019602Y+012126
X+020602Y+012126
X+021602Y+012126
X+022602Y+012126
X+023602Y+012126
X+024602Y+012126
X+025602Y+012126
X+026602Y+012126
X+027602Y+012126
X+028602Y+012126
T04
X+030157Y+007776
X+030157Y+008760
X+030157Y+009547
X+030157Y+010531
X+027618Y+010079
X+027618Y+008179
X+028602Y+006126
X+016605Y+008898
X+014705Y+008898
X+015610Y+010846
X+011240Y+010626
X+010240Y+010626
X+010240Y+009626
X+011240Y+009626
X+011240Y+008626
X+011240Y+007626
X+010240Y+007626
X+010240Y+008626
X+009240Y+007626
X+008240Y+007626
X+007240Y+007626
X+006240Y+007626
X+006240Y+008626
X+006240Y+009626
X+005240Y+009626
X+005240Y+010626
X+006240Y+010626
X+006240Y+011626
X+007240Y+011626
X+008240Y+011626
X+009240Y+011626
X+010240Y+011626
X+009240Y+010626
X+008240Y+010626
X+007240Y+010626
X+005240Y+008626
X+005240Y+007626
X+006240Y+006626
X+007240Y+006626
X+008240Y+006626
X+009240Y+006626
X+010240Y+006626
T05
X+031181Y+010039
X+031181Y+008268
T06
X+008240Y+009126
T00
M30
