G04 DipTrace 4.1.3.1*
G04 TopMask.gbr*
%MOIN*%
G04 #@! TF.FileFunction,Soldermask,Top*
G04 #@! TF.Part,Single*
%ADD31C,0.059055*%
%ADD33C,0.043307*%
%ADD34C,0.15748*%
%ADD39C,0.062992*%
%ADD43R,0.062992X0.062992*%
%ADD45C,0.055118*%
%ADD47R,0.023622X0.074803*%
%ADD49R,0.074803X0.023622*%
%ADD51C,0.062992*%
%ADD52O,0.129921X0.055118*%
%ADD54O,0.082677X0.059055*%
%ADD56R,0.09252X0.074803*%
%ADD58R,0.062992X0.055118*%
%ADD60R,0.055118X0.062992*%
%FSLAX26Y26*%
G04*
G70*
G90*
G75*
G01*
G04 TopMask*
%LPD*%
D60*
X2763780Y1086614D3*
X2838583D3*
X2761811Y742126D3*
X2836614D3*
D58*
X1466535Y994094D3*
Y1068898D3*
X950787Y883858D3*
Y958661D3*
X1564961Y877953D3*
Y952756D3*
X1377953Y875984D3*
Y950787D3*
D56*
X3007874Y588583D3*
Y474409D3*
D58*
X3001969Y1234252D3*
Y1309055D3*
D60*
X2494094Y858268D3*
X2568898D3*
X1570866Y769685D3*
X1496063D3*
D54*
X3015748Y777559D3*
Y875984D3*
Y954724D3*
Y1053150D3*
D52*
X3118110Y1145669D3*
Y685039D3*
D33*
Y1003937D3*
Y826772D3*
D51*
X1561024Y1084646D3*
D49*
X1783465Y1068898D3*
Y1037402D3*
Y1005906D3*
Y974409D3*
Y942913D3*
Y911417D3*
Y879921D3*
Y848425D3*
Y816929D3*
Y785433D3*
Y753937D3*
D47*
X1850394Y687008D3*
X1881890D3*
X1913386D3*
X1944882D3*
X1976378D3*
X2007874D3*
X2039370D3*
X2070866D3*
X2102362D3*
X2133858D3*
X2165354D3*
D49*
X2232283Y753937D3*
Y785433D3*
Y816929D3*
Y848425D3*
Y879921D3*
Y911417D3*
Y942913D3*
Y974409D3*
Y1005906D3*
Y1037402D3*
Y1068898D3*
D47*
X2165354Y1135827D3*
X2133858D3*
X2102362D3*
X2070866D3*
X2039370D3*
X2007874D3*
X1976378D3*
X1944882D3*
X1913386D3*
X1881890D3*
X1850394D3*
D45*
X1024016Y962598D3*
X1124016Y862598D3*
X1024016D3*
X1124016Y762598D3*
X1024016Y662598D3*
Y762598D3*
X924016Y662598D3*
Y762598D3*
X824016Y662598D3*
Y762598D3*
X724016Y662598D3*
Y762598D3*
X624016Y662598D3*
X524016Y762598D3*
X624016D3*
X524016Y862598D3*
X624016D3*
X524016Y962598D3*
X624016D3*
X524016Y1062598D3*
X624016D3*
X724016Y1162598D3*
Y1062598D3*
X824016Y1162598D3*
Y1062598D3*
X924016Y1162598D3*
Y1062598D3*
X1024016Y1162598D3*
X1124016Y1062598D3*
X1024016D3*
X1124016Y962598D3*
X624016Y1162598D3*
D34*
X824016Y912598D3*
D43*
X2860236Y612598D3*
D31*
X2760236D3*
X2660236D3*
X2560236D3*
X2460236D3*
X2360236D3*
X2260236D3*
X2160236D3*
X2060236D3*
X1960236D3*
X1860236D3*
X1760236D3*
X1660236D3*
X1560236D3*
X1460236D3*
X1360236D3*
Y1212598D3*
X1460236D3*
X1560236D3*
X1660236D3*
X1760236D3*
X1860236D3*
X1960236D3*
X2060236D3*
X2160236D3*
X2260236D3*
X2360236D3*
X2460236D3*
X2560236D3*
X2660236D3*
X2760236D3*
X2860236D3*
D39*
X1470472Y889764D3*
X1660472D3*
X2761811Y1007874D3*
Y817874D3*
M02*
