G04 DipTrace 4.1.3.1*
G04 TopPaste.gbr*
%MOIN*%
G04 #@! TF.FileFunction,Paste,Top*
G04 #@! TF.Part,Single*
%ADD48R,0.015748X0.066929*%
%ADD50R,0.066929X0.015748*%
%ADD57R,0.084646X0.066929*%
%ADD59R,0.055118X0.047244*%
%ADD61R,0.047244X0.055118*%
%FSLAX26Y26*%
G04*
G70*
G90*
G75*
G01*
G04 TopPaste*
%LPD*%
D61*
X2763780Y1086614D3*
X2838583D3*
X2761811Y742126D3*
X2836614D3*
D59*
X1466535Y994094D3*
Y1068898D3*
X950787Y883858D3*
Y958661D3*
X1564961Y877953D3*
Y952756D3*
X1377953Y875984D3*
Y950787D3*
D57*
X3007874Y588583D3*
Y474409D3*
D59*
X3001969Y1234252D3*
Y1309055D3*
D61*
X2494094Y858268D3*
X2568898D3*
X1570866Y769685D3*
X1496063D3*
D50*
X1783465Y1068898D3*
Y1037402D3*
Y1005906D3*
Y974409D3*
Y942913D3*
Y911417D3*
Y879921D3*
Y848425D3*
Y816929D3*
Y785433D3*
Y753937D3*
D48*
X1850394Y687008D3*
X1881890D3*
X1913386D3*
X1944882D3*
X1976378D3*
X2007874D3*
X2039370D3*
X2070866D3*
X2102362D3*
X2133858D3*
X2165354D3*
D50*
X2232283Y753937D3*
Y785433D3*
Y816929D3*
Y848425D3*
Y879921D3*
Y911417D3*
Y942913D3*
Y974409D3*
Y1005906D3*
Y1037402D3*
Y1068898D3*
D48*
X2165354Y1135827D3*
X2133858D3*
X2102362D3*
X2070866D3*
X2039370D3*
X2007874D3*
X1976378D3*
X1944882D3*
X1913386D3*
X1881890D3*
X1850394D3*
M02*
